<svg width="20" height="20" viewBox="0 0 20 20" fill="none" xmlns="http://www.w3.org/2000/svg">
<path d="M9.97778 18C9.72593 18 9.51481 17.9148 9.34444 17.7444C9.17407 17.5741 9.08889 17.363 9.08889 17.1111C9.08889 17.0074 9.11111 16.9 9.15555 16.7889C9.2 16.6778 9.26667 16.5778 9.35555 16.4889L13.4667 12.3778L12.8222 11.7333L8.73333 15.8444C8.64444 15.9333 8.54815 16 8.44444 16.0444C8.34074 16.0889 8.22963 16.1111 8.11111 16.1111C7.85926 16.1111 7.64815 16.0259 7.47778 15.8556C7.30741 15.6852 7.22222 15.4741 7.22222 15.2222C7.22222 15.0741 7.24444 14.9519 7.28889 14.8556C7.33333 14.7593 7.39259 14.6741 7.46667 14.6L11.5778 10.4889L10.9556 9.86667L6.84444 13.9556C6.75556 14.0444 6.65926 14.1111 6.55556 14.1556C6.45185 14.2 6.33333 14.2222 6.2 14.2222C5.96296 14.2222 5.75556 14.1333 5.57778 13.9556C5.4 13.7778 5.31111 13.5704 5.31111 13.3333C5.31111 13.2148 5.33333 13.1037 5.37778 13C5.42222 12.8963 5.48889 12.8 5.57778 12.7111L9.68889 8.6L9.04444 7.97778L4.95556 12.0889C4.88148 12.163 4.79259 12.2222 4.68889 12.2667C4.58519 12.3111 4.45926 12.3333 4.31111 12.3333C4.05926 12.3333 3.84815 12.2481 3.67778 12.0778C3.50741 11.9074 3.42222 11.6963 3.42222 11.4444C3.42222 11.3259 3.44444 11.2148 3.48889 11.1111C3.53333 11.0074 3.6 10.9111 3.68889 10.8222L8.64444 5.86667L11.9778 9.22222C12.1407 9.38519 12.3333 9.51481 12.5556 9.61111C12.7778 9.70741 13 9.75556 13.2222 9.75556C13.6963 9.75556 14.1111 9.58889 14.4667 9.25556C14.8222 8.92222 15 8.4963 15 7.97778C15 7.77037 14.963 7.55556 14.8889 7.33333C14.8148 7.11111 14.6815 6.9037 14.4889 6.71111L10.5111 2.73333C10.763 2.4963 11.0444 2.31481 11.3556 2.18889C11.6667 2.06296 11.9778 2 12.2889 2C12.6741 2 13.0296 2.06296 13.3556 2.18889C13.6815 2.31481 13.9778 2.51111 14.2444 2.77778L18 6.55556C18.2667 6.82222 18.463 7.11852 18.5889 7.44444C18.7148 7.77037 18.7778 8.14815 18.7778 8.57778C18.7778 8.87407 18.7111 9.17407 18.5778 9.47778C18.4444 9.78148 18.2519 10.0593 18 10.3111L10.6 17.7333C10.4815 17.8519 10.3778 17.9259 10.2889 17.9556C10.2 17.9852 10.0963 18 9.97778 18ZM2.35556 10.8889L1.77778 10.3111C1.52593 10.0741 1.33333 9.79259 1.2 9.46667C1.06667 9.14074 1 8.8 1 8.44444C1 8.05926 1.07407 7.7037 1.22222 7.37778C1.37037 7.05185 1.55556 6.77778 1.77778 6.55556L5.53333 2.77778C5.77037 2.54074 6.05185 2.35185 6.37778 2.21111C6.7037 2.07037 7.02222 2 7.33333 2C7.73333 2 8.08889 2.05556 8.4 2.16667C8.71111 2.27778 9.01481 2.48148 9.31111 2.77778L13.8667 7.33333C13.9556 7.42222 14.0222 7.51852 14.0667 7.62222C14.1111 7.72593 14.1333 7.83704 14.1333 7.95556C14.1333 8.19259 14.0444 8.4 13.8667 8.57778C13.6889 8.75556 13.4815 8.84444 13.2444 8.84444C13.1111 8.84444 13 8.82593 12.9111 8.78889C12.8222 8.75185 12.7259 8.68148 12.6222 8.57778L8.62222 4.62222L2.35556 10.8889Z" fill="#181C1F"/>
</svg>
