<svg width="190" height="40" viewBox="0 0 190 40" fill="none" xmlns="http://www.w3.org/2000/svg">
<path d="M189.207 15.9159C189.187 9.94028 184.033 5.37917 177.342 4.38296C175.432 4.12739 173.492 4.07693 171.675 4.22343C170.389 4.28203 168.512 4.76712 167.381 5.68194C166.557 5.93751 165.782 6.32818 165.131 6.80187C163.757 4.66294 160.888 3.70905 158.233 3.87997C156.317 3.62928 154.188 3.70091 152.42 4.49039C147.875 2.77957 141.365 3.71881 140.21 8.66408C140.203 8.69012 139.79 10.606 139.609 11.4476C138.338 11.1953 137.364 11.2262 136.223 11.4606C135.865 9.2452 135.841 8.76175 134.802 7.36835C134.149 6.57398 132.943 5.52405 130.907 4.98524C129.162 1.66127 124.451 0.0171896 120.621 0.000911576C116.087 -0.0528059 111.604 2.2717 109.35 5.88379C103.998 3.31186 97.361 3.4958 92.0935 6.37702C89.6811 4.65968 86.8633 5.27988 83.6566 5.15454C80.6386 5.19523 77.0396 5.08454 74.2251 5.3108C72.7422 4.19739 70.6879 3.77416 68.7703 3.87997C66.3661 3.54789 63.6444 3.79695 61.6829 5.20011C59.0035 5.12198 55.7349 5.16105 52.8439 5.16593C49.5622 5.31732 46.8633 4.71177 44.3175 6.45515C38.0716 2.82678 29.4898 3.45023 23.7648 7.75088C21.1327 5.40522 16.3681 4.03461 12.3865 4.14204C10.1108 4.15669 7.84817 4.24622 5.94038 5.68194C2.60013 6.78234 1.00814 9.26962 1 11.9132V14.6039C1 17.8644 1.01791 22.896 1.05046 26.2443C1.10092 28.6909 1.02116 29.3453 1.11232 30.9015C1.41021 33.3285 3.14382 35.3438 5.74993 36.2928C10.1841 37.9434 16.2672 36.5939 17.9926 32.9574C18.8684 31.2971 18.5282 29.443 18.5917 27.5808C18.6926 27.5401 18.7886 27.4961 18.8863 27.4554C23.9569 37.5771 39.4275 40.0774 47.8905 31.8635C48.0077 32.0068 48.1216 32.15 48.2535 32.2835C50.4152 34.5722 54.3871 35.2705 57.7078 34.6324C58.8863 35.3877 60.4327 35.9314 61.8229 36.213C64.7855 36.7958 68.3113 36.2944 70.3802 34.1669C72.4931 34.9075 75.122 34.6699 77.3847 33.856C80.8177 35.5179 86.3034 35.1208 89.0739 32.5033C93.7864 36.5028 101.553 37.9792 107.592 35.767C109.399 39.7193 112.838 40.25 116.976 39.9228C121.433 39.5337 125.465 37.9434 127.983 34.8522C130.855 35.0622 134.431 34.5999 136.681 33.0534C139.253 36.6102 143.975 36.6086 148.028 35.1126C151.575 36.8934 156.639 37.1099 159.639 34.3655C159.709 34.3003 159.776 34.2352 159.843 34.1685C161.042 34.6129 162.874 34.7333 164.316 34.4908C168.216 38.4708 177.32 37.5039 179.433 32.9623C180.309 31.3003 179.969 29.4495 180.032 27.5857C185.783 25.4418 189.379 20.1873 189.21 15.9208L189.207 15.9159Z" fill="#151027"/>
<path d="M115.037 34.5234C114.379 34.5234 113.925 34.4778 113.673 34.385C113.421 34.232 113.23 33.9553 113.105 33.5565C112.978 33.1577 112.916 32.7133 112.916 32.2217C112.916 31.5006 113.067 30.8185 113.37 30.1739C113.471 29.99 113.593 29.8288 113.736 29.6905C113.88 29.5521 113.985 29.4837 114.052 29.4837C115.769 29.4528 116.974 29.2037 117.664 28.7366C118.354 28.2694 118.699 27.6362 118.699 26.8385C118.699 26.1028 118.485 25.2433 118.055 24.2617C117.625 23.2802 117.116 22.2302 116.526 21.1103C116.038 20.1743 115.563 19.209 115.099 18.2112C114.635 17.215 114.252 16.2139 113.95 15.2095C113.647 14.2052 113.495 13.2122 113.495 12.2306C113.495 11.3728 113.655 10.5328 113.976 9.71243C114.295 8.89202 114.825 8.12207 115.568 7.40095C116.258 6.74169 117.046 6.25498 117.93 5.94081C118.813 5.62665 119.71 5.46875 120.62 5.46875C122.356 5.46875 123.905 5.98314 125.269 7.01028C125.437 7.16329 125.522 7.36351 125.522 7.60768C125.522 8.11393 125.273 8.69994 124.776 9.36734C124.28 10.0347 123.778 10.4987 123.274 10.7591C123.072 10.8519 122.873 10.9284 122.679 10.9886C122.486 11.0505 122.364 11.0814 122.313 11.0814C122.297 11.0814 122.263 11.0668 122.212 11.0358C122.061 10.9447 121.83 10.8324 121.517 10.7021C121.205 10.5719 120.856 10.5068 120.469 10.5068C119.997 10.5068 119.644 10.6712 119.408 11.0017C119.172 11.3321 119.054 11.7114 119.054 12.1411C119.054 12.846 119.264 13.7201 119.686 14.7635C120.106 15.8069 120.604 16.9415 121.177 18.1689C121.682 19.2269 122.17 20.3127 122.642 21.4245C123.114 22.5363 123.51 23.6481 123.829 24.7598C124.148 25.8716 124.309 26.933 124.309 27.9455C124.309 28.9579 124.107 29.8663 123.703 30.7176C123.3 31.5689 122.613 32.3015 121.644 32.9151C120.676 33.5288 119.365 33.996 117.716 34.3183C117.396 34.3802 116.984 34.429 116.478 34.4681C115.973 34.5055 115.493 34.525 115.037 34.525V34.5234Z" fill="white"/>
<path fill-rule="evenodd" clip-rule="evenodd" d="M63.5609 30.9357C63.7367 30.9504 63.9435 30.9585 64.1795 30.9585V30.9553C64.5002 30.9553 64.8192 30.9243 65.1399 30.8625C65.4606 30.8006 65.7129 30.6867 65.8985 30.5174C65.931 30.4865 65.9603 30.4409 65.9864 30.379C66.0124 30.3172 66.045 30.2097 66.0873 30.0567C66.1296 29.9037 66.185 29.6807 66.2517 29.3893C66.3184 29.0979 66.4031 28.6991 66.504 28.1929C66.6375 27.6411 66.8068 26.9199 67.0086 26.0312H70.9756C71.1432 26.4918 71.2865 26.8825 71.4053 27.2048C71.6251 27.7566 71.7846 28.1554 71.8855 28.4012C71.9865 28.647 72.0695 28.8 72.1378 28.8619C72.3901 29.0475 72.745 29.1386 73.1992 29.1386C73.974 29.1386 74.8367 28.9352 75.789 28.5282C76.7413 28.1213 77.2166 27.6801 77.2166 27.2048C77.2166 27.1755 76.8845 26.2737 76.2187 24.5026L75.7482 23.251C75.2018 21.7977 74.6004 20.1981 73.9447 18.4521C73.0934 16.1911 72.3364 14.1889 71.6707 12.4488C71.0049 10.7086 70.6305 9.7694 70.5458 9.63104C70.4107 9.50896 70.2301 9.42919 70.0022 9.39013C69.7743 9.35269 69.5431 9.33315 69.3071 9.33315L68.5746 9.35594C68.4557 9.35594 68.2799 9.34129 68.0439 9.31036C67.6565 9.25014 67.2349 9.21921 66.7807 9.21921C66.4601 9.21921 66.1622 9.24851 65.8838 9.31036C65.6055 9.37222 65.3743 9.48617 65.1887 9.65546C65.1204 9.79382 64.855 10.8372 64.3927 12.7841C63.9305 14.7326 63.4079 16.9822 62.8268 19.5362C62.2457 22.0886 61.7313 24.3675 61.2853 26.3681C60.8393 28.3703 60.6162 29.4007 60.6162 29.4626C60.6162 29.6937 60.7709 29.907 61.0834 30.1072C61.3943 30.3058 61.7492 30.4718 62.1448 30.602C62.5403 30.7322 62.8984 30.8283 63.2191 30.8901C63.2696 30.9048 63.3835 30.9211 63.5609 30.9357ZM68.9669 20.7213C69.0255 20.8596 69.0645 20.9524 69.0808 20.998L69.0792 20.9964H68.4737C68.3385 20.9964 68.2506 20.9931 68.2083 20.985C68.166 20.9785 68.1448 20.9654 68.1448 20.9508L68.1709 20.9052C68.186 20.8325 68.2167 20.7019 68.2616 20.5109L68.2718 20.4673C68.3044 20.3306 68.3337 20.189 68.3597 20.0425C68.3857 19.8976 68.4102 19.7739 68.4362 19.6746C68.4623 19.5753 68.4834 19.5248 68.4997 19.5248C68.516 19.5558 68.5502 19.6388 68.6006 19.7771C68.6511 19.9155 68.7113 20.0685 68.778 20.2378C68.8448 20.4217 68.9083 20.5829 68.9669 20.7213Z" fill="white"/>
<path fill-rule="evenodd" clip-rule="evenodd" d="M31.337 30.7518C32.618 31.1343 33.8893 31.3264 35.1525 31.3264C37.4103 31.3264 39.4353 30.812 41.2291 29.7849C43.023 28.7577 44.4375 27.4115 45.4728 25.7479C46.5081 24.0843 47.0257 22.3849 47.0257 20.3762C47.0257 18.3675 46.4706 16.5427 45.3588 14.9019C44.2471 13.261 42.7804 11.9572 40.9622 10.9919C39.1439 10.0266 37.1808 9.54314 35.076 9.54314C33.4091 9.54314 31.7244 9.88823 30.0233 10.5784C27.7151 11.6202 25.9929 13.0315 24.8567 14.8107C23.7188 16.5899 23.1507 18.4602 23.1507 20.4234C23.1507 22.6014 23.8377 24.6475 25.2099 26.5651C26.5838 28.4826 28.625 29.8777 31.337 30.7518ZM36.4662 26.15C35.9095 26.2574 35.3788 26.3111 34.8742 26.3111H34.8725C33.6256 26.3111 32.535 26.0198 31.6007 25.437C30.6663 24.8543 29.9419 24.1071 29.4275 23.1939C28.9148 22.2807 28.6576 21.3187 28.6576 20.3062C28.6576 19.3555 28.9229 18.4391 29.4536 17.5568C29.9842 16.6762 30.7298 15.9583 31.6902 15.4065C32.6506 14.8547 33.8031 14.5779 35.1004 14.5779C36.3978 14.5779 37.5259 14.8628 38.4863 15.4293C39.4467 15.9974 40.1873 16.7266 40.7098 17.6154C41.2307 18.5042 41.4928 19.4402 41.4928 20.4217C41.4928 21.6784 41.0712 22.8488 40.2296 23.9297C39.3881 25.0105 38.133 25.7512 36.4662 26.15Z" fill="white"/>
<path fill-rule="evenodd" clip-rule="evenodd" d="M7.98124 31.2108C8.52818 31.411 9.13861 31.5103 9.81252 31.5103L9.81089 31.512C10.4343 31.512 11.0106 31.4355 11.5412 31.2824C12.0719 31.1294 12.4137 30.9064 12.5651 30.615C12.5651 30.5948 12.5672 30.5063 12.5709 30.3486L12.5782 30.0404C12.5863 29.6872 12.5912 29.2493 12.5912 28.7284L12.5668 23.5992C15.6319 23.0181 17.9304 22.0056 19.4638 20.5634C20.9955 19.1211 21.7622 17.5731 21.7622 15.916C21.7622 14.5356 21.2071 13.2773 20.0953 12.1427C18.9836 11.0065 17.2988 10.2252 15.0426 9.79545C14.1148 9.67336 13.2309 9.61151 12.3893 9.61151C11.7822 9.61151 11.2515 9.63104 10.7973 9.66848C10.3432 9.70755 10.0485 9.75638 9.91344 9.81824C9.77833 9.8801 9.68555 9.94846 9.63509 10.025C9.58462 10.1015 9.55044 10.1698 9.53416 10.2317C9.49998 10.3229 9.44626 10.4075 9.36975 10.484C9.29325 10.5605 9.14512 10.6142 8.92699 10.6452C8.32145 10.7217 7.88194 10.8291 7.61335 10.9675C7.34477 11.1058 7.17548 11.2588 7.10874 11.4281C7.042 11.5974 7.00781 11.7586 7.00781 11.9116V14.6024C7.00781 16.1976 7.0127 18.0761 7.02083 20.2378C7.02897 22.3995 7.042 24.3854 7.05827 26.1956C7.07618 28.0057 7.08432 29.2558 7.08432 29.946V30.2911C7.13478 30.7046 7.4343 31.0106 7.98124 31.2108ZM14.9906 17.4315C14.1653 17.9068 13.3497 18.2454 12.5407 18.444L12.5391 18.4456L12.513 14.604C12.5456 14.604 12.7523 14.6235 13.1316 14.661C13.5109 14.6984 13.9406 14.7684 14.4208 14.8677C14.901 14.967 15.321 15.1086 15.684 15.2925C16.047 15.4765 16.2277 15.7141 16.2277 16.0055C16.2277 16.4808 15.8159 16.9562 14.9906 17.4315Z" fill="white"/>
<path d="M55.2624 29.3942C54.4534 29.3323 53.869 29.2379 53.506 29.1061C53.143 28.9759 52.8956 28.8261 52.7605 28.6568L52.7344 28.634C52.7002 28.6031 52.6758 28.5722 52.6579 28.5412C52.6416 28.5103 52.6286 28.4566 52.6205 28.3801C52.6123 28.3036 52.6042 28.188 52.5961 28.035C52.5879 27.882 52.583 27.6752 52.583 27.4132C52.583 26.9688 52.5912 26.3095 52.6091 25.4354C52.6254 23.7018 52.6433 20.4429 52.6595 15.6588H49.9313C49.443 15.6588 49.0637 15.6555 48.7951 15.6474C48.5249 15.6393 48.3231 15.6279 48.1896 15.6132C48.0545 15.5986 47.9617 15.5709 47.9112 15.5335C47.8608 15.496 47.8185 15.4456 47.7843 15.3837C47.768 15.369 47.7501 15.3463 47.7338 15.3153C47.3464 14.687 47.1527 13.9577 47.1527 13.1292C47.1527 12.5774 47.2324 12.0711 47.392 11.6105C47.5515 11.1498 47.7843 10.8584 48.087 10.7363C48.188 10.7054 48.6845 10.6826 49.5781 10.668C50.4702 10.6533 51.5738 10.6419 52.8874 10.6338C54.2011 10.6256 55.4903 10.6224 56.7535 10.6224C58.0166 10.6224 59.0991 10.6256 59.9993 10.6338C60.8995 10.6419 61.3846 10.6533 61.4513 10.668C61.7541 10.821 61.9852 11.14 62.1464 11.6235C62.3059 12.1069 62.3857 12.6246 62.3857 13.1764C62.3857 13.668 62.3173 14.127 62.1838 14.5568C62.0487 14.9865 61.8387 15.3007 61.5522 15.4993C61.536 15.5139 61.5099 15.5302 61.4757 15.5449C61.4415 15.5595 61.3878 15.5725 61.3113 15.579C61.2348 15.5872 61.1258 15.5904 60.9825 15.5904H60.4144C60.1784 15.5904 59.8756 15.5986 59.5045 15.6132H58.1404L58.0899 28.3345C58.0899 28.5494 57.8115 28.7789 57.2565 29.0247C56.6998 29.2705 56.0356 29.3926 55.2608 29.3926L55.2624 29.3942Z" fill="white"/>
<path d="M82.1684 29.3942C81.3593 29.3323 80.775 29.2379 80.412 29.1061C80.049 28.9759 79.8015 28.8261 79.6664 28.6568L79.6404 28.634C79.6062 28.6031 79.5818 28.5722 79.5639 28.5412C79.5476 28.5103 79.5346 28.4566 79.5264 28.3801C79.5183 28.3036 79.5102 28.188 79.502 28.035C79.4939 27.882 79.489 27.6752 79.489 27.4132C79.489 26.9688 79.4971 26.3095 79.515 25.4354C79.5313 23.7018 79.5492 20.4429 79.5655 15.6588H76.8373C76.349 15.6588 75.9697 15.6555 75.7011 15.6474C75.4309 15.6393 75.229 15.6279 75.0956 15.6132C74.9604 15.5986 74.8677 15.5709 74.8172 15.5335C74.7667 15.496 74.7244 15.4456 74.6902 15.3837C74.674 15.369 74.656 15.3463 74.6398 15.3153C74.2523 14.687 74.0586 13.9577 74.0586 13.1292C74.0586 12.5774 74.1384 12.0711 74.2979 11.6105C74.4575 11.1498 74.6902 10.8584 74.993 10.7363C75.0939 10.7054 75.5904 10.6826 76.4841 10.668C77.3761 10.6533 78.4798 10.6419 79.7934 10.6338C81.107 10.6256 82.3962 10.6224 83.6594 10.6224C84.9226 10.6224 86.0051 10.6256 86.9053 10.6338C87.8054 10.6419 88.2905 10.6533 88.3573 10.668C88.66 10.821 88.8912 11.14 89.0523 11.6235C89.2119 12.1069 89.2916 12.6246 89.2916 13.1764C89.2916 13.668 89.2233 14.127 89.0898 14.5568C88.9547 14.9865 88.7447 15.3007 88.4582 15.4993C88.4419 15.5139 88.4159 15.5302 88.3817 15.5449C88.3475 15.5595 88.2938 15.5725 88.2173 15.579C88.1408 15.5872 88.0317 15.5904 87.8885 15.5904H87.3204C87.0843 15.5904 86.7815 15.5986 86.4104 15.6132H85.0463L84.9958 28.3345C84.9958 28.5494 84.7175 28.7789 84.1624 29.0247C83.6057 29.2705 82.9416 29.3926 82.1667 29.3926L82.1684 29.3942Z" fill="white"/>
<path fill-rule="evenodd" clip-rule="evenodd" d="M97.4778 30.7518C98.7589 31.1343 100.03 31.3264 101.293 31.3264C103.551 31.3264 105.576 30.812 107.37 29.7849C109.164 28.7577 110.578 27.4115 111.614 25.7479C112.649 24.0843 113.167 22.3849 113.167 20.3762C113.167 18.3675 112.612 16.5427 111.5 14.9019C110.388 13.261 108.921 11.9572 107.103 10.9919C105.285 10.0266 103.322 9.54314 101.217 9.54314C99.55 9.54314 97.8653 9.88823 96.1642 10.5784C93.856 11.6202 92.1338 13.0315 90.9976 14.8107C89.8597 16.5899 89.2916 18.4602 89.2916 20.4234C89.2916 22.6014 89.9786 24.6475 91.3508 26.5651C92.7247 28.4826 94.7659 29.8777 97.4778 30.7518ZM102.607 26.15C102.05 26.2574 101.52 26.3111 101.015 26.3111H101.013C99.7665 26.3111 98.6759 26.0198 97.7415 25.437C96.8072 24.8543 96.0828 24.1071 95.5684 23.1939C95.0557 22.2807 94.7985 21.3187 94.7985 20.3062C94.7985 19.3555 95.0638 18.4391 95.5945 17.5568C96.1251 16.6762 96.8707 15.9583 97.8311 15.4065C98.7915 14.8547 99.944 14.5779 101.241 14.5779C102.539 14.5779 103.667 14.8628 104.627 15.4293C105.588 15.9974 106.328 16.7266 106.851 17.6154C107.372 18.5042 107.634 19.4402 107.634 20.4217C107.634 21.6784 107.212 22.8488 106.371 23.9297C105.529 25.0105 104.274 25.7512 102.607 26.15Z" fill="white"/>
<path d="M142.195 30.4751C142.431 30.5516 142.692 30.5906 142.978 30.5906L142.975 30.589C143.546 30.589 144.175 30.4962 144.857 30.3123C145.539 30.1283 146.128 29.92 146.624 29.6905C147.121 29.4609 147.394 29.2623 147.445 29.0931L151.436 11.0114C151.454 10.9349 151.462 10.8584 151.462 10.7819C151.462 10.4287 151.273 10.134 150.894 9.89637C150.515 9.65871 150.044 9.47966 149.48 9.35594C148.915 9.23386 148.373 9.172 147.85 9.172C147.396 9.172 147 9.22246 146.664 9.32176C146.327 9.42268 146.133 9.57895 146.082 9.79382C145.138 14.1645 144.469 17.2899 144.074 19.1683C143.678 21.0468 143.439 22.1781 143.354 22.5607C143.338 22.6225 143.325 22.673 143.317 22.7104C143.307 22.7495 143.304 22.7837 143.304 22.8146C143.304 22.8455 143.299 22.8716 143.291 22.8944C143.281 22.9172 143.278 22.9367 143.278 22.9514C143.278 22.966 143.273 22.9774 143.265 22.9855C143.255 22.9937 143.252 23.0051 143.252 23.0197C143.234 23.0197 143.18 22.9546 143.087 22.8244C142.994 22.6942 142.872 22.5298 142.721 22.3295C142.586 22.1293 142.434 21.9226 142.267 21.7077C141.761 20.9719 141.315 20.3045 140.927 19.7071C140.322 18.7712 139.799 18.0419 139.361 17.521C138.923 17.0001 138.451 16.7397 137.947 16.7397C137.323 16.7397 136.54 17.1775 135.598 18.0517C134.655 18.9258 133.34 20.329 131.657 22.2612C131.354 19.9302 131.097 18.0175 130.887 16.5215C130.677 15.0256 130.486 13.6989 130.319 12.5416C130.149 11.3842 130.04 10.751 129.99 10.6435C129.839 10.4596 129.581 10.3229 129.22 10.2301C128.857 10.1373 128.448 10.0917 127.994 10.0917C127.338 10.0917 126.689 10.1796 126.049 10.3554C125.409 10.5328 124.971 10.7965 124.735 11.1498L124.711 11.3109C124.711 11.7097 124.82 12.7108 125.04 14.3126C125.258 15.916 125.502 17.6561 125.772 19.5346C126.041 21.4131 126.285 23.0572 126.505 24.4685C126.672 25.5428 126.783 26.2721 126.834 26.6546C126.9 27.0534 126.951 27.3904 126.985 27.6671C127.035 28.0513 127.081 28.3345 127.123 28.5184C127.166 28.7024 127.221 28.8407 127.288 28.9319C127.355 29.0231 127.455 29.0996 127.591 29.1614C128.028 29.3454 128.559 29.4381 129.183 29.4381C129.974 29.4381 130.757 29.3551 131.531 29.1858C132.306 29.0182 132.76 28.8879 132.896 28.7952L137.292 23.9183C137.309 23.9183 137.409 24.0517 137.595 24.3203C137.781 24.5889 138.017 24.9308 138.303 25.3442C138.759 26.0035 139.255 26.7165 139.794 27.4832C140.333 28.2515 140.826 28.9221 141.272 29.4967C141.72 30.073 142.026 30.3986 142.195 30.4751Z" fill="white"/>
<path fill-rule="evenodd" clip-rule="evenodd" d="M153.64 30.9585C153.404 30.9585 153.198 30.9504 153.022 30.9357C152.844 30.9211 152.73 30.9048 152.68 30.8901C152.359 30.8283 152.001 30.7322 151.606 30.602C151.21 30.4718 150.855 30.3058 150.544 30.1072C150.232 29.907 150.077 29.6937 150.077 29.4626C150.077 29.4007 150.3 28.3703 150.746 26.3681C151.192 24.3675 151.706 22.0886 152.288 19.5362C152.869 16.9822 153.391 14.7326 153.854 12.7841C154.316 10.8372 154.581 9.79382 154.65 9.65546C154.835 9.48617 155.066 9.37222 155.345 9.31036C155.623 9.24851 155.921 9.21921 156.242 9.21921C156.696 9.21921 157.117 9.25014 157.505 9.31036C157.741 9.34129 157.917 9.35594 158.035 9.35594L158.768 9.33315C159.004 9.33315 159.235 9.35269 159.463 9.39013C159.691 9.42919 159.872 9.50896 160.007 9.63104C160.091 9.7694 160.466 10.7086 161.131 12.4488C161.797 14.1889 162.554 16.1911 163.405 18.4521C164.059 20.1928 164.659 21.7881 165.204 23.2379L165.68 24.5026C166.345 26.2737 166.677 27.1755 166.677 27.2048C166.677 27.6801 166.202 28.1213 165.25 28.5282C164.298 28.9352 163.435 29.1386 162.66 29.1386C162.206 29.1386 161.851 29.0475 161.599 28.8619C161.53 28.8 161.447 28.647 161.346 28.4012C161.245 28.1554 161.086 27.7566 160.866 27.2048C160.747 26.8825 160.604 26.4918 160.436 26.0312H156.469C156.268 26.9199 156.098 27.6411 155.965 28.1929C155.864 28.6991 155.779 29.0979 155.712 29.3893C155.646 29.6807 155.59 29.9037 155.548 30.0567C155.506 30.2097 155.473 30.3172 155.447 30.379C155.421 30.4409 155.392 30.4865 155.359 30.5174C155.174 30.6867 154.921 30.8006 154.601 30.8625C154.28 30.9243 153.961 30.9553 153.64 30.9553V30.9585ZM158.542 20.998C158.525 20.9524 158.486 20.8596 158.428 20.7213C158.369 20.5829 158.306 20.4217 158.239 20.2378C158.172 20.0685 158.112 19.9155 158.061 19.7771C158.011 19.6388 157.977 19.5558 157.96 19.5248C157.944 19.5248 157.923 19.5753 157.897 19.6746C157.871 19.7739 157.847 19.8976 157.82 20.0425C157.794 20.189 157.765 20.3306 157.733 20.4673L157.722 20.5132C157.677 20.703 157.647 20.8328 157.632 20.9052L157.606 20.9508C157.606 20.9654 157.627 20.9785 157.669 20.985C157.711 20.9931 157.799 20.9964 157.934 20.9964H158.54L158.542 20.998Z" fill="white"/>
<path fill-rule="evenodd" clip-rule="evenodd" d="M169.419 31.2108C169.966 31.411 170.576 31.5103 171.25 31.5103L171.248 31.512C171.872 31.512 172.448 31.4355 172.979 31.2824C173.509 31.1294 173.851 30.9064 174.002 30.615C174.002 30.6024 174.003 30.563 174.005 30.4966C174.007 30.4009 174.011 30.2491 174.016 30.0404C174.024 29.6872 174.029 29.2493 174.029 28.7284L174.004 23.5992C177.069 23.0181 179.368 22.0056 180.901 20.5634C182.433 19.1211 183.2 17.5731 183.2 15.916C183.2 14.5356 182.644 13.2773 181.533 12.1427C180.421 11.0065 178.736 10.2252 176.48 9.79545C175.552 9.67336 174.668 9.61151 173.827 9.61151C173.219 9.61151 172.689 9.63104 172.235 9.66848C171.781 9.70755 171.486 9.75638 171.351 9.81824C171.216 9.8801 171.123 9.94846 171.072 10.025C171.022 10.1015 170.988 10.1698 170.972 10.2317C170.937 10.3229 170.884 10.4075 170.807 10.484C170.731 10.5605 170.582 10.6142 170.364 10.6452C169.759 10.7217 169.319 10.8291 169.051 10.9675C168.782 11.1058 168.613 11.2588 168.546 11.4281C168.479 11.5974 168.445 11.7586 168.445 11.9116V14.6024C168.445 16.1976 168.45 18.0761 168.458 20.2378C168.466 22.3995 168.479 24.3854 168.496 26.1956C168.514 28.0057 168.522 29.2558 168.522 29.946V30.2911C168.572 30.7046 168.872 31.0106 169.419 31.2108ZM176.428 17.4315C175.603 17.9068 174.787 18.2454 173.978 18.444L173.976 18.4456L173.95 14.604C173.983 14.604 174.19 14.6235 174.569 14.661C174.948 14.6984 175.378 14.7684 175.858 14.8677C176.338 14.967 176.758 15.1086 177.121 15.2925C177.484 15.4765 177.665 15.7141 177.665 16.0055C177.665 16.4808 177.253 16.9562 176.428 17.4315Z" fill="white"/>
</svg>
