<svg width="60" height="63" viewBox="0 0 60 63" fill="none" xmlns="http://www.w3.org/2000/svg">
<g clip-path="url(#clip0_1304_5434)">
<path d="M1.24484 23.158C0.994293 32.5535 1.16447 41.9608 1.75066 51.3397C3.73138 51.5855 5.66247 52.2331 7.39029 53.233C7.23666 43.6957 7.08066 34.1584 6.92702 24.6211C5.06684 24.0633 3.20666 23.5055 1.34647 22.9453" stroke="#151027" stroke-width="2" stroke-linecap="round" stroke-linejoin="round"/>
<path d="M6.77472 24.4559C7.99672 23.8413 9.19035 23.1724 10.3533 22.4491C9.78126 21.5368 8.64672 21.1799 7.60908 20.8915C7.16472 20.7686 6.72035 20.6457 6.27599 20.5204C6.10817 20.4732 5.93563 20.4259 5.76308 20.4401C5.50072 20.4613 5.27381 20.6197 5.05635 20.7686C3.92417 21.5486 2.73999 22.253 1.51562 22.8746" stroke="#151027" stroke-width="2" stroke-linecap="round" stroke-linejoin="round"/>
<path d="M27.7657 27.8984C27.5483 38.6553 27.4206 49.4123 27.3828 60.1692" stroke="#151027" stroke-width="2" stroke-linecap="round" stroke-linejoin="round"/>
<path d="M27.6797 59.9844C28.8071 60.1404 29.8968 60.58 30.8162 61.2513" stroke="#151027" stroke-width="2" stroke-linecap="round" stroke-linejoin="round"/>
<path d="M28.1953 27.4882C29.2826 27.4504 30.3769 27.6915 31.3484 28.1784" stroke="#151027" stroke-width="2" stroke-linecap="round" stroke-linejoin="round"/>
<path d="M31.6842 28.1406C31.7125 38.8006 31.7433 49.4583 31.7716 60.1183C31.7716 60.435 31.7669 60.773 31.5943 61.0401C31.4218 61.3072 31.0153 61.4443 30.7812 61.2292" stroke="#151027" stroke-width="2" stroke-linecap="round" stroke-linejoin="round"/>
<path d="M31.9175 28.7226C32.844 27.9473 33.9171 27.3493 35.0635 26.9688C35.7537 35.9624 36.2666 44.9702 36.6022 53.9851C36.6211 54.5122 36.6377 55.0558 36.4533 55.5522C36.2642 56.0628 35.879 56.4717 35.5055 56.864C34.2362 58.2018 32.9646 59.5373 31.6953 60.8751" stroke="#151027" stroke-width="2" stroke-linecap="round" stroke-linejoin="round"/>
<path d="M34.9035 26.4942C34.2015 26.3288 33.5326 26.0191 32.9535 25.5889C32.6391 25.3549 32.2916 25.0713 31.9064 25.1446C31.6866 25.1871 31.5069 25.3384 31.3367 25.4849C30.2944 26.376 29.174 27.1726 27.9922 27.8675" stroke="#151027" stroke-width="2" stroke-linecap="round" stroke-linejoin="round"/>
<path d="M49.4062 19.6875C50.7512 19.7797 52.0819 20.0728 53.3417 20.5573" stroke="#151027" stroke-width="2" stroke-linecap="round" stroke-linejoin="round"/>
<path d="M53.3594 20.5234C54.085 29.4154 54.3474 38.3429 54.1441 47.2633" stroke="#151027" stroke-width="2" stroke-linecap="round" stroke-linejoin="round"/>
<path d="M54.489 47.2533C55.7701 46.4118 57.0536 45.5704 58.3347 44.7289C57.5357 36.1725 56.9567 27.5949 56.6045 19.0078C55.4368 19.5184 54.2692 20.0289 53.1016 20.5418" stroke="#151027" stroke-width="2" stroke-linecap="round" stroke-linejoin="round"/>
<path d="M49.4453 19.5133C50.3151 18.6908 51.3102 17.9982 52.3857 17.4688C53.6597 17.9131 54.962 18.2771 56.2833 18.5584" stroke="#151027" stroke-width="2" stroke-linecap="round" stroke-linejoin="round"/>
<path d="M9.84375 23.0156C16.6416 23.2142 23.1699 25.9962 29.9701 26.1569" stroke="#151027" stroke-width="2" stroke-linecap="round" stroke-linejoin="round"/>
<path d="M6.88281 24.2734C13.9548 25.3087 21.015 26.4338 28.061 27.644" stroke="#151027" stroke-width="2" stroke-linecap="round" stroke-linejoin="round"/>
<path d="M7.82812 52.2891C14.1225 55.2034 20.6225 57.6758 27.2619 59.6802" stroke="#151027" stroke-width="2" stroke-linecap="round" stroke-linejoin="round"/>
<path d="M8.14844 44.4112C10.6043 44.1465 13.0648 44.709 15.471 45.2668C19.5057 46.2028 23.5404 47.1388 27.5752 48.0748" stroke="#151027" stroke-width="2" stroke-linecap="round" stroke-linejoin="round"/>
<path d="M7.25 32.2592C9.79091 31.881 12.2964 32.9281 14.7096 33.8026C18.8153 35.2894 23.0651 36.327 27.3078 37.3623" stroke="#151027" stroke-width="2" stroke-linecap="round" stroke-linejoin="round"/>
<path d="M36.1406 36.4825C42.2719 34.9745 48.1715 32.5353 53.5795 29.2734" stroke="#151027" stroke-width="2" stroke-linecap="round" stroke-linejoin="round"/>
<path d="M36.7734 47.6977C38.5863 46.9909 40.3993 46.2842 42.1673 45.4735C46.176 43.6417 49.9271 41.3017 53.6663 38.9688" stroke="#151027" stroke-width="2" stroke-linecap="round" stroke-linejoin="round"/>
<path d="M34.9297 27.2144C35.9531 27.0088 36.9151 26.5857 37.8748 26.1768C42.6091 24.1582 47.4593 22.4139 52.3946 20.9531" stroke="#151027" stroke-width="2" stroke-linecap="round" stroke-linejoin="round"/>
<path d="M33.3984 25.7977C38.5417 23.5121 43.789 21.4628 49.1213 19.6641" stroke="#151027" stroke-width="2" stroke-linecap="round" stroke-linejoin="round"/>
<path d="M10.6641 22.2363C18.6508 21.4043 25.9213 17.0269 33.8939 16.0625" stroke="#151027" stroke-width="2" stroke-linecap="round" stroke-linejoin="round"/>
<path d="M33.7891 16.0547C34.1531 19.0329 34.5194 22.0134 34.8834 24.9916" stroke="#151027" stroke-width="2" stroke-linecap="round" stroke-linejoin="round"/>
<path d="M6.99219 20.4886C8.83346 20.3279 10.6346 19.8764 12.4262 19.4273C18.886 17.8059 25.3482 16.1821 31.7702 14.4141" stroke="#151027" stroke-width="2" stroke-linecap="round" stroke-linejoin="round"/>
<path d="M31.6641 14.3199C32.0115 13.9134 32.6946 14.1568 33.0752 14.5327C33.4557 14.9085 33.7701 15.4167 34.2877 15.5467" stroke="#151027" stroke-width="2" stroke-linecap="round" stroke-linejoin="round"/>
<path d="M32.0156 14.1176L36.0929 13.7891" stroke="#151027" stroke-width="2" stroke-linecap="round" stroke-linejoin="round"/>
<path d="M36.6444 13.8438C35.5122 14.3921 34.4982 15.1816 33.6875 16.1459" stroke="#151027" stroke-width="2" stroke-linecap="round" stroke-linejoin="round"/>
<path d="M33.6016 16.1908C34.651 16.0017 35.7052 16.387 36.731 16.6801C40.7965 17.8383 45.2425 17.583 49.107 19.299" stroke="#151027" stroke-width="2" stroke-linecap="round" stroke-linejoin="round"/>
<path d="M36.625 13.8906C37.743 13.8977 38.7334 14.5643 39.7592 15.0086C40.7897 15.4554 41.8959 15.687 42.995 15.9163C45.7439 16.4906 48.4905 17.0626 51.2394 17.637" stroke="#151027" stroke-width="2" stroke-linecap="round" stroke-linejoin="round"/>
<path d="M36.5391 55.6811C42.668 53.568 48.544 50.7316 54.0111 47.25" stroke="#151027" stroke-width="2" stroke-linecap="round" stroke-linejoin="round"/>
<path d="M6.07031 14.0109C7.18122 13.9069 8.30631 13.966 9.40068 14.1811" stroke="#151027" stroke-width="2" stroke-linecap="round" stroke-linejoin="round"/>
<path d="M9.15625 9.0625C10.2246 9.59668 11.2221 10.2727 12.1155 11.0645" stroke="#151027" stroke-width="2" stroke-linecap="round" stroke-linejoin="round"/>
<path d="M15.9219 5.04688C16.0991 6.56669 16.1346 8.10306 16.0306 9.62997" stroke="#151027" stroke-width="2" stroke-linecap="round" stroke-linejoin="round"/>
<path d="M48.2734 11.0977C49.72 10.3862 51.1642 9.67239 52.6107 8.96094" stroke="#151027" stroke-width="2" stroke-linecap="round" stroke-linejoin="round"/>
<path d="M51.6016 12.9609H56.3832" stroke="#151027" stroke-width="2" stroke-linecap="round" stroke-linejoin="round"/>
<path d="M46.7755 7.54762C47.0048 5.53617 46.889 3.4869 46.4375 1.51562" stroke="#151027" stroke-width="2" stroke-linecap="round" stroke-linejoin="round"/>
</g>
<defs>
<clipPath id="clip0_1304_5434">
<rect width="58.8569" height="61.4758" fill="white" transform="translate(0.304688 0.6875)"/>
</clipPath>
</defs>
</svg>
