<svg width="34" height="34" viewBox="0 0 34 34" fill="none" xmlns="http://www.w3.org/2000/svg">
<rect x="0.5" y="0.5" width="33" height="33" rx="16.5" fill="white"/>
<rect x="0.5" y="0.5" width="33" height="33" rx="16.5" stroke="#EBEBEB"/>
<path d="M16 18H11C10.7167 18 10.4792 17.9042 10.2875 17.7125C10.0958 17.5208 10 17.2833 10 17C10 16.7167 10.0958 16.4792 10.2875 16.2875C10.4792 16.0958 10.7167 16 11 16H16V11C16 10.7167 16.0958 10.4792 16.2875 10.2875C16.4792 10.0958 16.7167 10 17 10C17.2833 10 17.5208 10.0958 17.7125 10.2875C17.9042 10.4792 18 10.7167 18 11V16H23C23.2833 16 23.5208 16.0958 23.7125 16.2875C23.9042 16.4792 24 16.7167 24 17C24 17.2833 23.9042 17.5208 23.7125 17.7125C23.5208 17.9042 23.2833 18 23 18H18V23C18 23.2833 17.9042 23.5208 17.7125 23.7125C17.5208 23.9042 17.2833 24 17 24C16.7167 24 16.4792 23.9042 16.2875 23.7125C16.0958 23.5208 16 23.2833 16 23V18Z" fill="#151027"/>
</svg>
