<svg width="21" height="20" viewBox="0 0 21 20" fill="none" xmlns="http://www.w3.org/2000/svg">
<rect x="0.794118" y="19.7059" width="19.4118" height="19.4118" rx="9.70588" transform="rotate(-90 0.794118 19.7059)" fill="white"/>
<rect x="0.794118" y="19.7059" width="19.4118" height="19.4118" rx="9.70588" transform="rotate(-90 0.794118 19.7059)" stroke="#EBEBEB" stroke-width="0.588235"/>
<path d="M11.9221 9.20287L10.4488 7.72956C10.3048 7.5855 10.2327 7.40543 10.2327 7.18934C10.2327 6.97325 10.3048 6.78664 10.4488 6.62948C10.606 6.47233 10.7926 6.39375 11.0087 6.39375C11.2248 6.39375 11.4114 6.47233 11.5685 6.62948L14.3777 9.4386C14.4562 9.51718 14.5119 9.60231 14.5446 9.69398C14.5774 9.78565 14.5937 9.88387 14.5937 9.98864C14.5937 10.0934 14.5774 10.1916 14.5446 10.2833C14.5119 10.375 14.4562 10.4601 14.3777 10.5387L11.5489 13.3674C11.3917 13.5246 11.2084 13.5999 10.9989 13.5934C10.7893 13.5868 10.606 13.505 10.4488 13.3478C10.3048 13.1907 10.2295 13.0073 10.2229 12.7978C10.2164 12.5882 10.2917 12.4049 10.4488 12.2477L11.9221 10.7744L7.07001 10.7744C6.84738 10.7744 6.66076 10.6991 6.51015 10.5485C6.35955 10.3979 6.28424 10.2113 6.28424 9.98864C6.28424 9.76601 6.35955 9.57939 6.51015 9.42878C6.66076 9.27818 6.84738 9.20287 7.07001 9.20287L11.9221 9.20287Z" fill="#151027"/>
</svg>
