<svg width="21" height="20" viewBox="0 0 21 20" fill="none" xmlns="http://www.w3.org/2000/svg">
<path fill-rule="evenodd" clip-rule="evenodd" d="M13.209 12.0413C12.7341 12.0918 12.3486 11.9062 12.0527 11.5602C11.6624 11.1038 11.5687 10.5836 11.7718 10.0295C11.957 9.52437 12.3197 9.19041 12.8848 9.09073C13.5258 8.97756 14.1912 9.38931 14.4183 10.0364C14.4789 10.209 14.5059 10.3879 14.5128 10.5217C14.5079 11.3315 13.957 11.9617 13.209 12.0413ZM8.81504 11.7098C8.25635 12.1978 7.46923 12.1652 6.94113 11.645C6.33483 11.0477 6.34666 10.0336 6.96664 9.45361C7.62005 8.84241 8.67107 9.00321 9.11834 9.78496C9.25693 10.0273 9.3276 10.2883 9.32623 10.618C9.31636 11.0132 9.16251 11.4062 8.81504 11.7098ZM18.2264 11.4002C18.0367 9.24177 17.258 7.28647 15.9958 5.49917C15.9383 5.41765 15.8754 5.34398 15.7781 5.30271C14.8405 4.90584 13.8672 4.6227 12.8577 4.45094C12.7254 4.42839 12.6549 4.47397 12.6018 4.58086C12.5233 4.73858 12.433 4.89105 12.3587 5.05036C12.302 5.17185 12.2148 5.20536 12.0835 5.18786C11.0202 5.04633 9.95636 5.04362 8.89302 5.18702C8.76898 5.20377 8.68678 5.17251 8.63498 5.05682C8.57663 4.92615 8.49648 4.80428 8.44086 4.67268C8.35954 4.48043 8.23697 4.42165 8.01598 4.46517C7.09271 4.64676 6.197 4.90827 5.32738 5.25572C5.15692 5.32386 5.03611 5.4257 4.93563 5.57293C3.72011 7.35423 2.95254 9.28689 2.76859 11.4183C2.70946 12.1032 2.71513 12.7882 2.77055 13.4729C2.78091 13.6012 2.79948 13.724 2.92908 13.812C4.04041 14.5666 5.2446 15.141 6.54124 15.5398C6.66401 15.5776 6.74289 15.5522 6.81639 15.4514C7.04491 15.1381 7.25672 14.8156 7.44868 14.4803C7.51837 14.3585 7.49198 14.2965 7.35827 14.2468C7.0497 14.1317 6.74592 14.0048 6.46002 13.8434C6.39062 13.8043 6.25193 13.7871 6.29357 13.685C6.33882 13.574 6.44995 13.4869 6.59305 13.4909C6.65032 13.4925 6.70741 13.5268 6.76331 13.5491C9.0801 14.4704 11.4186 14.543 13.7794 13.7125C13.9568 13.6501 14.1289 13.5736 14.3054 13.5087C14.4235 13.4654 14.6468 13.5547 14.6773 13.6654C14.7146 13.8009 14.5761 13.815 14.497 13.8566C14.2187 14.0032 13.9329 14.1369 13.6342 14.2414C13.4939 14.2906 13.4567 14.358 13.5358 14.4887C13.7254 14.8025 13.9197 15.1126 14.136 15.4107C14.2288 15.5385 14.3307 15.5645 14.4821 15.5176C15.7512 15.1238 16.9333 14.5642 18.028 13.8338C18.1437 13.7565 18.2062 13.6642 18.214 13.5315C18.2361 13.1571 18.2603 12.7828 18.2821 12.4347C18.2632 12.0718 18.2558 11.7351 18.2264 11.4002Z" fill="white"/>
</svg>
