<svg width="20" height="20" viewBox="0 0 20 20" fill="none" xmlns="http://www.w3.org/2000/svg">
<path d="M8.4268 10.5263C9.3896 11.082 9.87098 11.3598 10.3997 11.3603C10.9284 11.3608 11.4102 11.0838 12.374 10.5297L18.5176 6.99827C18.7949 6.83886 18.9659 6.54335 18.9659 6.22344C18.9659 5.90353 18.7949 5.60803 18.5176 5.44861L12.3718 1.91585C11.4091 1.36244 10.9277 1.08573 10.3995 1.08594C9.87135 1.08614 9.39021 1.36322 8.42791 1.91738L3.14461 4.95987C3.10545 4.98243 3.08588 4.99369 3.06762 5.00437C1.26289 6.06086 0.147872 7.98966 0.132963 10.0808C0.132812 10.102 0.132813 10.1245 0.132813 10.1697C0.132813 10.2149 0.132812 10.2374 0.132963 10.2585C0.147839 12.3474 1.26037 14.2744 3.06189 15.3317C3.08009 15.3424 3.09963 15.3537 3.13874 15.3762L6.44818 17.287C8.37658 18.4004 9.34077 18.9571 10.3996 18.9575C11.4585 18.9578 12.423 18.4018 14.3522 17.2897L17.8458 15.2757C18.8117 14.7189 19.2947 14.4405 19.5599 13.9814C19.8251 13.5224 19.8251 12.9649 19.8251 11.85V9.69606C19.8251 9.38673 19.6576 9.10169 19.3874 8.95116C19.1258 8.80553 18.8071 8.80769 18.5476 8.95686L11.384 13.0747C10.9034 13.351 10.6631 13.4891 10.3994 13.4892C10.1357 13.4893 9.89526 13.3513 9.41446 13.0753L4.56597 10.2922C4.32311 10.1528 4.20166 10.083 4.10412 10.0705C3.88175 10.0418 3.66794 10.1663 3.58323 10.3739C3.54609 10.465 3.54683 10.605 3.54834 10.885C3.54945 11.0912 3.55 11.1943 3.56926 11.2891C3.61243 11.5014 3.72412 11.6937 3.88723 11.8363C3.96006 11.9 4.04932 11.9516 4.22788 12.0546L9.41172 15.0465C9.89378 15.3247 10.1348 15.4638 10.3994 15.4639C10.6641 15.464 10.9052 15.325 11.3874 15.0471L17.7413 11.3845C17.906 11.2895 17.9883 11.2421 18.0501 11.2777C18.1118 11.3134 18.1118 11.4085 18.1118 11.5986V12.5755C18.1118 12.8543 18.1118 12.9937 18.0455 13.1084C17.9792 13.2232 17.8585 13.2928 17.617 13.432L12.3763 16.4529C11.4115 17.0091 10.9291 17.2871 10.3996 17.2869C9.87003 17.2867 9.38788 17.0081 8.4236 16.4511L3.52049 13.6188C3.50492 13.6098 3.49714 13.6053 3.48988 13.601C2.46182 13.0003 1.82747 11.9013 1.82152 10.7106C1.82148 10.7022 1.82148 10.6932 1.82148 10.6752V9.7784C1.82148 9.12107 2.17156 8.51353 2.74025 8.1839C3.24277 7.89261 3.86261 7.89203 4.36566 8.1824L8.4268 10.5263Z" fill="white"/>
</svg>
