<svg width="24" height="24" viewBox="0 0 24 24" fill="none" xmlns="http://www.w3.org/2000/svg">
<rect x="0.5" y="0.5" width="23" height="23" rx="7.5" stroke="#EBEBEB"/>
<path d="M12 18C11.8111 18 11.6528 17.9361 11.525 17.8083C11.3972 17.6806 11.3333 17.5222 11.3333 17.3333V14.6667C11.3333 14.4778 11.3972 14.3194 11.525 14.1917C11.6528 14.0639 11.8111 14 12 14C12.1889 14 12.3472 14.0639 12.475 14.1917C12.6028 14.3194 12.6667 14.4778 12.6667 14.6667V15.3333H17.3333C17.5222 15.3333 17.6806 15.3972 17.8083 15.525C17.9361 15.6528 18 15.8111 18 16C18 16.1889 17.9361 16.3472 17.8083 16.475C17.6806 16.6028 17.5222 16.6667 17.3333 16.6667H12.6667V17.3333C12.6667 17.5222 12.6028 17.6806 12.475 17.8083C12.3472 17.9361 12.1889 18 12 18ZM6.66667 16.6667C6.47778 16.6667 6.31944 16.6028 6.19167 16.475C6.06389 16.3472 6 16.1889 6 16C6 15.8111 6.06389 15.6528 6.19167 15.525C6.31944 15.3972 6.47778 15.3333 6.66667 15.3333H9.33333C9.52222 15.3333 9.68056 15.3972 9.80833 15.525C9.93611 15.6528 10 15.8111 10 16C10 16.1889 9.93611 16.3472 9.80833 16.475C9.68056 16.6028 9.52222 16.6667 9.33333 16.6667H6.66667ZM9.33333 14C9.14444 14 8.98611 13.9361 8.85833 13.8083C8.73056 13.6806 8.66667 13.5222 8.66667 13.3333V12.6667H6.66667C6.47778 12.6667 6.31944 12.6028 6.19167 12.475C6.06389 12.3472 6 12.1889 6 12C6 11.8111 6.06389 11.6528 6.19167 11.525C6.31944 11.3972 6.47778 11.3333 6.66667 11.3333H8.66667V10.6667C8.66667 10.4778 8.73056 10.3194 8.85833 10.1917C8.98611 10.0639 9.14444 10 9.33333 10C9.52222 10 9.68056 10.0639 9.80833 10.1917C9.93611 10.3194 10 10.4778 10 10.6667V13.3333C10 13.5222 9.93611 13.6806 9.80833 13.8083C9.68056 13.9361 9.52222 14 9.33333 14ZM12 12.6667C11.8111 12.6667 11.6528 12.6028 11.525 12.475C11.3972 12.3472 11.3333 12.1889 11.3333 12C11.3333 11.8111 11.3972 11.6528 11.525 11.525C11.6528 11.3972 11.8111 11.3333 12 11.3333H17.3333C17.5222 11.3333 17.6806 11.3972 17.8083 11.525C17.9361 11.6528 18 11.8111 18 12C18 12.1889 17.9361 12.3472 17.8083 12.475C17.6806 12.6028 17.5222 12.6667 17.3333 12.6667H12ZM14.6667 10C14.4778 10 14.3194 9.93611 14.1917 9.80833C14.0639 9.68056 14 9.52222 14 9.33333V6.66667C14 6.47778 14.0639 6.31944 14.1917 6.19167C14.3194 6.06389 14.4778 6 14.6667 6C14.8556 6 15.0139 6.06389 15.1417 6.19167C15.2694 6.31944 15.3333 6.47778 15.3333 6.66667V7.33333H17.3333C17.5222 7.33333 17.6806 7.39722 17.8083 7.525C17.9361 7.65278 18 7.81111 18 8C18 8.18889 17.9361 8.34722 17.8083 8.475C17.6806 8.60278 17.5222 8.66667 17.3333 8.66667H15.3333V9.33333C15.3333 9.52222 15.2694 9.68056 15.1417 9.80833C15.0139 9.93611 14.8556 10 14.6667 10ZM6.66667 8.66667C6.47778 8.66667 6.31944 8.60278 6.19167 8.475C6.06389 8.34722 6 8.18889 6 8C6 7.81111 6.06389 7.65278 6.19167 7.525C6.31944 7.39722 6.47778 7.33333 6.66667 7.33333H12C12.1889 7.33333 12.3472 7.39722 12.475 7.525C12.6028 7.65278 12.6667 7.81111 12.6667 8C12.6667 8.18889 12.6028 8.34722 12.475 8.475C12.3472 8.60278 12.1889 8.66667 12 8.66667H6.66667Z" fill="#151027"/>
</svg>
