<svg width="24" height="24" viewBox="0 0 24 24" fill="none" xmlns="http://www.w3.org/2000/svg">
<g clip-path="url(#clip0_4756_15744)">
<circle cx="12" cy="12" r="12" fill="#E0E0E3"/>
<path d="M11.7007 12.9674C11.0154 15.3929 12.1513 17.796 12.2708 18.7739Z" fill="#EBEBEB"/>
<path d="M11.7007 12.9674C11.0154 15.3929 12.1513 17.796 12.2708 18.7739" stroke="#B5B3BE" stroke-width="1.5" stroke-linecap="round" stroke-linejoin="round"/>
<path d="M11.6991 13.1186C11.8505 11.9249 12.3761 9.70022 13.0747 8.69929C13.7733 7.69836 14.7935 6.87021 16.0337 6.42805C17.2738 5.98589 18.7396 5.9504 20.032 6.4202C20.1809 6.47462 20.3322 6.53686 20.4462 6.6415C20.6026 6.78349 20.6658 6.97997 20.7244 7.16798C20.8336 7.51907 20.9433 7.88455 20.8694 8.23288C20.811 8.51223 20.6376 8.7554 20.4468 8.97686C20.0259 9.46874 19.5101 9.8877 18.9965 10.3037C18.2554 10.9043 17.5565 11.3774 16.6588 11.7885C15.8723 12.1481 14.9458 12.4796 14.1101 12.7524C13.2246 13.0413 12.5633 13.2977 11.6646 13.1429C10.6327 12.9654 9.56939 12.9792 8.61231 12.8617C6.88556 12.6509 5.05283 12.3972 3.77565 11.3507C3.64949 11.2473 3.5273 11.1343 3.45379 10.9929C3.19637 10.5045 3.61455 9.91699 4.1037 9.58036C5.42719 8.67288 7.34233 8.73499 8.71511 9.49644C10.0879 10.2579 10.8685 11.4158 11.4474 12.9296" fill="#EBEBEB"/>
<path d="M11.6991 13.1186C11.8505 11.9249 12.3761 9.70022 13.0747 8.69929C13.7733 7.69836 14.7935 6.87021 16.0337 6.42805C17.2738 5.98589 18.7396 5.9504 20.032 6.4202C20.1809 6.47462 20.3322 6.53686 20.4462 6.6415C20.6026 6.78349 20.6658 6.97997 20.7244 7.16798C20.8336 7.51907 20.9433 7.88455 20.8694 8.23288C20.811 8.51223 20.6376 8.7554 20.4468 8.97686C20.0259 9.46874 19.5101 9.8877 18.9965 10.3037C18.2554 10.9043 17.5565 11.3774 16.6588 11.7885C15.8723 12.1481 14.9458 12.4796 14.1101 12.7524C13.2246 13.0413 12.5633 13.2977 11.6646 13.1429C10.6327 12.9654 9.56939 12.9792 8.61231 12.8617C6.88556 12.6509 5.05283 12.3972 3.77565 11.3507C3.64949 11.2473 3.5273 11.1343 3.45379 10.9929C3.19637 10.5045 3.61455 9.91699 4.1037 9.58036C5.42719 8.67288 7.34233 8.73499 8.71511 9.49644C10.0879 10.2579 10.8685 11.4158 11.4474 12.9296" stroke="#B5B3BE" stroke-width="1.5" stroke-linecap="round" stroke-linejoin="round"/>
</g>
<defs>
<clipPath id="clip0_4756_15744">
<rect width="24" height="24" fill="white"/>
</clipPath>
</defs>
</svg>
