<svg width="21" height="20" viewBox="0 0 21 20" fill="none" xmlns="http://www.w3.org/2000/svg">
<path d="M18.2743 4.91442C17.702 5.1824 17.0869 5.36287 16.4413 5.44422C17.1005 5.0279 17.6067 4.3682 17.8446 3.58204C17.2282 3.9676 16.545 4.24789 15.8178 4.39897C15.2364 3.74474 14.4062 3.33594 13.4884 3.33594C11.4279 3.33594 9.91384 5.36356 10.3792 7.46842C7.72764 7.32828 5.37616 5.98838 3.80181 3.95188C2.96569 5.46473 3.36819 7.44381 4.78894 8.446C4.26653 8.42823 3.77394 8.27715 3.34421 8.02489C3.30921 9.58423 4.36893 11.0431 5.90375 11.3678C5.45458 11.4963 4.96264 11.5264 4.46227 11.4252C4.86801 12.7624 6.04634 13.7352 7.44375 13.7625C6.10208 14.872 4.41171 15.3677 2.71875 15.1571C4.13106 16.1121 5.80912 16.6693 7.61097 16.6693C13.5363 16.6693 16.884 11.391 16.6818 6.65697C17.3053 6.18185 17.8465 5.58915 18.2743 4.91442Z" fill="white"/>
</svg>
