<svg width="24" height="24" viewBox="0 0 24 24" fill="none" xmlns="http://www.w3.org/2000/svg">
<path d="M10 4C5.589 4 2 7.589 2 12C2 16.411 5.589 20 10 20C14.411 20 18 16.411 18 12C18 7.589 14.411 4 10 4ZM14 4C13.661 4 13.328 4.02736 13 4.06836C16.945 4.56136 20 7.921 20 12C20 16.079 16.945 19.4386 13 19.9316C13.328 19.9726 13.661 20 14 20C18.418 20 22 16.418 22 12C22 7.582 18.418 4 14 4ZM9.71289 6.01367V7.02734C9.37389 7.07034 7.47656 7.42875 7.47656 9.71875C7.47656 13.0597 10.9355 12.0698 10.9355 14.2988C10.9355 15.4148 10.2134 15.4414 10.0664 15.4414C9.93241 15.4414 9.05273 15.5127 9.05273 13.8047H7.16211C7.16211 16.6967 9.26027 16.9277 9.57227 16.9707V17.9785C6.4628 17.7579 4 15.1648 4 12C4 8.7878 6.53752 6.16479 9.71289 6.01367ZM10.7207 6.04883C13.6905 6.40635 16 8.93528 16 12C16 15.1154 13.6148 17.6809 10.5742 17.9707V16.9707C10.9122 16.9287 12.8242 16.6132 12.8242 14.2852C12.8242 11.0802 9.36623 11.6936 9.36523 9.72656C9.36523 8.59956 9.98514 8.56445 10.1191 8.56445C10.3641 8.56445 10.9473 8.7813 10.9473 10.1543H12.8379C12.8379 7.5273 11.0417 7.11764 10.7207 7.05664V6.04883Z" fill="#00D77C"/>
</svg>
