<svg width="56" height="56" viewBox="0 0 56 56" fill="none" xmlns="http://www.w3.org/2000/svg">
<path d="M34.2625 2.87549C48.1392 6.33447 56.5839 20.3896 53.1243 34.2655L53.1242 34.2654C49.6649 48.1401 35.6106 56.5842 21.7317 53.1241C7.85996 49.6651 -0.58457 35.6112 2.87617 21.738L2.8763 21.7375C6.33422 7.86117 20.3886 -0.58353 34.2624 2.87546L34.2625 2.87549Z" fill="#F7931A" stroke="#A46112" stroke-width="4.2"/>
<path d="M40.3442 24.0116C40.9017 20.2855 38.0646 18.2825 34.1846 16.9462L35.4432 11.899L32.3701 11.1331L31.1447 16.0476C30.3368 15.8459 29.5071 15.6562 28.6825 15.4679L29.9168 10.5207L26.8458 9.75488L25.5867 14.8006C24.9182 14.6482 24.2617 14.4978 23.6244 14.3396L23.628 14.3236L19.3902 13.2653L18.573 16.547C18.573 16.547 20.8526 17.0697 20.8049 17.1018C22.0495 17.4124 22.274 18.2358 22.2367 18.8886L20.8028 24.639C20.8884 24.6608 20.9999 24.6924 21.1223 24.7417C21.0196 24.7163 20.9107 24.6883 20.7976 24.6613L18.7882 32.7165C18.6362 33.0945 18.2499 33.6618 17.3802 33.4466C17.4108 33.4912 15.1467 32.8892 15.1467 32.8892L13.6211 36.4063L17.6198 37.4029C18.364 37.5896 19.0926 37.7846 19.8108 37.9681L18.5392 43.0735L21.6087 43.8393L22.8678 38.7884C23.7063 39.016 24.52 39.226 25.3165 39.4241L24.0615 44.4517L27.1346 45.2176L28.4061 40.1215C33.6458 41.1129 37.5859 40.7132 39.2443 35.9744C40.5807 32.1591 39.178 29.958 36.4212 28.5233C38.4291 28.0602 39.9413 26.7401 40.3448 24.0121H40.3437L40.3442 24.0116ZM33.3233 33.8557C32.3738 37.671 25.9491 35.6088 23.866 35.0914L25.5535 28.3278C27.6361 28.8479 34.3158 29.8766 33.3233 33.8557ZM34.2738 23.9566C33.4073 27.4271 28.0603 25.6641 26.3256 25.2317L27.8554 19.0976C29.5901 19.53 35.1761 20.3369 34.2743 23.9566H34.2738Z" fill="white"/>
</svg>
