<svg width="335" height="212" viewBox="0 0 335 212" fill="none" xmlns="http://www.w3.org/2000/svg">
<path d="M210.869 38.88C212.619 39.89 212.619 41.52 210.889 42.53L170.059 66.26C168.319 67.27 165.509 67.27 163.759 66.26L122.659 42.53C120.909 41.52 120.899 39.89 122.639 38.88L163.469 15.15C165.199 14.14 168.029 14.14 169.769 15.15L210.869 38.88Z" fill="#C5A466" stroke="black" stroke-width="3" stroke-linecap="round" stroke-linejoin="round"/>
<path d="M212.17 40.84C212.17 40.84 212.17 40.93 212.15 40.98C212.15 41.02 212.13 41.06 212.12 41.09C212.11 41.13 212.1 41.18 212.08 41.22C212.07 41.26 212.05 41.29 212.03 41.33C212.01 41.38 211.99 41.42 211.97 41.47C211.95 41.5 211.93 41.54 211.91 41.57C211.88 41.62 211.84 41.67 211.81 41.73C211.79 41.76 211.76 41.79 211.74 41.82C211.68 41.89 211.62 41.96 211.55 42.02C211.53 42.04 211.5 42.07 211.48 42.09C211.44 42.13 211.39 42.17 211.34 42.2C211.3 42.23 211.26 42.27 211.22 42.3C211.17 42.34 211.11 42.37 211.06 42.41C211 42.45 210.95 42.48 210.89 42.52L170.06 66.25C169.93 66.33 169.78 66.4 169.64 66.46C169.6 66.48 169.56 66.5 169.51 66.51C169.4 66.56 169.28 66.6 169.16 66.64C169.12 66.65 169.08 66.67 169.03 66.68C168.95 66.7 168.88 66.72 168.8 66.75C168.74 66.77 168.68 66.78 168.63 66.8C168.55 66.82 168.47 66.84 168.38 66.85C168.32 66.86 168.27 66.87 168.21 66.88C168.04 66.91 167.87 66.93 167.7 66.95C167.65 66.95 167.59 66.95 167.54 66.96C167.44 66.96 167.34 66.98 167.24 66.98C167.18 66.98 167.11 66.98 167.05 66.98C166.97 66.98 166.89 66.98 166.81 66.98C166.74 66.98 166.67 66.98 166.61 66.98C166.53 66.98 166.46 66.98 166.38 66.97C166.31 66.97 166.24 66.96 166.17 66.95C166.1 66.95 166.02 66.93 165.95 66.93C165.88 66.93 165.82 66.91 165.75 66.9C165.67 66.89 165.59 66.87 165.51 66.86C165.45 66.85 165.39 66.84 165.32 66.82C165.23 66.8 165.14 66.78 165.04 66.75C164.99 66.74 164.94 66.72 164.89 66.71C164.73 66.66 164.57 66.61 164.41 66.55C164.33 66.52 164.26 66.49 164.18 66.45C164.14 66.43 164.1 66.42 164.07 66.4C163.96 66.35 163.85 66.29 163.74 66.23L122.64 42.5C121.76 41.99 121.32 41.33 121.32 40.66L121.23 71.97C121.23 72.64 121.67 73.3 122.55 73.81L163.65 97.54C163.76 97.6 163.86 97.66 163.98 97.71C164.02 97.73 164.06 97.74 164.1 97.76C164.17 97.79 164.23 97.82 164.3 97.85H164.32C164.47 97.91 164.63 97.96 164.8 98.01C164.81 98.01 164.83 98.01 164.84 98.02C164.88 98.03 164.92 98.04 164.95 98.05C165.04 98.07 165.13 98.1 165.23 98.12C165.26 98.12 165.28 98.13 165.3 98.14C165.34 98.14 165.37 98.15 165.41 98.16C165.49 98.17 165.57 98.19 165.65 98.2C165.68 98.2 165.71 98.21 165.74 98.22C165.77 98.22 165.81 98.22 165.84 98.23C165.91 98.23 165.99 98.25 166.06 98.25C166.1 98.25 166.13 98.25 166.17 98.26C166.2 98.26 166.24 98.26 166.27 98.26C166.34 98.26 166.42 98.26 166.49 98.27C166.53 98.27 166.57 98.27 166.6 98.27C166.63 98.27 166.66 98.27 166.69 98.27C166.77 98.27 166.85 98.27 166.93 98.27C166.97 98.27 167.01 98.27 167.05 98.27C167.07 98.27 167.1 98.27 167.12 98.27C167.22 98.27 167.32 98.26 167.42 98.25C167.46 98.25 167.5 98.25 167.54 98.25C167.55 98.25 167.56 98.25 167.58 98.25C167.75 98.23 167.92 98.21 168.09 98.18H168.11C168.16 98.18 168.21 98.16 168.25 98.15C168.33 98.13 168.42 98.12 168.5 98.1C168.56 98.09 168.62 98.07 168.67 98.05C168.75 98.03 168.82 98.01 168.9 97.98C168.92 97.98 168.93 97.98 168.95 97.97C168.98 97.97 169 97.95 169.03 97.94C169.15 97.9 169.27 97.85 169.38 97.81C169.42 97.79 169.47 97.77 169.51 97.76C169.66 97.69 169.8 97.62 169.93 97.55L210.76 73.82C210.76 73.82 210.8 73.8 210.81 73.79C210.85 73.77 210.89 73.74 210.92 73.71C210.97 73.67 211.03 73.64 211.08 73.6C211.12 73.57 211.16 73.53 211.2 73.5C211.25 73.46 211.29 73.43 211.34 73.39C211.34 73.39 211.36 73.38 211.37 73.37C211.39 73.35 211.4 73.34 211.42 73.32C211.49 73.25 211.55 73.19 211.61 73.12C211.62 73.1 211.64 73.09 211.65 73.08C211.66 73.07 211.67 73.05 211.68 73.03C211.72 72.98 211.75 72.93 211.78 72.87C211.79 72.85 211.81 72.83 211.82 72.8C211.82 72.79 211.82 72.78 211.84 72.77C211.86 72.72 211.88 72.68 211.9 72.63C211.91 72.6 211.93 72.58 211.94 72.55C211.94 72.55 211.94 72.53 211.94 72.52C211.96 72.48 211.97 72.43 211.98 72.39C211.98 72.36 212 72.33 212.01 72.3V72.28C212.01 72.23 212.02 72.19 212.03 72.14C212.03 72.11 212.03 72.08 212.04 72.05C212.04 72.04 212.04 72.02 212.04 72.01L212.13 40.7C212.13 40.7 212.13 40.79 212.12 40.83L212.17 40.84Z" fill="#F8F8F8" stroke="black" stroke-width="3" stroke-linecap="round" stroke-linejoin="round"/>
<path d="M166.762 67.01V98.32" stroke="black" stroke-width="3" stroke-linecap="round" stroke-linejoin="round"/>
<path d="M305.708 93.63C307.458 94.64 307.458 96.27 305.728 97.28L264.898 121.01C263.158 122.02 260.338 122.02 258.598 121.01L217.498 97.28C215.748 96.27 215.738 94.64 217.478 93.63L258.308 69.9C260.038 68.89 262.868 68.89 264.608 69.9L305.708 93.63Z" fill="#C5A466" stroke="black" stroke-width="3" stroke-linecap="round" stroke-linejoin="round"/>
<path d="M307.018 95.6C307.018 95.6 307.018 95.69 306.998 95.74C306.998 95.78 306.978 95.82 306.968 95.85C306.958 95.89 306.948 95.94 306.928 95.98C306.918 96.02 306.898 96.05 306.878 96.09C306.858 96.14 306.838 96.18 306.808 96.23C306.788 96.26 306.768 96.3 306.748 96.33C306.718 96.38 306.678 96.43 306.648 96.49C306.628 96.52 306.598 96.55 306.578 96.58C306.518 96.65 306.458 96.72 306.388 96.78C306.368 96.8 306.338 96.83 306.318 96.85C306.278 96.89 306.228 96.93 306.178 96.96C306.138 96.99 306.098 97.03 306.058 97.06C306.008 97.1 305.948 97.13 305.898 97.17C305.838 97.21 305.788 97.24 305.728 97.28L264.898 121.01C264.768 121.09 264.618 121.16 264.478 121.22C264.438 121.24 264.398 121.26 264.348 121.27C264.238 121.32 264.118 121.36 263.998 121.4C263.958 121.41 263.918 121.43 263.868 121.44C263.788 121.46 263.718 121.48 263.638 121.51C263.578 121.53 263.518 121.54 263.468 121.56C263.388 121.58 263.308 121.6 263.218 121.61C263.158 121.62 263.108 121.63 263.048 121.64C262.878 121.67 262.708 121.69 262.538 121.71C262.488 121.71 262.428 121.71 262.378 121.72C262.278 121.72 262.178 121.74 262.078 121.74C262.018 121.74 261.948 121.74 261.888 121.74C261.808 121.74 261.728 121.74 261.648 121.74C261.578 121.74 261.508 121.74 261.448 121.74C261.368 121.74 261.298 121.74 261.218 121.73C261.148 121.73 261.078 121.72 261.008 121.71C260.938 121.71 260.858 121.69 260.788 121.69C260.718 121.69 260.658 121.67 260.588 121.66C260.508 121.65 260.428 121.63 260.348 121.62C260.288 121.61 260.228 121.6 260.168 121.58C260.078 121.56 259.978 121.54 259.888 121.51C259.838 121.5 259.788 121.48 259.738 121.47C259.578 121.42 259.418 121.37 259.258 121.31C259.178 121.28 259.108 121.25 259.038 121.22C258.998 121.2 258.958 121.19 258.918 121.17C258.808 121.12 258.698 121.06 258.588 121L217.488 97.27C216.608 96.76 216.168 96.1 216.168 95.43L216.078 126.74C216.078 127.41 216.518 128.07 217.398 128.58L258.498 152.31C258.608 152.37 258.708 152.43 258.828 152.48C258.868 152.5 258.908 152.51 258.938 152.53C259.008 152.56 259.068 152.59 259.138 152.62H259.158C259.308 152.68 259.468 152.73 259.638 152.78C259.648 152.78 259.668 152.78 259.678 152.79C259.718 152.8 259.758 152.81 259.788 152.82C259.878 152.84 259.968 152.87 260.068 152.89C260.088 152.89 260.118 152.9 260.138 152.91C260.178 152.91 260.208 152.92 260.248 152.93C260.328 152.94 260.408 152.96 260.488 152.97C260.518 152.97 260.548 152.98 260.578 152.99C260.608 152.99 260.648 152.99 260.678 153C260.748 153 260.828 153.02 260.898 153.02C260.938 153.02 260.968 153.02 261.008 153.03C261.038 153.03 261.078 153.03 261.108 153.03C261.188 153.03 261.258 153.03 261.338 153.04C261.378 153.04 261.418 153.04 261.448 153.04C261.478 153.04 261.508 153.04 261.538 153.04C261.618 153.04 261.698 153.04 261.778 153.04C261.818 153.04 261.858 153.04 261.898 153.04C261.918 153.04 261.948 153.04 261.968 153.04C262.068 153.04 262.168 153.03 262.268 153.02C262.308 153.02 262.348 153.02 262.388 153.02C262.398 153.02 262.418 153.02 262.428 153.02C262.598 153 262.768 152.98 262.938 152.95H262.958C263.008 152.95 263.058 152.93 263.098 152.92C263.178 152.9 263.268 152.89 263.348 152.87C263.408 152.86 263.468 152.84 263.518 152.82C263.598 152.8 263.668 152.78 263.748 152.75C263.768 152.75 263.778 152.75 263.798 152.74C263.828 152.74 263.848 152.72 263.878 152.71C263.998 152.67 264.118 152.62 264.228 152.58C264.268 152.56 264.318 152.54 264.358 152.53C264.508 152.46 264.648 152.39 264.778 152.32L305.608 128.59C305.608 128.59 305.648 128.57 305.658 128.56C305.698 128.54 305.738 128.51 305.768 128.48C305.818 128.44 305.878 128.41 305.928 128.37C305.968 128.34 306.008 128.3 306.048 128.27C306.098 128.23 306.138 128.2 306.188 128.16C306.188 128.16 306.208 128.15 306.218 128.14C306.238 128.12 306.248 128.11 306.268 128.09C306.338 128.02 306.398 127.96 306.458 127.89C306.468 127.87 306.488 127.86 306.498 127.85C306.508 127.84 306.518 127.82 306.528 127.8C306.568 127.75 306.598 127.7 306.628 127.64C306.638 127.62 306.658 127.6 306.668 127.57C306.668 127.56 306.668 127.55 306.688 127.54C306.708 127.49 306.728 127.45 306.758 127.4C306.768 127.37 306.788 127.35 306.798 127.32C306.798 127.32 306.798 127.3 306.798 127.29C306.818 127.25 306.828 127.2 306.838 127.16C306.838 127.13 306.858 127.1 306.868 127.07V127.05C306.868 127 306.878 126.96 306.888 126.91C306.888 126.88 306.888 126.85 306.898 126.82C306.898 126.81 306.898 126.79 306.898 126.78L306.988 95.47C306.988 95.47 306.988 95.56 306.978 95.6H307.018Z" fill="#F8F8F8" stroke="black" stroke-width="3" stroke-linecap="round" stroke-linejoin="round"/>
<path d="M116.642 93.63C118.392 94.64 118.402 96.27 116.662 97.28L75.8321 121.01C74.0921 122.02 71.2821 122.02 69.5321 121.01L28.4321 97.28C26.6821 96.27 26.6721 94.64 28.4121 93.63L69.2421 69.9C70.9821 68.89 73.8021 68.89 75.5421 69.9L116.642 93.63Z" fill="#C5A466" stroke="black" stroke-width="3" stroke-linecap="round" stroke-linejoin="round"/>
<path d="M117.963 95.47L117.873 126.78V126.82C117.873 126.82 117.873 126.88 117.873 126.91C117.873 126.96 117.873 127.01 117.853 127.05C117.853 127.05 117.853 127.06 117.853 127.07C117.853 127.1 117.833 127.13 117.833 127.16C117.823 127.2 117.813 127.25 117.793 127.29C117.793 127.29 117.793 127.31 117.793 127.32C117.783 127.35 117.763 127.37 117.753 127.4C117.733 127.45 117.713 127.49 117.683 127.54C117.683 127.54 117.683 127.56 117.673 127.57C117.663 127.59 117.643 127.61 117.633 127.64C117.603 127.69 117.563 127.74 117.533 127.8C117.523 127.81 117.513 127.83 117.503 127.85C117.493 127.86 117.473 127.88 117.463 127.89C117.403 127.96 117.343 128.03 117.273 128.09C117.253 128.11 117.243 128.12 117.223 128.14L117.193 128.16C117.193 128.16 117.103 128.24 117.053 128.27C117.013 128.3 116.973 128.34 116.933 128.37C116.883 128.41 116.823 128.44 116.773 128.48C116.733 128.51 116.703 128.53 116.663 128.56C116.643 128.56 116.623 128.58 116.603 128.59L75.7728 152.32C75.6428 152.4 75.4928 152.47 75.3528 152.53C75.3128 152.55 75.2628 152.57 75.2228 152.58C75.1128 152.63 74.9928 152.67 74.8728 152.71C74.8428 152.71 74.8228 152.73 74.7928 152.74C74.7828 152.74 74.7628 152.74 74.7428 152.75C74.6728 152.77 74.5928 152.8 74.5128 152.82C74.4528 152.84 74.4028 152.85 74.3328 152.87C74.2528 152.89 74.1728 152.91 74.0828 152.92C74.0328 152.92 73.9928 152.94 73.9428 152.95C73.9428 152.95 73.9328 152.95 73.9228 152.95C73.7528 152.98 73.5828 153 73.4128 153.02C73.4028 153.02 73.3928 153.02 73.3728 153.02C73.3328 153.02 73.2928 153.02 73.2528 153.02C73.1528 153.02 73.0528 153.03 72.9528 153.04C72.9328 153.04 72.9028 153.04 72.8828 153.04V121.73C72.9328 121.73 72.9928 121.73 73.0528 121.73C73.1528 121.73 73.2528 121.72 73.3528 121.71C73.4028 121.71 73.4628 121.71 73.5128 121.7C73.6828 121.68 73.8528 121.66 74.0228 121.63C74.0828 121.63 74.1328 121.61 74.1928 121.6C74.2728 121.58 74.3628 121.57 74.4428 121.55C74.5028 121.54 74.5628 121.52 74.6128 121.5C74.6928 121.48 74.7728 121.46 74.8428 121.43C74.8828 121.42 74.9328 121.4 74.9728 121.39C75.0928 121.35 75.2128 121.3 75.3228 121.26C75.3628 121.24 75.4128 121.22 75.4528 121.21C75.5928 121.14 75.7428 121.07 75.8728 121L116.703 97.27C116.763 97.23 116.813 97.2 116.873 97.16C116.933 97.13 116.983 97.09 117.033 97.05C117.073 97.02 117.123 96.98 117.163 96.95C117.213 96.91 117.253 96.87 117.303 96.84C117.333 96.82 117.353 96.79 117.373 96.77C117.443 96.7 117.503 96.64 117.563 96.57C117.583 96.54 117.613 96.51 117.633 96.48C117.673 96.43 117.703 96.38 117.733 96.32C117.753 96.29 117.773 96.26 117.793 96.22C117.813 96.17 117.833 96.13 117.853 96.08C117.873 96.04 117.883 96.01 117.903 95.97C117.923 95.93 117.933 95.88 117.943 95.84C117.943 95.8 117.963 95.76 117.973 95.73C117.973 95.68 117.973 95.64 117.983 95.59C117.983 95.55 117.993 95.5 117.993 95.46L117.963 95.47Z" fill="#D0CEBC" stroke="black" stroke-width="3" stroke-linecap="round" stroke-linejoin="round"/>
<path d="M72.8512 121.77V153.08C72.8512 153.08 72.7712 153.08 72.7412 153.08C72.6612 153.08 72.5813 153.08 72.5013 153.08C72.4713 153.08 72.4413 153.08 72.4113 153.08C72.3713 153.08 72.3313 153.08 72.3013 153.08C72.2213 153.08 72.1513 153.08 72.0713 153.07C72.0413 153.07 72.0013 153.07 71.9713 153.07C71.9413 153.07 71.9013 153.07 71.8713 153.06C71.7913 153.06 71.7213 153.05 71.6513 153.04C71.6113 153.04 71.5813 153.04 71.5513 153.03C71.5213 153.03 71.4912 153.03 71.4512 153.02C71.3712 153.01 71.2913 152.99 71.2113 152.98C71.1712 152.98 71.1312 152.97 71.1012 152.96C71.0713 152.96 71.0512 152.95 71.0212 152.94C70.9312 152.92 70.8312 152.9 70.7412 152.87C70.7012 152.86 70.6612 152.85 70.6312 152.84C70.6213 152.84 70.6012 152.84 70.5912 152.83C70.4312 152.78 70.2713 152.73 70.1113 152.67C70.1113 152.67 70.1012 152.67 70.0912 152.67C70.0212 152.64 69.9513 152.61 69.8913 152.58C69.8512 152.56 69.8112 152.55 69.7812 152.53C69.6712 152.48 69.5612 152.42 69.4512 152.36L28.3512 128.63C27.4712 128.12 27.0312 127.46 27.0312 126.79L27.1213 95.48C27.1213 96.15 27.5612 96.81 28.4412 97.32L69.5413 121.05C69.6413 121.11 69.7513 121.17 69.8713 121.22C69.9113 121.24 69.9512 121.25 69.9912 121.27C70.0612 121.3 70.1413 121.34 70.2113 121.37C70.3613 121.43 70.5213 121.48 70.6913 121.53C70.7413 121.54 70.7912 121.56 70.8412 121.57C70.9312 121.59 71.0213 121.62 71.1213 121.64C71.1813 121.65 71.2413 121.67 71.3013 121.68C71.3813 121.69 71.4613 121.71 71.5413 121.72C71.6113 121.72 71.6712 121.74 71.7412 121.75C71.8112 121.75 71.8913 121.77 71.9613 121.77C72.0312 121.77 72.1012 121.78 72.1712 121.79C72.2412 121.79 72.3213 121.79 72.3913 121.8C72.4613 121.8 72.5312 121.8 72.5912 121.8C72.6712 121.8 72.7513 121.8 72.8313 121.8H72.8613L72.8512 121.77Z" fill="#F8F8F8" stroke="black" stroke-width="3" stroke-linecap="round" stroke-linejoin="round"/>
<path d="M212.501 95.62C212.501 95.62 212.501 95.71 212.481 95.76C212.481 95.8 212.461 95.84 212.451 95.87C212.441 95.91 212.431 95.96 212.411 96C212.401 96.04 212.381 96.07 212.361 96.11C212.341 96.16 212.321 96.2 212.291 96.25C212.271 96.28 212.251 96.32 212.231 96.35C212.201 96.4 212.161 96.45 212.131 96.51C212.111 96.54 212.081 96.57 212.061 96.6C212.001 96.67 211.941 96.74 211.871 96.8C211.851 96.82 211.821 96.85 211.801 96.87C211.761 96.91 211.711 96.95 211.661 96.98C211.621 97.01 211.581 97.05 211.541 97.08C211.491 97.12 211.431 97.15 211.381 97.19C211.321 97.23 211.271 97.26 211.211 97.3L170.381 121.03C170.251 121.11 170.101 121.18 169.961 121.24C169.921 121.26 169.881 121.28 169.831 121.29C169.721 121.34 169.601 121.38 169.481 121.42C169.441 121.43 169.391 121.45 169.351 121.46C169.281 121.48 169.201 121.5 169.121 121.53C169.061 121.55 169.001 121.56 168.941 121.58C168.861 121.6 168.781 121.62 168.691 121.63C168.631 121.64 168.581 121.65 168.521 121.66C168.351 121.69 168.181 121.71 168.011 121.73C167.961 121.73 167.911 121.73 167.851 121.74C167.751 121.74 167.651 121.76 167.551 121.76C167.491 121.76 167.421 121.76 167.361 121.76C167.281 121.76 167.201 121.76 167.121 121.76C167.051 121.76 166.981 121.76 166.921 121.76C166.841 121.76 166.771 121.76 166.691 121.75C166.621 121.75 166.551 121.74 166.481 121.73C166.411 121.73 166.331 121.71 166.261 121.71C166.191 121.71 166.131 121.69 166.061 121.68C165.981 121.67 165.901 121.65 165.821 121.64C165.761 121.63 165.701 121.62 165.641 121.6C165.551 121.58 165.451 121.56 165.361 121.53C165.311 121.52 165.261 121.5 165.211 121.49C165.051 121.44 164.891 121.39 164.731 121.33C164.651 121.3 164.581 121.27 164.511 121.23C164.471 121.21 164.431 121.2 164.391 121.18C164.281 121.13 164.171 121.07 164.061 121.01L122.961 97.28C122.081 96.77 121.641 96.11 121.641 95.44L121.551 126.75C121.551 127.42 121.991 128.08 122.871 128.59L163.971 152.32C164.081 152.38 164.181 152.44 164.301 152.49C164.341 152.51 164.381 152.52 164.421 152.54C164.491 152.57 164.551 152.6 164.621 152.63H164.641C164.791 152.69 164.951 152.74 165.121 152.79C165.131 152.79 165.151 152.79 165.161 152.8C165.201 152.81 165.241 152.82 165.271 152.83C165.361 152.85 165.451 152.88 165.551 152.9C165.581 152.9 165.601 152.91 165.621 152.92C165.661 152.92 165.691 152.93 165.731 152.94C165.811 152.95 165.891 152.97 165.971 152.98C166.001 152.98 166.031 152.99 166.071 153C166.101 153 166.141 153 166.171 153.01C166.241 153.01 166.321 153.03 166.391 153.03C166.431 153.03 166.461 153.03 166.501 153.04C166.531 153.04 166.571 153.04 166.601 153.04C166.681 153.04 166.751 153.04 166.831 153.05C166.871 153.05 166.911 153.05 166.941 153.05C166.971 153.05 167.001 153.05 167.031 153.05C167.111 153.05 167.191 153.05 167.271 153.05C167.311 153.05 167.351 153.05 167.391 153.05C167.411 153.05 167.441 153.05 167.461 153.05C167.561 153.05 167.661 153.04 167.761 153.03C167.801 153.03 167.841 153.03 167.881 153.03C167.891 153.03 167.901 153.03 167.921 153.03C168.091 153.01 168.261 152.99 168.431 152.96H168.451C168.501 152.96 168.551 152.94 168.591 152.93C168.671 152.91 168.751 152.9 168.831 152.88C168.891 152.87 168.951 152.85 169.011 152.83C169.091 152.81 169.161 152.79 169.241 152.76C169.261 152.76 169.271 152.76 169.291 152.75C169.321 152.75 169.341 152.73 169.371 152.72C169.491 152.68 169.611 152.64 169.721 152.59C169.761 152.57 169.811 152.55 169.851 152.54C170.001 152.47 170.141 152.4 170.271 152.33L211.101 128.6C211.101 128.6 211.141 128.58 211.151 128.57C211.191 128.55 211.231 128.52 211.271 128.49C211.321 128.45 211.381 128.42 211.431 128.38C211.471 128.35 211.511 128.31 211.561 128.28C211.611 128.24 211.651 128.21 211.701 128.17C211.701 128.17 211.721 128.15 211.731 128.15C211.751 128.13 211.761 128.12 211.781 128.1C211.851 128.03 211.911 127.97 211.971 127.9C211.981 127.88 212.001 127.87 212.011 127.86C212.021 127.85 212.031 127.83 212.041 127.81C212.081 127.76 212.111 127.71 212.141 127.65C212.151 127.63 212.171 127.61 212.181 127.58C212.181 127.57 212.181 127.56 212.201 127.55C212.221 127.5 212.241 127.46 212.271 127.41C212.281 127.38 212.301 127.36 212.311 127.33C212.311 127.33 212.311 127.31 212.311 127.3C212.331 127.26 212.341 127.21 212.351 127.17C212.351 127.14 212.371 127.11 212.381 127.08V127.06C212.381 127.01 212.391 126.97 212.401 126.92C212.401 126.89 212.401 126.86 212.411 126.83C212.411 126.82 212.411 126.8 212.411 126.79L212.501 95.48C212.501 95.48 212.501 95.57 212.491 95.61L212.501 95.62Z" fill="#F8F8F8" stroke="black" stroke-width="3" stroke-linecap="round" stroke-linejoin="round"/>
<path d="M212.49 95.47L212.4 126.78V126.82C212.4 126.82 212.4 126.88 212.4 126.91C212.4 126.96 212.4 127.01 212.38 127.05C212.38 127.05 212.38 127.06 212.38 127.07C212.38 127.1 212.36 127.13 212.36 127.16C212.35 127.2 212.34 127.25 212.32 127.29C212.32 127.29 212.32 127.31 212.32 127.32C212.31 127.35 212.29 127.37 212.28 127.4C212.26 127.45 212.24 127.49 212.21 127.54C212.21 127.54 212.21 127.56 212.2 127.57C212.19 127.59 212.17 127.61 212.16 127.64C212.13 127.69 212.09 127.74 212.06 127.8C212.05 127.81 212.04 127.83 212.03 127.85C212.02 127.86 212 127.88 211.99 127.89C211.93 127.96 211.87 128.03 211.8 128.09C211.78 128.11 211.77 128.12 211.75 128.14L211.72 128.16C211.72 128.16 211.63 128.24 211.58 128.27C211.54 128.3 211.5 128.34 211.46 128.37C211.41 128.41 211.35 128.44 211.3 128.48C211.26 128.51 211.23 128.53 211.19 128.56C211.17 128.56 211.15 128.58 211.13 128.59L170.3 152.32C170.17 152.4 170.02 152.47 169.88 152.53C169.84 152.55 169.79 152.57 169.75 152.58C169.64 152.63 169.52 152.67 169.4 152.71C169.37 152.71 169.35 152.73 169.32 152.74C169.31 152.74 169.29 152.74 169.27 152.75C169.2 152.77 169.12 152.8 169.04 152.82C168.98 152.84 168.93 152.85 168.86 152.87C168.78 152.89 168.7 152.91 168.61 152.92C168.56 152.92 168.52 152.94 168.47 152.95C168.47 152.95 168.46 152.95 168.45 152.95C168.28 152.98 168.11 153 167.94 153.02C167.93 153.02 167.92 153.02 167.9 153.02C167.86 153.02 167.82 153.02 167.78 153.02C167.68 153.02 167.58 153.03 167.48 153.04C167.46 153.04 167.43 153.04 167.41 153.04V121.73C167.46 121.73 167.52 121.73 167.58 121.73C167.68 121.73 167.78 121.72 167.88 121.71C167.93 121.71 167.99 121.71 168.04 121.7C168.21 121.68 168.38 121.66 168.55 121.63C168.61 121.63 168.66 121.61 168.72 121.6C168.8 121.58 168.89 121.57 168.97 121.55C169.03 121.54 169.09 121.52 169.14 121.5C169.22 121.48 169.3 121.46 169.37 121.43C169.41 121.42 169.46 121.4 169.5 121.39C169.62 121.35 169.74 121.3 169.85 121.26C169.89 121.24 169.94 121.22 169.98 121.21C170.12 121.14 170.27 121.07 170.4 121L211.23 97.27C211.29 97.23 211.34 97.2 211.4 97.16C211.46 97.13 211.51 97.09 211.56 97.05C211.6 97.02 211.65 96.98 211.69 96.95C211.74 96.91 211.78 96.87 211.83 96.84C211.86 96.82 211.88 96.79 211.9 96.77C211.97 96.7 212.03 96.64 212.09 96.57C212.11 96.54 212.14 96.51 212.16 96.48C212.2 96.43 212.23 96.38 212.26 96.32C212.28 96.29 212.3 96.26 212.32 96.22C212.34 96.17 212.36 96.13 212.38 96.08C212.4 96.04 212.41 96.01 212.43 95.97C212.45 95.93 212.46 95.88 212.47 95.84C212.47 95.8 212.49 95.76 212.5 95.73C212.5 95.68 212.5 95.64 212.51 95.59C212.51 95.55 212.52 95.5 212.52 95.46L212.49 95.47Z" fill="#D0CEBC" stroke="black" stroke-width="3" stroke-linecap="round" stroke-linejoin="round"/>
<path d="M212.49 40.45L212.4 71.76V71.8C212.4 71.8 212.4 71.86 212.4 71.89C212.4 71.94 212.4 71.99 212.38 72.03C212.38 72.03 212.38 72.04 212.38 72.05C212.38 72.08 212.36 72.11 212.36 72.14C212.35 72.18 212.34 72.23 212.32 72.27C212.32 72.27 212.32 72.29 212.32 72.3C212.31 72.33 212.29 72.35 212.28 72.38C212.26 72.43 212.24 72.47 212.21 72.52C212.21 72.52 212.21 72.54 212.2 72.55C212.19 72.57 212.17 72.59 212.16 72.62C212.13 72.67 212.09 72.72 212.06 72.78C212.05 72.79 212.04 72.81 212.03 72.83C212.02 72.84 212 72.86 211.99 72.87C211.93 72.94 211.87 73.01 211.8 73.07C211.78 73.09 211.77 73.1 211.75 73.12L211.72 73.14C211.72 73.14 211.63 73.22 211.58 73.25C211.54 73.28 211.5 73.32 211.46 73.35C211.41 73.39 211.35 73.42 211.3 73.46C211.26 73.49 211.23 73.51 211.19 73.54C211.17 73.54 211.15 73.56 211.13 73.57L170.3 97.3C170.17 97.38 170.02 97.45 169.88 97.51C169.84 97.53 169.79 97.55 169.75 97.56C169.64 97.61 169.52 97.65 169.4 97.69C169.37 97.69 169.35 97.71 169.32 97.72C169.31 97.72 169.29 97.72 169.27 97.73C169.2 97.75 169.12 97.78 169.04 97.8C168.98 97.82 168.93 97.83 168.86 97.85C168.78 97.87 168.7 97.89 168.61 97.9C168.56 97.9 168.52 97.92 168.47 97.93C168.47 97.93 168.46 97.93 168.45 97.93C168.28 97.96 168.11 97.98 167.94 98C167.93 98 167.92 98 167.9 98C167.86 98 167.82 98 167.78 98C167.68 98 167.58 98.01 167.48 98.02C167.46 98.02 167.43 98.02 167.41 98.02V66.71C167.46 66.71 167.52 66.71 167.58 66.71C167.68 66.71 167.78 66.7 167.88 66.69C167.93 66.69 167.99 66.69 168.04 66.68C168.21 66.66 168.38 66.64 168.55 66.61C168.61 66.61 168.66 66.59 168.72 66.58C168.8 66.56 168.89 66.55 168.97 66.53C169.03 66.52 169.09 66.5 169.14 66.48C169.22 66.46 169.3 66.44 169.37 66.41C169.41 66.4 169.46 66.38 169.5 66.37C169.62 66.33 169.74 66.28 169.85 66.24C169.89 66.22 169.94 66.2 169.98 66.19C170.12 66.12 170.27 66.05 170.4 65.98L211.23 42.25C211.29 42.21 211.34 42.18 211.4 42.14C211.46 42.11 211.51 42.07 211.56 42.03C211.6 42 211.65 41.96 211.69 41.93C211.74 41.89 211.78 41.85 211.83 41.82C211.86 41.8 211.88 41.77 211.9 41.75C211.97 41.68 212.03 41.62 212.09 41.55C212.11 41.52 212.14 41.49 212.16 41.46C212.2 41.41 212.23 41.36 212.26 41.3C212.28 41.27 212.3 41.24 212.32 41.2C212.34 41.15 212.36 41.11 212.38 41.06C212.4 41.02 212.41 40.99 212.43 40.95C212.45 40.91 212.46 40.86 212.47 40.82C212.47 40.78 212.49 40.74 212.5 40.71C212.5 40.66 212.5 40.62 212.51 40.57C212.51 40.53 212.52 40.48 212.52 40.44L212.49 40.45Z" fill="#D0CEBC" stroke="black" stroke-width="3" stroke-linecap="round" stroke-linejoin="round"/>
<path d="M306.119 95.47L306.029 126.78V126.82C306.029 126.82 306.029 126.88 306.029 126.91C306.029 126.96 306.029 127.01 306.009 127.05C306.009 127.05 306.009 127.06 306.009 127.07C306.009 127.1 305.989 127.13 305.989 127.16C305.979 127.2 305.969 127.25 305.949 127.29C305.949 127.29 305.949 127.31 305.949 127.32C305.939 127.35 305.919 127.37 305.909 127.4C305.889 127.45 305.869 127.49 305.839 127.54C305.839 127.54 305.839 127.56 305.829 127.57C305.819 127.59 305.799 127.61 305.789 127.64C305.759 127.69 305.719 127.74 305.689 127.8C305.679 127.81 305.669 127.83 305.659 127.85C305.649 127.86 305.629 127.88 305.619 127.89C305.559 127.96 305.499 128.03 305.429 128.09C305.409 128.11 305.399 128.12 305.379 128.14L305.349 128.16C305.349 128.16 305.259 128.24 305.209 128.27C305.169 128.3 305.129 128.34 305.089 128.37C305.039 128.41 304.979 128.44 304.929 128.48C304.889 128.51 304.859 128.53 304.819 128.56C304.799 128.56 304.779 128.58 304.759 128.59L263.929 152.32C263.799 152.4 263.649 152.47 263.509 152.53C263.469 152.55 263.419 152.57 263.379 152.58C263.269 152.63 263.149 152.67 263.029 152.71C262.999 152.71 262.979 152.73 262.949 152.74C262.939 152.74 262.919 152.74 262.899 152.75C262.829 152.77 262.749 152.8 262.669 152.82C262.609 152.84 262.559 152.85 262.489 152.87C262.409 152.89 262.329 152.91 262.239 152.92C262.189 152.92 262.149 152.94 262.099 152.95C262.099 152.95 262.089 152.95 262.079 152.95C261.909 152.98 261.739 153 261.569 153.02C261.559 153.02 261.549 153.02 261.529 153.02C261.489 153.02 261.449 153.02 261.409 153.02C261.309 153.02 261.209 153.03 261.109 153.04C261.089 153.04 261.059 153.04 261.039 153.04V121.73C261.089 121.73 261.149 121.73 261.209 121.73C261.309 121.73 261.409 121.72 261.509 121.71C261.559 121.71 261.619 121.71 261.669 121.7C261.839 121.68 262.009 121.66 262.179 121.63C262.239 121.63 262.289 121.61 262.349 121.6C262.429 121.58 262.519 121.57 262.599 121.55C262.659 121.54 262.719 121.52 262.769 121.5C262.849 121.48 262.929 121.46 262.999 121.43C263.039 121.42 263.089 121.4 263.129 121.39C263.249 121.35 263.369 121.3 263.479 121.26C263.519 121.24 263.569 121.22 263.609 121.21C263.749 121.14 263.899 121.07 264.029 121L304.859 97.27C304.919 97.23 304.969 97.2 305.029 97.16C305.089 97.13 305.139 97.09 305.189 97.05C305.229 97.02 305.279 96.98 305.319 96.95C305.369 96.91 305.409 96.87 305.459 96.84C305.489 96.82 305.509 96.79 305.529 96.77C305.599 96.7 305.659 96.64 305.719 96.57C305.739 96.54 305.769 96.51 305.789 96.48C305.829 96.43 305.859 96.38 305.889 96.32C305.909 96.29 305.929 96.26 305.949 96.22C305.969 96.17 305.989 96.13 306.009 96.08C306.029 96.04 306.039 96.01 306.059 95.97C306.079 95.93 306.089 95.88 306.099 95.84C306.099 95.8 306.119 95.76 306.129 95.73C306.129 95.68 306.129 95.64 306.139 95.59C306.139 95.55 306.149 95.5 306.149 95.46L306.119 95.47Z" fill="#D0CEBC" stroke="black" stroke-width="3" stroke-linecap="round" stroke-linejoin="round"/>
<path d="M167.379 121.78V153.09" stroke="black" stroke-width="3" stroke-linecap="round" stroke-linejoin="round"/>
<path d="M211.189 93.65C212.939 94.66 212.949 96.29 211.209 97.3L170.379 121.03C168.639 122.04 165.819 122.04 164.079 121.03L122.979 97.3C121.229 96.29 121.219 94.66 122.959 93.65L163.789 69.92C165.529 68.91 168.349 68.91 170.089 69.92L211.189 93.65Z" fill="#F8F8F8" stroke="black" stroke-width="3" stroke-linecap="round" stroke-linejoin="round"/>
<path d="M212.792 150.36C212.792 150.36 212.792 150.45 212.772 150.5C212.772 150.54 212.752 150.58 212.742 150.61C212.732 150.65 212.722 150.7 212.702 150.74C212.692 150.78 212.672 150.81 212.652 150.85C212.632 150.9 212.612 150.94 212.582 150.99C212.562 151.02 212.542 151.06 212.522 151.09C212.492 151.14 212.452 151.19 212.422 151.25C212.402 151.28 212.372 151.31 212.352 151.34C212.292 151.41 212.232 151.48 212.162 151.54C212.142 151.56 212.112 151.59 212.092 151.61C212.052 151.65 212.002 151.69 211.952 151.72C211.912 151.75 211.872 151.79 211.832 151.82C211.782 151.86 211.722 151.89 211.672 151.93C211.612 151.97 211.562 152 211.502 152.04L170.672 175.77C170.542 175.85 170.392 175.92 170.252 175.98C170.212 176 170.172 176.02 170.122 176.03C170.012 176.08 169.892 176.12 169.772 176.16C169.732 176.17 169.692 176.19 169.642 176.2C169.562 176.22 169.492 176.24 169.412 176.27C169.352 176.29 169.292 176.3 169.242 176.32C169.162 176.34 169.082 176.36 168.992 176.37C168.932 176.38 168.882 176.39 168.822 176.4C168.652 176.43 168.482 176.45 168.312 176.47C168.262 176.47 168.202 176.47 168.152 176.48C168.052 176.48 167.952 176.5 167.852 176.5C167.792 176.5 167.722 176.5 167.662 176.5C167.582 176.5 167.502 176.5 167.422 176.5C167.352 176.5 167.282 176.5 167.222 176.5C167.142 176.5 167.072 176.5 166.992 176.49C166.922 176.49 166.852 176.48 166.782 176.47C166.712 176.47 166.632 176.45 166.562 176.45C166.492 176.45 166.432 176.43 166.362 176.42C166.282 176.41 166.202 176.39 166.122 176.38C166.062 176.37 166.002 176.36 165.942 176.34C165.852 176.32 165.752 176.3 165.662 176.27C165.612 176.26 165.562 176.24 165.512 176.23C165.352 176.18 165.192 176.13 165.032 176.07C164.952 176.04 164.882 176.01 164.812 175.97C164.772 175.95 164.732 175.94 164.692 175.92C164.582 175.87 164.472 175.81 164.362 175.75L123.262 152.02C122.382 151.51 121.942 150.85 121.942 150.18L121.852 181.49C121.852 182.16 122.292 182.82 123.172 183.33L164.272 207.06C164.382 207.12 164.482 207.18 164.602 207.23C164.642 207.25 164.682 207.26 164.712 207.28C164.782 207.31 164.842 207.34 164.912 207.37H164.932C165.082 207.43 165.242 207.48 165.412 207.53C165.422 207.53 165.442 207.53 165.452 207.54C165.492 207.55 165.532 207.56 165.562 207.57C165.652 207.59 165.742 207.62 165.842 207.64C165.862 207.64 165.892 207.65 165.912 207.66C165.952 207.66 165.982 207.67 166.022 207.68C166.102 207.69 166.182 207.71 166.262 207.72C166.292 207.72 166.322 207.73 166.352 207.74C166.382 207.74 166.422 207.74 166.452 207.75C166.522 207.75 166.602 207.77 166.672 207.77C166.712 207.77 166.742 207.77 166.782 207.78C166.812 207.78 166.852 207.78 166.882 207.78C166.962 207.78 167.032 207.78 167.112 207.79C167.152 207.79 167.182 207.79 167.222 207.79C167.252 207.79 167.282 207.79 167.312 207.79C167.392 207.79 167.472 207.79 167.552 207.79C167.592 207.79 167.632 207.79 167.672 207.79C167.692 207.79 167.722 207.79 167.742 207.79C167.842 207.79 167.942 207.78 168.042 207.77C168.082 207.77 168.122 207.77 168.162 207.77C168.172 207.77 168.182 207.77 168.202 207.77C168.372 207.75 168.542 207.73 168.712 207.7H168.732C168.782 207.7 168.832 207.68 168.872 207.67C168.952 207.65 169.042 207.64 169.122 207.62C169.182 207.61 169.242 207.59 169.292 207.57C169.372 207.55 169.442 207.53 169.522 207.5C169.542 207.5 169.552 207.5 169.572 207.49C169.602 207.49 169.622 207.47 169.652 207.46C169.772 207.42 169.892 207.37 170.002 207.33C170.042 207.31 170.092 207.29 170.132 207.28C170.282 207.21 170.422 207.14 170.552 207.07L211.382 183.34C211.382 183.34 211.422 183.32 211.432 183.31C211.472 183.29 211.512 183.26 211.542 183.23C211.592 183.19 211.652 183.16 211.702 183.12C211.742 183.09 211.782 183.05 211.822 183.02C211.872 182.98 211.912 182.95 211.962 182.91C211.962 182.91 211.982 182.89 211.992 182.89C212.012 182.87 212.022 182.86 212.042 182.84C212.112 182.77 212.172 182.71 212.232 182.64C212.242 182.62 212.262 182.61 212.272 182.6C212.282 182.59 212.292 182.57 212.302 182.55C212.342 182.5 212.372 182.45 212.412 182.39C212.422 182.37 212.442 182.35 212.452 182.32C212.452 182.31 212.452 182.3 212.472 182.29C212.492 182.24 212.512 182.2 212.532 182.15C212.542 182.12 212.562 182.1 212.572 182.07C212.572 182.07 212.572 182.05 212.572 182.04C212.592 182 212.602 181.95 212.612 181.91C212.612 181.88 212.632 181.85 212.642 181.82V181.8C212.642 181.75 212.652 181.71 212.662 181.66C212.662 181.63 212.662 181.6 212.672 181.57C212.672 181.56 212.672 181.54 212.672 181.53L212.762 150.22C212.762 150.22 212.762 150.31 212.752 150.35L212.792 150.36Z" fill="#F8F8F8" stroke="black" stroke-width="3" stroke-linecap="round" stroke-linejoin="round"/>
<path d="M211.49 148.39C213.24 149.4 213.24 151.03 211.51 152.04L170.68 175.77C168.94 176.78 166.12 176.78 164.38 175.77L123.28 152.04C121.53 151.03 121.52 149.4 123.26 148.39L164.09 124.66C165.83 123.65 168.65 123.65 170.39 124.66L211.49 148.39Z" fill="#C5A466" stroke="black" stroke-width="3" stroke-linecap="round" stroke-linejoin="round"/>
<path d="M167.379 176.52V207.83" stroke="black" stroke-width="3" stroke-linecap="round" stroke-linejoin="round"/>
<path d="M212.49 150.22L212.4 181.53V181.57C212.4 181.57 212.4 181.63 212.4 181.66C212.4 181.71 212.4 181.76 212.38 181.8C212.38 181.8 212.38 181.81 212.38 181.82C212.38 181.85 212.36 181.88 212.36 181.91C212.35 181.95 212.34 182 212.32 182.04C212.32 182.04 212.32 182.06 212.32 182.07C212.31 182.1 212.29 182.12 212.28 182.15C212.26 182.2 212.24 182.24 212.21 182.29C212.21 182.29 212.21 182.31 212.2 182.32C212.19 182.34 212.17 182.36 212.16 182.39C212.13 182.44 212.09 182.49 212.06 182.55C212.05 182.56 212.04 182.58 212.03 182.6C212.02 182.61 212 182.63 211.99 182.64C211.93 182.71 211.87 182.78 211.8 182.84C211.78 182.86 211.77 182.87 211.75 182.89L211.72 182.91C211.72 182.91 211.63 182.99 211.58 183.02C211.54 183.05 211.5 183.09 211.46 183.12C211.41 183.16 211.35 183.19 211.3 183.23C211.26 183.26 211.23 183.28 211.19 183.31C211.17 183.31 211.15 183.33 211.13 183.34L170.3 207.07C170.17 207.15 170.02 207.22 169.88 207.28C169.84 207.3 169.79 207.32 169.75 207.33C169.64 207.38 169.52 207.42 169.4 207.46C169.37 207.46 169.35 207.48 169.32 207.49C169.31 207.49 169.29 207.49 169.27 207.5C169.2 207.52 169.12 207.55 169.04 207.57C168.98 207.59 168.93 207.6 168.86 207.62C168.78 207.64 168.7 207.66 168.61 207.67C168.56 207.67 168.52 207.69 168.47 207.7C168.47 207.7 168.46 207.7 168.45 207.7C168.28 207.73 168.11 207.75 167.94 207.77C167.93 207.77 167.92 207.77 167.9 207.77C167.86 207.77 167.82 207.77 167.78 207.77C167.68 207.77 167.58 207.78 167.48 207.79C167.46 207.79 167.43 207.79 167.41 207.79V176.48C167.46 176.48 167.52 176.48 167.58 176.48C167.68 176.48 167.78 176.47 167.88 176.46C167.93 176.46 167.99 176.46 168.04 176.45C168.21 176.43 168.38 176.41 168.55 176.38C168.61 176.38 168.66 176.36 168.72 176.35C168.8 176.33 168.89 176.32 168.97 176.3C169.03 176.29 169.09 176.27 169.14 176.25C169.22 176.23 169.3 176.21 169.37 176.18C169.41 176.17 169.46 176.15 169.5 176.14C169.62 176.1 169.74 176.05 169.85 176.01C169.89 175.99 169.94 175.97 169.98 175.96C170.12 175.89 170.27 175.82 170.4 175.75L211.23 152.02C211.29 151.98 211.34 151.95 211.4 151.91C211.46 151.88 211.51 151.84 211.56 151.8C211.6 151.77 211.65 151.73 211.69 151.7C211.74 151.66 211.78 151.62 211.83 151.59C211.86 151.57 211.88 151.54 211.9 151.52C211.97 151.45 212.03 151.39 212.09 151.32C212.11 151.29 212.14 151.26 212.16 151.23C212.2 151.18 212.23 151.13 212.26 151.07C212.28 151.04 212.3 151.01 212.32 150.97C212.34 150.92 212.36 150.88 212.38 150.83C212.4 150.79 212.41 150.76 212.43 150.72C212.45 150.68 212.46 150.63 212.47 150.59C212.47 150.55 212.49 150.51 212.5 150.48C212.5 150.43 212.5 150.39 212.51 150.34C212.51 150.3 212.52 150.25 212.52 150.21L212.49 150.22Z" fill="#D0CEBC" stroke="black" stroke-width="3" stroke-linecap="round" stroke-linejoin="round"/>
<path d="M261.609 121.78V153.09" stroke="black" stroke-width="3" stroke-linecap="round" stroke-linejoin="round"/>
<path d="M72.0381 69.38C69.3681 72.11 69.1381 76.12 68.5781 77.51" stroke="black" stroke-width="3" stroke-linecap="round" stroke-linejoin="round"/>
<path d="M71.9295 69.58C72.9995 68.1 75.3095 65.53 76.9595 64.7C78.6095 63.87 80.5695 63.51 82.5395 63.83C84.5095 64.15 86.4795 65.16 87.8595 66.72C88.0195 66.9 88.1695 67.09 88.2495 67.31C88.3495 67.61 88.2995 67.92 88.2395 68.21C88.1295 68.76 88.0095 69.32 87.6595 69.73C87.3795 70.06 86.9695 70.26 86.5595 70.41C85.6395 70.76 84.6495 70.94 83.6695 71.12C82.2495 71.38 80.9795 71.5 79.4895 71.4C78.1795 71.31 76.7095 71.08 75.3995 70.83C74.0095 70.57 72.9495 70.43 71.8695 69.58C70.6295 68.6 69.2095 67.84 68.0195 66.99C65.8795 65.46 63.6295 63.79 62.6895 61.47C62.5995 61.24 62.5195 61 62.5195 60.76C62.5295 59.93 63.5095 59.45 64.4095 59.35C66.8295 59.1 69.3295 60.58 70.5995 62.58C71.8695 64.58 72.0695 66.69 71.7395 69.12" fill="#B6D900"/>
<path d="M71.9295 69.58C72.9995 68.1 75.3095 65.53 76.9595 64.7C78.6095 63.87 80.5695 63.51 82.5395 63.83C84.5095 64.15 86.4795 65.16 87.8595 66.72C88.0195 66.9 88.1695 67.09 88.2495 67.31C88.3495 67.61 88.2995 67.92 88.2395 68.21C88.1295 68.76 88.0095 69.32 87.6595 69.73C87.3795 70.06 86.9695 70.26 86.5595 70.41C85.6395 70.76 84.6495 70.94 83.6695 71.12C82.2495 71.38 80.9795 71.5 79.4895 71.4C78.1795 71.31 76.7095 71.08 75.3995 70.83C74.0095 70.57 72.9495 70.43 71.8695 69.58C70.6295 68.6 69.2095 67.84 68.0195 66.99C65.8795 65.46 63.6295 63.79 62.6895 61.47C62.5995 61.24 62.5195 61 62.5195 60.76C62.5295 59.93 63.5095 59.45 64.4095 59.35C66.8295 59.1 69.3295 60.58 70.5995 62.58C71.8695 64.58 72.0695 66.69 71.7395 69.12" stroke="black" stroke-width="3" stroke-linecap="round" stroke-linejoin="round"/>
<path d="M92.6281 93.14C92.7881 88.86 90.5281 85.87 87.6981 82.44C84.8681 79.01 78.8181 76.03 74.0681 76.12C72.1881 76.16 70.3381 76.56 68.5181 76.98C64.9781 77.79 60.3881 78.42 57.4781 80.4C56.2181 81.26 54.1781 82.48 53.5781 83.8C52.9981 85.06 51.9381 86.83 51.5681 88.15C51.0381 90.01 52.3181 91.18 52.7081 92.64C52.7081 92.64 54.6681 98.64 58.3281 99.02C61.9881 99.4 69.7781 100.7 72.3281 99.73C74.8781 98.76 78.4681 99.79 80.3581 99.19C82.2481 98.59 85.7681 96.34 87.7581 95.52C89.7481 94.7 92.6281 93.13 92.6281 93.13V93.14Z" fill="#FFD000" stroke="black" stroke-width="3" stroke-miterlimit="10"/>
<path d="M102.59 95.21C101.53 95.52 100.53 96.51 101.48 96.8C103.79 97.52 103.99 99.18 98.7295 100.58C90.6995 102.71 93.6995 99.37 83.6295 101.58C69.7195 104.63 55.2095 103.27 42.4295 96.94C34.3995 92.96 43.1695 91.8 44.7495 91.26C48.4695 89.98 53.6695 89.69 55.8495 90.21C58.0295 90.73 64.2095 95.17 64.2095 95.17C64.2095 95.17 68.5295 92.91 70.1295 93.26C71.7295 93.61 74.8395 95.17 74.8395 95.17C74.8395 95.17 78.6995 92.2 80.3295 92C82.6295 91.71 85.5095 92.72 87.5395 93.07L86.9095 91.72C86.9095 91.72 87.9595 90.24 90.0795 89.98C92.1995 89.72 92.6395 89.94 92.6395 89.94C92.6395 89.94 95.7595 90 97.0495 90.09C99.0995 90.22 104.479 90.85 105.74 91.14C107.77 91.6 110.05 93.06 102.59 95.23V95.21Z" fill="#A07F33"/>
<path d="M45.3281 91.16C45.3281 91.16 55.0381 87.93 65.1181 96.31" stroke="black" stroke-width="3" stroke-linecap="round" stroke-linejoin="round"/>
<path d="M74.8411 95.17C73.9411 94.45 71.4811 93.47 69.7011 93.47C67.1911 93.47 65.2111 95.1 65.1211 95.17" stroke="black" stroke-width="3" stroke-linecap="round" stroke-linejoin="round"/>
<path d="M75.1914 94.45C75.1914 94.45 77.5214 92.28 80.3314 92C83.1414 91.73 85.7914 92.06 87.5414 93.07" stroke="black" stroke-width="3" stroke-linecap="round" stroke-linejoin="round"/>
<path d="M98.7278 89.79C98.7278 89.79 91.8978 89.23 89.9478 89.6C87.9978 89.97 85.2578 92.23 85.2578 92.23" stroke="black" stroke-width="3" stroke-linecap="round" stroke-linejoin="round"/>
<path d="M74.2594 82.45C75.0326 82.45 75.6594 81.8814 75.6594 81.18C75.6594 80.4786 75.0326 79.91 74.2594 79.91C73.4862 79.91 72.8594 80.4786 72.8594 81.18C72.8594 81.8814 73.4862 82.45 74.2594 82.45Z" fill="#F3A000"/>
<path d="M69.3688 82.57C70.142 82.57 70.7687 82.0014 70.7687 81.3C70.7687 80.5986 70.142 80.03 69.3688 80.03C68.5956 80.03 67.9688 80.5986 67.9688 81.3C67.9688 82.0014 68.5956 82.57 69.3688 82.57Z" fill="#F3A000"/>
<path d="M71.4078 88.71C72.181 88.71 72.8078 88.1414 72.8078 87.44C72.8078 86.7386 72.181 86.17 71.4078 86.17C70.6346 86.17 70.0078 86.7386 70.0078 87.44C70.0078 88.1414 70.6346 88.71 71.4078 88.71Z" fill="#F3A000"/>
<path d="M85.0211 88.71C85.7943 88.71 86.4211 88.1414 86.4211 87.44C86.4211 86.7386 85.7943 86.17 85.0211 86.17C84.2479 86.17 83.6211 86.7386 83.6211 87.44C83.6211 88.1414 84.2479 88.71 85.0211 88.71Z" fill="#F3A000"/>
<path d="M165.68 14.99C164.8 18.7 166.66 22.27 166.9 23.74" stroke="black" stroke-width="3" stroke-linecap="round" stroke-linejoin="round"/>
<path d="M165.689 15.22C165.839 13.41 166.499 10.01 167.489 8.45C168.479 6.89 169.969 5.58 171.819 4.83C173.669 4.08 175.879 3.94 177.869 4.57C178.099 4.64 178.329 4.73 178.509 4.88C178.749 5.08 178.859 5.38 178.959 5.66C179.149 6.18 179.339 6.73 179.249 7.26C179.179 7.69 178.929 8.06 178.659 8.41C178.049 9.18 177.299 9.85 176.549 10.51C175.469 11.46 174.439 12.22 173.109 12.9C171.939 13.49 170.559 14.05 169.319 14.52C167.999 15.01 167.009 15.44 165.639 15.26C164.069 15.06 162.459 15.14 161.009 15.03C158.389 14.82 155.599 14.55 153.599 13.05C153.399 12.9 153.209 12.74 153.089 12.53C152.669 11.81 153.259 10.89 153.979 10.35C155.929 8.9 158.829 8.87 160.949 9.94C163.069 11.01 164.329 12.71 165.299 14.96" fill="#B6D900"/>
<path d="M165.689 15.22C165.839 13.41 166.499 10.01 167.489 8.45C168.479 6.89 169.969 5.58 171.819 4.83C173.669 4.08 175.879 3.94 177.869 4.57C178.099 4.64 178.329 4.73 178.509 4.88C178.749 5.08 178.859 5.38 178.959 5.66C179.149 6.18 179.339 6.73 179.249 7.26C179.179 7.69 178.929 8.06 178.659 8.41C178.049 9.18 177.299 9.85 176.549 10.51C175.469 11.46 174.439 12.22 173.109 12.9C171.939 13.49 170.559 14.05 169.319 14.52C167.999 15.01 167.009 15.44 165.639 15.26C164.069 15.06 162.459 15.14 161.009 15.03C158.389 14.82 155.599 14.55 153.599 13.05C153.399 12.9 153.209 12.74 153.089 12.53C152.669 11.81 153.259 10.89 153.979 10.35C155.929 8.9 158.829 8.87 160.949 9.94C163.069 11.01 164.329 12.71 165.299 14.96" stroke="black" stroke-width="3" stroke-linecap="round" stroke-linejoin="round"/>
<path d="M183.782 45.53C185.132 41.64 184.132 38.31 182.782 34.43C181.432 30.55 177.302 26.27 173.362 25.14C171.802 24.69 170.162 24.59 168.542 24.51C165.392 24.35 161.442 23.75 158.472 24.84C157.192 25.31 155.162 25.91 154.292 26.96C153.452 27.97 152.082 29.32 151.392 30.44C150.422 32.02 151.142 33.41 151.052 34.85C151.052 34.85 150.952 40.87 153.862 42.15C156.772 43.43 162.812 46.62 165.192 46.38C167.572 46.14 170.232 48.01 171.962 47.94C173.692 47.87 177.232 46.71 179.102 46.46C180.972 46.21 183.792 45.51 183.792 45.51L183.782 45.53Z" fill="#FFD000" stroke="black" stroke-width="3" stroke-miterlimit="10"/>
<path d="M196.23 42.54C195.17 42.91 194.17 44.1 195.12 44.45C197.43 45.32 197.63 47.3 192.37 48.98C184.34 51.53 187.34 47.53 177.27 50.18C163.36 53.83 148.85 52.2 136.07 44.62C128.04 39.85 136.81 38.46 138.39 37.81C142.11 36.28 147.31 35.93 149.49 36.56C151.67 37.19 157.85 42.5 157.85 42.5C157.85 42.5 162.17 39.79 163.77 40.22C165.37 40.65 168.48 42.5 168.48 42.5C168.48 42.5 172.34 38.95 173.97 38.7C176.27 38.35 179.15 39.56 181.18 39.98L180.55 38.36C180.55 38.36 181.6 36.58 183.72 36.27C185.84 35.96 186.28 36.22 186.28 36.22C186.28 36.22 189.4 36.3 190.69 36.4C192.74 36.56 198.12 37.31 199.38 37.65C201.41 38.2 203.69 39.94 196.23 42.55V42.54Z" fill="#A07F33"/>
<path d="M140.672 37.43C140.672 37.43 149.552 34.2 158.762 42.58" stroke="black" stroke-width="3" stroke-linecap="round" stroke-linejoin="round"/>
<path d="M168.482 41.44C167.582 40.72 165.122 39.74 163.342 39.74C160.832 39.74 158.852 41.37 158.762 41.44" stroke="black" stroke-width="3" stroke-linecap="round" stroke-linejoin="round"/>
<path d="M168.832 40.71C168.832 40.71 171.162 38.54 173.972 38.26C176.782 37.99 179.432 38.32 181.182 39.33" stroke="black" stroke-width="3" stroke-linecap="round" stroke-linejoin="round"/>
<path d="M192.361 36.05C192.361 36.05 185.531 35.49 183.581 35.86C181.631 36.23 178.891 38.49 178.891 38.49" stroke="black" stroke-width="3" stroke-linecap="round" stroke-linejoin="round"/>
<path d="M164.341 30.5C165.115 30.5 165.741 29.9314 165.741 29.23C165.741 28.5286 165.115 27.96 164.341 27.96C163.568 27.96 162.941 28.5286 162.941 29.23C162.941 29.9314 163.568 30.5 164.341 30.5Z" fill="#F3A000"/>
<path d="M158.861 30.5C159.634 30.5 160.261 29.9314 160.261 29.23C160.261 28.5286 159.634 27.96 158.861 27.96C158.088 27.96 157.461 28.5286 157.461 29.23C157.461 29.9314 158.088 30.5 158.861 30.5Z" fill="#F3A000"/>
<path d="M158.162 34.85C158.935 34.85 159.562 34.2814 159.562 33.58C159.562 32.8786 158.935 32.31 158.162 32.31C157.389 32.31 156.762 32.8786 156.762 33.58C156.762 34.2814 157.389 34.85 158.162 34.85Z" fill="#F3A000"/>
<path d="M171.779 34.85C172.552 34.85 173.179 34.2814 173.179 33.58C173.179 32.8786 172.552 32.31 171.779 32.31C171.006 32.31 170.379 32.8786 170.379 33.58C170.379 34.2814 171.006 34.85 171.779 34.85Z" fill="#F3A000"/>
<path d="M163.32 127.2C166.57 130.52 166.86 135.41 167.53 137.1" stroke="black" stroke-width="3" stroke-linecap="round" stroke-linejoin="round"/>
<path d="M163.461 127.44C162.161 125.64 159.341 122.5 157.331 121.5C155.321 120.5 152.931 120.06 150.531 120.44C148.131 120.82 145.731 122.06 144.051 123.96C143.861 124.18 143.671 124.42 143.581 124.68C143.451 125.05 143.521 125.42 143.591 125.78C143.721 126.44 143.871 127.13 144.301 127.63C144.641 128.03 145.141 128.27 145.641 128.46C146.761 128.88 147.961 129.11 149.161 129.33C150.891 129.65 152.441 129.8 154.261 129.67C155.851 129.56 157.641 129.28 159.241 128.98C160.931 128.66 162.221 128.5 163.541 127.45C165.051 126.25 166.791 125.33 168.231 124.3C170.841 122.43 173.581 120.4 174.721 117.58C174.831 117.3 174.931 117.01 174.931 116.72C174.911 115.7 173.721 115.12 172.631 115.01C169.691 114.71 166.641 116.5 165.091 118.95C163.541 121.4 163.301 123.96 163.701 126.92" fill="#B6D900"/>
<path d="M163.461 127.44C162.161 125.64 159.341 122.5 157.331 121.5C155.321 120.5 152.931 120.06 150.531 120.44C148.131 120.82 145.731 122.06 144.051 123.96C143.861 124.18 143.671 124.42 143.581 124.68C143.451 125.05 143.521 125.42 143.591 125.78C143.721 126.44 143.871 127.13 144.301 127.63C144.641 128.03 145.141 128.27 145.641 128.46C146.761 128.88 147.961 129.11 149.161 129.33C150.891 129.65 152.441 129.8 154.261 129.67C155.851 129.56 157.641 129.28 159.241 128.98C160.931 128.66 162.221 128.5 163.541 127.45C165.051 126.25 166.791 125.33 168.231 124.3C170.841 122.43 173.581 120.4 174.721 117.58C174.831 117.3 174.931 117.01 174.931 116.72C174.911 115.7 173.721 115.12 172.631 115.01C169.691 114.71 166.641 116.5 165.091 118.95C163.541 121.4 163.301 123.96 163.701 126.92" stroke="black" stroke-width="3" stroke-linecap="round" stroke-linejoin="round"/>
<path d="M175.172 134.38C175.172 134.38 155.242 130.14 151.022 137.34C146.362 145.29 141.802 153.13 163.122 156.21C174.802 157.9 180.652 155.54 185.702 147.24C188.062 141.66 184.502 136.95 175.162 134.38H175.172Z" fill="#FDD104"/>
<mask id="mask0_3807_20647" style="mask-type:luminance" maskUnits="userSpaceOnUse" x="147" y="133" width="40" height="24">
<path d="M175.172 134.38C175.172 134.38 155.242 130.14 151.022 137.34C146.362 145.29 141.802 153.13 163.122 156.21C174.802 157.9 180.652 155.54 185.702 147.24C188.062 141.66 184.502 136.95 175.162 134.38H175.172Z" fill="white"/>
</mask>
<g mask="url(#mask0_3807_20647)">
<path d="M176.869 142.019C176.991 141.424 176.519 140.825 175.815 140.681C175.112 140.537 174.443 140.904 174.322 141.499C174.2 142.094 174.672 142.693 175.375 142.837C176.079 142.98 176.748 142.614 176.869 142.019Z" fill="#E6A301"/>
<path d="M183.83 146.082C183.952 145.487 183.48 144.888 182.776 144.744C182.073 144.6 181.404 144.967 181.283 145.562C181.161 146.157 181.633 146.756 182.336 146.9C183.04 147.043 183.708 146.677 183.83 146.082Z" fill="#E6A301"/>
<path d="M159.624 138.184C160.34 138.134 160.886 137.598 160.843 136.986C160.8 136.375 160.185 135.92 159.469 135.97C158.752 136.02 158.207 136.556 158.249 137.168C158.292 137.779 158.907 138.235 159.624 138.184Z" fill="#E6A301"/>
<path d="M161.268 141.632C162.077 141.454 162.612 140.759 162.462 140.079C162.313 139.399 161.536 138.993 160.727 139.171C159.918 139.349 159.383 140.044 159.532 140.724C159.682 141.403 160.459 141.81 161.268 141.632Z" fill="#E6A301"/>
<path d="M180.967 141.16C181.088 140.565 180.616 139.966 179.913 139.822C179.21 139.678 178.541 140.044 178.419 140.64C178.298 141.235 178.769 141.834 179.473 141.977C180.176 142.121 180.845 141.755 180.967 141.16Z" fill="#E6A301"/>
</g>
<path d="M175.172 134.38C175.172 134.38 155.242 130.14 151.022 137.34C146.362 145.29 141.802 153.13 163.122 156.21C174.802 157.9 180.652 155.54 185.702 147.24C188.062 141.66 184.502 136.95 175.162 134.38H175.172Z" stroke="black" stroke-width="3" stroke-miterlimit="10"/>
<path d="M196.23 151.41C195.17 151.72 194.17 152.71 195.12 153C197.43 153.72 197.63 155.38 192.37 156.78C184.34 158.91 187.34 155.57 177.27 157.78C163.36 160.83 148.85 159.47 136.07 153.14C128.04 149.16 136.81 148 138.39 147.46C142.11 146.18 147.31 145.89 149.49 146.41C151.67 146.93 157.85 151.37 157.85 151.37C157.85 151.37 162.17 149.11 163.77 149.46C165.37 149.81 168.48 151.37 168.48 151.37C168.48 151.37 172.34 148.4 173.97 148.2C176.27 147.91 179.15 148.92 181.18 149.27L180.55 147.92C180.55 147.92 181.6 146.44 183.72 146.18C185.84 145.92 186.28 146.14 186.28 146.14C186.28 146.14 189.4 146.2 190.69 146.29C192.74 146.42 198.12 147.05 199.38 147.34C201.41 147.8 203.69 149.26 196.23 151.43V151.41Z" fill="#A07F33"/>
<path d="M138.961 147.36C138.961 147.36 148.671 144.13 158.751 152.51" stroke="black" stroke-width="3" stroke-linecap="round" stroke-linejoin="round"/>
<path d="M168.482 151.37C167.582 150.65 165.122 149.67 163.342 149.67C160.832 149.67 158.852 151.3 158.762 151.37" stroke="black" stroke-width="3" stroke-linecap="round" stroke-linejoin="round"/>
<path d="M168.832 150.64C168.832 150.64 171.162 148.47 173.972 148.19C176.782 147.91 179.432 148.25 181.182 149.26" stroke="black" stroke-width="3" stroke-linecap="round" stroke-linejoin="round"/>
<path d="M192.361 145.98C192.361 145.98 185.531 145.42 183.581 145.79C181.631 146.16 178.891 148.42 178.891 148.42" stroke="black" stroke-width="3" stroke-linecap="round" stroke-linejoin="round"/>
<path d="M167.9 138.64C168.673 138.64 169.3 138.071 169.3 137.37C169.3 136.669 168.673 136.1 167.9 136.1C167.127 136.1 166.5 136.669 166.5 137.37C166.5 138.071 167.127 138.64 167.9 138.64Z" fill="#F3A000"/>
<path d="M163.009 138.76C163.783 138.76 164.409 138.191 164.409 137.49C164.409 136.789 163.783 136.22 163.009 136.22C162.236 136.22 161.609 136.789 161.609 137.49C161.609 138.191 162.236 138.76 163.009 138.76Z" fill="#F3A000"/>
<path d="M165.048 144.9C165.822 144.9 166.448 144.331 166.448 143.63C166.448 142.929 165.822 142.36 165.048 142.36C164.275 142.36 163.648 142.929 163.648 143.63C163.648 144.331 164.275 144.9 165.048 144.9Z" fill="#F3A000"/>
<path d="M178.662 144.9C179.435 144.9 180.062 144.331 180.062 143.63C180.062 142.929 179.435 142.36 178.662 142.36C177.889 142.36 177.262 142.929 177.262 143.63C177.262 144.331 177.889 144.9 178.662 144.9Z" fill="#F3A000"/>
<path d="M262.969 72.25C265.639 74.98 265.869 78.99 266.429 80.38" stroke="black" stroke-width="3" stroke-linecap="round" stroke-linejoin="round"/>
<path d="M263.08 72.45C262.01 70.97 259.7 68.4 258.05 67.57C256.4 66.74 254.44 66.38 252.47 66.7C250.5 67.02 248.53 68.03 247.15 69.59C246.99 69.77 246.84 69.96 246.76 70.18C246.66 70.48 246.71 70.79 246.77 71.08C246.88 71.63 247 72.19 247.35 72.6C247.63 72.93 248.04 73.13 248.45 73.28C249.37 73.63 250.36 73.81 251.34 73.99C252.76 74.25 254.03 74.37 255.52 74.27C256.83 74.18 258.3 73.95 259.61 73.7C261 73.44 262.06 73.3 263.14 72.45C264.38 71.47 265.8 70.71 266.99 69.86C269.13 68.33 271.38 66.66 272.32 64.34C272.41 64.11 272.49 63.87 272.49 63.63C272.48 62.8 271.5 62.32 270.6 62.22C268.18 61.97 265.68 63.45 264.41 65.45C263.14 67.45 262.94 69.56 263.27 71.99" fill="#B6D900"/>
<path d="M263.08 72.45C262.01 70.97 259.7 68.4 258.05 67.57C256.4 66.74 254.44 66.38 252.47 66.7C250.5 67.02 248.53 68.03 247.15 69.59C246.99 69.77 246.84 69.96 246.76 70.18C246.66 70.48 246.71 70.79 246.77 71.08C246.88 71.63 247 72.19 247.35 72.6C247.63 72.93 248.04 73.13 248.45 73.28C249.37 73.63 250.36 73.81 251.34 73.99C252.76 74.25 254.03 74.37 255.52 74.27C256.83 74.18 258.3 73.95 259.61 73.7C261 73.44 262.06 73.3 263.14 72.45C264.38 71.47 265.8 70.71 266.99 69.86C269.13 68.33 271.38 66.66 272.32 64.34C272.41 64.11 272.49 63.87 272.49 63.63C272.48 62.8 271.5 62.32 270.6 62.22C268.18 61.97 265.68 63.45 264.41 65.45C263.14 67.45 262.94 69.56 263.27 71.99" stroke="black" stroke-width="3" stroke-linecap="round" stroke-linejoin="round"/>
<path d="M242.379 96.01C242.219 91.73 244.479 88.74 247.309 85.31C250.139 81.88 256.189 78.9 260.939 78.99C262.819 79.03 264.669 79.43 266.489 79.85C270.029 80.66 274.619 81.29 277.529 83.27C278.789 84.13 280.829 85.35 281.429 86.67C282.009 87.93 283.069 89.7 283.439 91.02C283.969 92.88 282.689 94.05 282.299 95.51C282.299 95.51 280.339 101.51 276.679 101.89C273.019 102.27 265.229 103.57 262.679 102.6C260.129 101.64 256.539 102.66 254.649 102.06C252.759 101.46 249.239 99.21 247.249 98.39C245.259 97.57 242.379 96 242.379 96V96.01Z" fill="#FFD000" stroke="black" stroke-width="3" stroke-miterlimit="10"/>
<path d="M232.419 98.08C233.479 98.39 234.479 99.38 233.529 99.67C231.219 100.39 231.019 102.05 236.279 103.45C244.309 105.58 241.309 102.24 251.379 104.45C265.289 107.5 279.799 106.14 292.579 99.81C300.609 95.83 291.839 94.67 290.259 94.13C286.539 92.85 281.339 92.56 279.159 93.08C276.979 93.6 270.799 98.04 270.799 98.04C270.799 98.04 266.479 95.78 264.879 96.13C263.279 96.48 260.169 98.04 260.169 98.04C260.169 98.04 256.309 95.07 254.679 94.87C252.379 94.58 249.499 95.59 247.469 95.94L248.099 94.59C248.099 94.59 247.049 93.11 244.929 92.85C242.809 92.59 242.369 92.81 242.369 92.81C242.369 92.81 239.249 92.87 237.959 92.96C235.909 93.09 230.529 93.72 229.269 94.01C227.239 94.47 224.959 95.93 232.419 98.1V98.08Z" fill="#A07F33"/>
<path d="M289.688 94.03C289.688 94.03 279.978 90.8 269.898 99.18" stroke="black" stroke-width="3" stroke-linecap="round" stroke-linejoin="round"/>
<path d="M260.168 98.04C261.068 97.32 263.528 96.34 265.308 96.34C267.818 96.34 269.798 97.97 269.888 98.04" stroke="black" stroke-width="3" stroke-linecap="round" stroke-linejoin="round"/>
<path d="M259.819 97.31C259.819 97.31 257.489 95.14 254.679 94.86C251.869 94.59 249.219 94.92 247.469 95.93" stroke="black" stroke-width="3" stroke-linecap="round" stroke-linejoin="round"/>
<path d="M236.289 92.65C236.289 92.65 243.119 92.09 245.069 92.46C247.019 92.83 249.759 95.09 249.759 95.09" stroke="black" stroke-width="3" stroke-linecap="round" stroke-linejoin="round"/>
<path d="M260.748 85.31C261.521 85.31 262.148 84.7414 262.148 84.04C262.148 83.3386 261.521 82.77 260.748 82.77C259.974 82.77 259.348 83.3386 259.348 84.04C259.348 84.7414 259.974 85.31 260.748 85.31Z" fill="#F3A000"/>
<path d="M265.638 85.43C266.412 85.43 267.038 84.8614 267.038 84.16C267.038 83.4586 266.412 82.89 265.638 82.89C264.865 82.89 264.238 83.4586 264.238 84.16C264.238 84.8614 264.865 85.43 265.638 85.43Z" fill="#F3A000"/>
<path d="M263.599 91.57C264.372 91.57 264.999 91.0014 264.999 90.3C264.999 89.5986 264.372 89.03 263.599 89.03C262.826 89.03 262.199 89.5986 262.199 90.3C262.199 91.0014 262.826 91.57 263.599 91.57Z" fill="#F3A000"/>
<path d="M249.99 91.57C250.763 91.57 251.39 91.0014 251.39 90.3C251.39 89.5986 250.763 89.03 249.99 89.03C249.217 89.03 248.59 89.5986 248.59 90.3C248.59 91.0014 249.217 91.57 249.99 91.57Z" fill="#F3A000"/>
</svg>
