<svg width="25" height="24" viewBox="0 0 25 24" fill="none" xmlns="http://www.w3.org/2000/svg">
<g clip-path="url(#clip0_4313_4483)">
<path d="M12.668 3C11.7513 3 10.9365 3.37976 10.4199 3.96094C9.90332 4.54212 9.66797 5.27778 9.66797 6C9.66797 6.72222 9.90332 7.45788 10.4199 8.03906C10.9365 8.62024 11.7513 9 12.668 9C13.5846 9 14.3994 8.62024 14.916 8.03906C15.4326 7.45788 15.668 6.72222 15.668 6C15.668 5.27778 15.4326 4.54212 14.916 3.96094C14.3994 3.37976 13.5846 3 12.668 3ZM4.66797 4C3.7513 4 2.93653 4.37976 2.41992 4.96094C1.90332 5.54212 1.66797 6.27778 1.66797 7C1.66797 7.72222 1.90332 8.45788 2.41992 9.03906C2.93653 9.62024 3.7513 10 4.66797 10C5.58464 10 6.39941 9.62024 6.91602 9.03906C7.43262 8.45788 7.66797 7.72222 7.66797 7C7.66797 6.27778 7.43262 5.54212 6.91602 4.96094C6.39941 4.37976 5.58464 4 4.66797 4ZM20.668 4C19.7513 4 18.9365 4.37976 18.4199 4.96094C17.9033 5.54212 17.668 6.27778 17.668 7C17.668 7.72222 17.9033 8.45788 18.4199 9.03906C18.9365 9.62024 19.7513 10 20.668 10C21.5846 10 22.3994 9.62024 22.916 9.03906C23.4326 8.45788 23.668 7.72222 23.668 7C23.668 6.27778 23.4326 5.54212 22.916 4.96094C22.3994 4.37976 21.5846 4 20.668 4ZM12.668 5C13.0846 5 13.2699 5.12024 13.4199 5.28906C13.57 5.45788 13.668 5.72222 13.668 6C13.668 6.27778 13.57 6.54212 13.4199 6.71094C13.2699 6.87976 13.0846 7 12.668 7C12.2513 7 12.0661 6.87976 11.916 6.71094C11.766 6.54212 11.668 6.27778 11.668 6C11.668 5.72222 11.766 5.45788 11.916 5.28906C12.0661 5.12024 12.2513 5 12.668 5ZM4.66797 6C5.08464 6 5.26986 6.12024 5.41992 6.28906C5.56998 6.45788 5.66797 6.72222 5.66797 7C5.66797 7.27778 5.56998 7.54212 5.41992 7.71094C5.26986 7.87976 5.08464 8 4.66797 8C4.2513 8 4.06608 7.87976 3.91602 7.71094C3.76596 7.54212 3.66797 7.27778 3.66797 7C3.66797 6.72222 3.76596 6.45788 3.91602 6.28906C4.06608 6.12024 4.2513 6 4.66797 6ZM20.668 6C21.0846 6 21.2699 6.12024 21.4199 6.28906C21.57 6.45788 21.668 6.72222 21.668 7C21.668 7.27778 21.57 7.54212 21.4199 7.71094C21.2699 7.87976 21.0846 8 20.668 8C20.2513 8 20.0661 7.87976 19.916 7.71094C19.766 7.54212 19.668 7.27778 19.668 7C19.668 6.72222 19.766 6.45788 19.916 6.28906C20.0661 6.12024 20.2513 6 20.668 6ZM12.668 10C11.023 10 9.66797 11.355 9.66797 13V14.1035C8.97244 14.1474 8.30597 14.2047 7.66797 14.2773V14C7.66797 12.355 6.31294 11 4.66797 11C3.023 11 1.66797 12.355 1.66797 14V15.8887C1.48125 16.0154 1.30377 16.1536 1.14844 16.3262C0.888729 16.6146 0.667969 17.0302 0.667969 17.5C0.667969 17.9698 0.888729 18.3854 1.14844 18.6738C1.40815 18.9623 1.71338 19.168 2.05859 19.3535C2.74903 19.7245 3.61907 20.0038 4.66797 20.2422C6.76577 20.719 9.56899 21 12.668 21C15.767 21 18.5702 20.719 20.668 20.2422C21.7169 20.0038 22.5869 19.7245 23.2773 19.3535C23.6226 19.168 23.9278 18.9623 24.1875 18.6738C24.4472 18.3854 24.668 17.9698 24.668 17.5C24.668 17.0302 24.4472 16.6146 24.1875 16.3262C24.0322 16.1536 23.8547 16.0154 23.668 15.8887V14C23.668 12.355 22.3129 11 20.668 11C19.023 11 17.668 12.355 17.668 14V14.2773C17.03 14.2047 16.3635 14.1474 15.668 14.1035V13C15.668 11.355 14.3129 10 12.668 10ZM12.668 12C13.233 12 13.668 12.435 13.668 13V14H12.668H11.668V13C11.668 12.435 12.1029 12 12.668 12ZM4.66797 13C5.233 13 5.66797 13.435 5.66797 14V14.5684C5.33003 14.6298 4.97666 14.6877 4.66797 14.7578C4.30369 14.8406 3.98907 14.9365 3.66797 15.0312V14C3.66797 13.435 4.10294 13 4.66797 13ZM20.668 13C21.233 13 21.668 13.435 21.668 14V15.0312C21.3469 14.9365 21.0322 14.8406 20.668 14.7578C20.3593 14.6877 20.0059 14.6298 19.668 14.5684V14C19.668 13.435 20.1029 13 20.668 13ZM12.668 16C15.6441 16 18.3412 16.279 20.2246 16.707C21.1663 16.9211 21.9073 17.181 22.3301 17.4082C22.4056 17.4488 22.4094 17.464 22.4629 17.5C22.4094 17.536 22.4056 17.5512 22.3301 17.5918C21.9073 17.819 21.1663 18.0789 20.2246 18.293C18.3412 18.721 15.6441 19 12.668 19C9.69181 19 6.99474 18.721 5.11133 18.293C4.16962 18.0789 3.42868 17.819 3.00586 17.5918C2.93032 17.5512 2.92651 17.536 2.87305 17.5C2.92651 17.464 2.93032 17.4488 3.00586 17.4082C3.42868 17.181 4.16962 16.9211 5.11133 16.707C6.99474 16.279 9.69181 16 12.668 16Z" fill="#F7A7EF"/>
</g>
<defs>
<clipPath id="clip0_4313_4483">
<rect width="24" height="24" fill="white" transform="translate(0.667969)"/>
</clipPath>
</defs>
</svg>
