<svg width="500" height="376" viewBox="0 0 500 376" fill="none" xmlns="http://www.w3.org/2000/svg">
<path d="M179.055 169.156C179.055 169.156 200.692 142.663 238.661 136.038C276.636 129.413 334.867 130.188 382.311 156.2C423.373 178.719 424.555 207.569 424.555 207.569L161.836 200.944L179.055 169.15V169.156Z" fill="#00D972" stroke="black" stroke-width="4.375" stroke-linecap="round" stroke-linejoin="round"/>
<path d="M69.9945 202.05C69.9945 202.05 118.545 150.156 218.351 149.288C294.076 148.625 375.538 191.231 375.538 191.231L69.9883 202.05H69.9945Z" fill="#00D972" stroke="black" stroke-width="4.375" stroke-linecap="round" stroke-linejoin="round"/>
<path d="M64.2177 203.569C64.2177 203.569 78.7864 196.063 134.13 190.913C189.468 185.763 308.393 183.7 359.611 188.556C410.83 193.413 435.999 198.269 442.624 205.775C449.249 213.281 427.168 228.738 401.561 253.019C375.955 277.3 324.293 316.6 277.93 325.875C231.568 335.15 204.636 328.525 192.274 308.212C179.911 287.9 184.961 279.856 185.855 276.925C187.38 271.937 192.036 263.919 191.518 260.831C190.999 257.744 171.574 253.769 154.28 252.444C136.986 251.119 88.0677 238.969 76.1489 233.006C64.2302 227.044 50.3927 210.931 64.2302 203.569H64.2177Z" fill="#00BB6C"/>
<path d="M185.726 293.95C183.613 285.381 185.138 276.55 188.957 268.694" stroke="black" stroke-width="4.375" stroke-linecap="round" stroke-linejoin="round"/>
<path d="M450.913 208.275L441.037 202.975C431.994 198.819 414.581 195.4 400.831 192.275C350.831 186.65 300.831 183.525 250.206 184.775C212.081 186.025 173.956 187.275 135.831 189.775C128.956 190.4 122.081 191.025 114.581 191.65C99.5812 193.525 85.8312 195.4 71.4562 199.775C67.0812 201.65 62.7062 202.9 58.3312 205.4C55.2062 206.65 52.0813 207.275 49.0938 207.788" stroke="black" stroke-width="4.375" stroke-linecap="round" stroke-linejoin="round"/>
<path d="M297.969 170.019C297.969 170.019 306.15 171.325 321.55 175.65" stroke="black" stroke-width="4.375" stroke-linecap="round" stroke-linejoin="round"/>
<path d="M217.469 156.5C217.469 156.5 225.562 156.094 229.612 156.425" stroke="black" stroke-width="4.375" stroke-linecap="round" stroke-linejoin="round"/>
<path d="M235.758 157.012C235.758 157.012 243.414 156.9 245.839 157.125C248.264 157.35 253.602 158.463 253.602 158.463" stroke="black" stroke-width="4.375" stroke-linecap="round" stroke-linejoin="round"/>
<path d="M258.75 327.963C258.75 327.963 300.156 320.85 316.319 311.525" stroke="black" stroke-width="4.375" stroke-linecap="round" stroke-linejoin="round"/>
<path d="M325.078 308.194C325.078 308.194 333.422 303.638 336.184 301.588" stroke="black" stroke-width="4.375" stroke-linecap="round" stroke-linejoin="round"/>
<path d="M62.8672 172.256C65.6109 171.331 68.2984 170.419 70.9422 169.531C71.3422 169.394 71.7734 169.256 72.1734 169.269C72.9172 169.287 73.1422 169.781 73.2547 170.206C75.6609 179.519 79.1984 188.756 83.8297 197.731C80.4234 198.787 76.9359 199.869 73.3609 200.975C73.3609 200.975 67.9297 186.181 66.6422 183.012C65.3609 179.862 62.8734 172.256 62.8734 172.256H62.8672Z" fill="#986C59"/>
<path d="M63.2349 173.612C65.7849 172.75 68.3349 171.887 70.8849 171.025C71.1849 170.925 71.4912 170.806 71.7974 170.725C71.8412 170.712 72.0787 170.694 72.1037 170.662C72.2287 170.544 72.0349 170.75 72.0412 170.631C72.0412 170.544 71.7974 170.212 71.9287 170.712C72.0162 171.037 72.0974 171.362 72.1849 171.687C72.5224 172.95 72.8787 174.2 73.2599 175.45C74.7724 180.456 76.5974 185.356 78.6787 190.15C79.8974 192.956 81.2099 195.712 82.6099 198.431L83.4474 196.369C79.9599 197.45 76.4662 198.531 72.9787 199.612L74.7099 200.594C73.4849 197.262 72.2537 193.925 71.0162 190.6C69.4724 186.462 67.8162 182.362 66.3599 178.194C65.6287 176.094 64.9162 173.987 64.2224 171.875C63.6599 170.162 60.9474 170.894 61.5099 172.625C64.2599 181.012 67.5224 189.206 70.5787 197.481C71.0537 198.769 71.5287 200.056 72.0037 201.344C72.2599 202.037 72.9599 202.569 73.7349 202.325C77.2224 201.244 80.7162 200.162 84.2037 199.081C85.1037 198.8 85.4662 197.837 85.0412 197.019C82.4537 191.994 80.1662 186.819 78.2349 181.506C77.2724 178.85 76.3912 176.169 75.6037 173.456C75.2412 172.212 74.9849 170.912 74.5662 169.687C74.1474 168.462 73.0662 167.737 71.7412 167.894C70.2349 168.075 68.7224 168.8 67.2912 169.281C65.6912 169.819 64.0974 170.362 62.4974 170.9C60.7912 171.475 61.5224 174.194 63.2474 173.612H63.2349Z" fill="black"/>
<path d="M80.9023 167.081C83.5523 166.444 86.1523 165.813 88.7086 165.194C89.0961 165.1 89.5086 165.006 89.8836 165.056C90.5773 165.15 90.7523 165.65 90.8148 166.081C92.2648 175.431 94.7836 184.825 98.3586 194.081C95.0648 194.781 91.6961 195.506 88.2461 196.238C88.2461 196.238 84.4336 181.2 83.5023 177.975C82.5773 174.763 80.9023 167.081 80.9023 167.081Z" fill="#986C59"/>
<path d="M81.2758 168.438C83.7383 167.844 86.1945 167.25 88.657 166.656C88.907 166.594 89.3445 166.588 89.557 166.45C89.5758 166.438 89.682 166.469 89.6945 166.45C89.6758 166.475 89.5195 166.194 89.4195 166.213C89.4258 166.213 89.5883 167.231 89.6258 167.463C89.832 168.719 90.057 169.975 90.2945 171.225C91.257 176.206 92.5133 181.131 94.0383 185.975C94.9383 188.831 95.932 191.656 97.007 194.456L97.9883 192.725C94.6195 193.444 91.2445 194.163 87.8758 194.881L89.607 195.863C88.7445 192.463 87.8758 189.056 86.9945 185.656C85.9133 181.475 84.7195 177.319 83.7195 173.119C83.2133 170.981 82.7258 168.844 82.257 166.7C81.8695 164.931 79.1633 165.681 79.5445 167.45C81.3883 175.906 83.732 184.231 85.8695 192.619C86.207 193.95 86.5508 195.281 86.8883 196.613C87.082 197.381 87.8883 197.75 88.6195 197.594C91.9883 196.875 95.3633 196.156 98.732 195.438C99.4258 195.288 99.9758 194.388 99.7133 193.706C97.6883 188.431 95.957 183.05 94.582 177.569C93.907 174.888 93.3195 172.181 92.8133 169.463C92.5758 168.175 92.4633 166.825 92.1445 165.556C91.8445 164.375 90.8695 163.644 89.6508 163.631C88.9258 163.625 88.1758 163.869 87.4758 164.038C86.7133 164.225 85.9508 164.406 85.182 164.594C83.6258 164.969 82.0758 165.344 80.5195 165.719C78.7633 166.144 79.507 168.856 81.2695 168.431L81.2758 168.438Z" fill="black"/>
<path d="M98.0703 163.375C100.645 162.888 103.177 162.406 105.652 161.938C106.027 161.869 106.433 161.794 106.789 161.869C107.452 162 107.602 162.525 107.652 162.956C108.708 172.488 110.795 182.138 113.895 191.725C110.702 192.244 107.427 192.781 104.07 193.325C104.07 193.325 100.952 177.869 100.17 174.544C99.3891 171.219 98.0703 163.369 98.0703 163.369V163.375Z" fill="#986C59"/>
<path d="M98.4395 164.731C100.921 164.263 103.402 163.794 105.877 163.319C106.002 163.294 106.477 163.225 106.477 163.231C106.477 163.231 106.264 163.094 106.271 163.075C106.327 162.963 106.177 163.194 106.252 163.106C106.108 163.275 106.414 164.463 106.446 164.706C106.608 166.006 106.783 167.3 106.977 168.594C107.733 173.638 108.764 178.644 110.046 183.575C110.789 186.438 111.627 189.281 112.533 192.094L113.514 190.363L103.689 191.963L105.421 192.944C104.714 189.463 104.008 185.981 103.289 182.5C102.396 178.181 101.396 173.881 100.583 169.544C100.177 167.363 99.7895 165.181 99.4207 162.994C99.2957 162.244 98.3707 161.825 97.6895 162.013C96.8957 162.231 96.5832 162.988 96.7082 163.744C98.177 172.431 100.133 181.025 101.889 189.656C102.164 191 102.439 192.344 102.708 193.694C102.871 194.494 103.733 194.794 104.439 194.675C107.714 194.144 110.989 193.606 114.264 193.075C114.996 192.956 115.458 192.006 115.246 191.344C113.514 185.988 112.071 180.544 110.952 175.031C110.402 172.306 109.927 169.569 109.533 166.819C109.339 165.469 109.196 164.119 109.021 162.769C108.871 161.613 108.164 160.681 106.964 160.488C106.202 160.363 105.446 160.55 104.696 160.694C103.946 160.838 103.158 160.988 102.389 161.131C100.821 161.431 99.2582 161.725 97.6895 162.025C96.9457 162.169 96.5207 163.063 96.7082 163.756C96.9207 164.538 97.6895 164.881 98.4395 164.738V164.731Z" fill="black"/>
<path d="M62.8359 183.706L113.405 173.469L114.323 178.531L64.1609 189.406L62.8359 183.706Z" fill="#986C59" stroke="black" stroke-width="3.125" stroke-linecap="round" stroke-linejoin="round"/>
<path d="M380.737 159.537C383.681 159.862 386.575 160.187 389.425 160.5C389.856 160.55 390.319 160.606 390.669 160.781C391.312 161.1 391.237 161.625 391.087 162.037C387.856 171.081 385.656 180.575 384.569 190.362C380.925 189.819 377.2 189.262 373.406 188.7C373.406 188.7 377.175 173.606 377.869 170.337C378.563 167.069 380.737 159.537 380.737 159.537Z" fill="#986C59"/>
<path d="M380.736 160.944C383.386 161.237 386.036 161.531 388.686 161.825C388.955 161.856 389.23 161.875 389.499 161.919C389.605 161.937 389.724 161.975 389.83 161.981C390.105 161.987 390.105 162.244 389.93 161.8C389.736 161.306 389.749 161.625 389.636 161.944C389.524 162.262 389.411 162.587 389.299 162.906C388.886 164.1 388.493 165.3 388.118 166.506C386.586 171.412 385.368 176.412 384.455 181.475C383.924 184.425 383.499 187.394 383.168 190.375L384.949 189.019C381.23 188.462 377.505 187.912 373.786 187.356L374.768 189.087C375.611 185.706 376.449 182.325 377.274 178.937C378.299 174.75 379.199 170.525 380.311 166.356C380.886 164.206 381.48 162.062 382.099 159.925C382.599 158.181 379.886 157.437 379.386 159.175C376.986 167.475 375.13 175.919 373.055 184.3C372.724 185.644 372.386 186.987 372.055 188.331C371.886 189 372.268 189.944 373.036 190.062C376.755 190.619 380.48 191.169 384.199 191.725C385.174 191.869 385.868 191.356 385.98 190.369C386.605 184.812 387.605 179.294 388.968 173.869C389.655 171.125 390.443 168.406 391.318 165.719C391.705 164.531 392.286 163.312 392.536 162.087C392.836 160.637 391.836 159.531 390.455 159.244C388.911 158.925 387.286 158.862 385.724 158.687C384.068 158.506 382.405 158.319 380.749 158.137C379.993 158.056 379.343 158.844 379.343 159.544C379.343 160.375 379.993 160.862 380.749 160.95L380.736 160.944Z" fill="black"/>
<path d="M364.405 157.769C367.349 158.094 370.243 158.419 373.093 158.731C373.524 158.781 373.987 158.837 374.337 159.012C374.98 159.331 374.905 159.856 374.755 160.269C371.524 169.312 369.324 178.806 368.237 188.594C364.593 188.05 360.868 187.494 357.074 186.931C357.074 186.931 360.843 171.837 361.537 168.569C362.224 165.325 364.405 157.769 364.405 157.769Z" fill="#986C59"/>
<path d="M364.404 159.175C367.054 159.469 369.704 159.762 372.354 160.056C372.623 160.087 372.898 160.106 373.167 160.15C373.273 160.169 373.392 160.206 373.498 160.212C373.773 160.219 373.773 160.475 373.598 160.031C373.404 159.537 373.417 159.856 373.304 160.175C373.192 160.494 373.079 160.819 372.967 161.137C372.554 162.331 372.161 163.531 371.786 164.737C370.254 169.644 369.036 174.644 368.123 179.706C367.592 182.656 367.167 185.625 366.836 188.606L368.617 187.25C364.898 186.694 361.173 186.144 357.454 185.587L358.436 187.319C359.279 183.937 360.117 180.556 360.942 177.169C361.967 172.981 362.867 168.756 363.979 164.587C364.554 162.437 365.148 160.294 365.767 158.156C366.267 156.412 363.554 155.669 363.054 157.406C360.654 165.706 358.798 174.15 356.723 182.531C356.392 183.875 356.054 185.219 355.723 186.562C355.554 187.231 355.936 188.175 356.704 188.294C360.423 188.85 364.148 189.4 367.867 189.956C368.842 190.1 369.536 189.587 369.648 188.6C370.273 183.044 371.273 177.525 372.636 172.1C373.323 169.356 374.111 166.637 374.986 163.95C375.373 162.762 375.954 161.544 376.204 160.319C376.504 158.869 375.504 157.762 374.123 157.475C372.579 157.156 370.954 157.094 369.392 156.919C367.736 156.737 366.073 156.55 364.417 156.369C363.661 156.287 363.011 157.075 363.011 157.775C363.011 158.606 363.661 159.094 364.417 159.181L364.404 159.175Z" fill="black"/>
<path d="M397.286 161.444C400.086 161.756 402.842 162.063 405.555 162.363C405.967 162.406 406.405 162.463 406.742 162.631C407.361 162.95 407.286 163.469 407.155 163.881C404.173 172.938 402.173 182.438 401.242 192.231C397.773 191.706 394.23 191.175 390.617 190.631C390.617 190.631 394.048 175.531 394.673 172.256C395.298 168.981 397.292 161.444 397.292 161.444H397.286Z" fill="#986C59"/>
<path d="M397.285 162.85C399.847 163.131 402.41 163.419 404.972 163.7C405.21 163.725 405.447 163.744 405.679 163.781C406.51 163.906 405.51 163.488 405.841 163.369C405.697 163.419 405.429 164.644 405.354 164.881C404.972 166.081 404.61 167.281 404.272 168.488C402.872 173.413 401.766 178.419 400.96 183.475C400.497 186.381 400.122 189.3 399.841 192.231L401.622 190.875C398.078 190.344 394.535 189.806 390.997 189.275L391.978 191.006C392.753 187.588 393.522 184.169 394.285 180.75C395.216 176.556 396.029 172.338 397.047 168.169C397.566 166.05 398.103 163.931 398.66 161.825C399.122 160.075 396.41 159.325 395.947 161.075C393.747 169.4 392.066 177.85 390.178 186.244C389.878 187.581 389.572 188.919 389.272 190.256C389.122 190.931 389.472 191.869 390.253 191.988C393.797 192.519 397.341 193.056 400.878 193.588C401.841 193.731 402.56 193.219 402.66 192.231C403.197 186.681 404.085 181.163 405.329 175.725C405.935 173.075 406.622 170.45 407.397 167.844C407.772 166.575 408.31 165.3 408.585 164.013C408.878 162.656 408.11 161.538 406.804 161.15C405.372 160.725 403.691 160.744 402.21 160.581C400.572 160.4 398.941 160.219 397.304 160.038C396.547 159.956 395.897 160.744 395.897 161.444C395.897 162.275 396.547 162.769 397.304 162.85H397.285Z" fill="black"/>
<path d="M413.948 163.181C416.679 163.487 419.366 163.781 422.004 164.075C422.404 164.119 422.835 164.175 423.16 164.35C423.766 164.675 423.704 165.206 423.573 165.631C420.773 174.944 418.935 184.719 418.129 194.781C414.741 194.269 411.285 193.75 407.754 193.219C407.754 193.219 410.935 177.669 411.51 174.306C412.079 170.969 413.948 163.187 413.948 163.187V163.181Z" fill="#986C59"/>
<path d="M413.947 164.588C416.585 164.881 419.229 165.125 421.854 165.469C421.954 165.481 422.329 165.588 422.397 165.556C422.385 165.563 422.372 165.069 422.235 165.175C422.11 165.269 422.01 165.95 421.966 166.088C421.872 166.413 421.779 166.738 421.685 167.063C421.341 168.269 421.01 169.488 420.697 170.706C419.422 175.681 418.429 180.731 417.716 185.819C417.298 188.8 416.96 191.788 416.722 194.788L418.504 193.431C415.047 192.913 411.585 192.388 408.129 191.869L409.11 193.6C409.822 190.1 410.535 186.606 411.235 183.1C412.091 178.819 412.829 174.513 413.766 170.25C414.254 168.013 414.772 165.788 415.304 163.563C415.722 161.806 413.016 161.056 412.591 162.813C410.535 171.381 408.997 180.056 407.241 188.694C406.96 190.081 406.679 191.463 406.397 192.85C406.26 193.525 406.591 194.463 407.379 194.581C410.835 195.1 414.298 195.625 417.754 196.144C418.704 196.288 419.454 195.775 419.535 194.788C419.985 189.194 420.76 183.638 421.879 178.144C422.441 175.381 423.085 172.631 423.816 169.913C424.166 168.606 424.591 167.319 424.929 166.013C425.266 164.706 424.798 163.488 423.498 162.981C422.798 162.706 422.016 162.681 421.273 162.6C420.485 162.513 419.697 162.425 418.904 162.338C417.254 162.156 415.597 161.969 413.947 161.788C413.191 161.706 412.541 162.494 412.541 163.194C412.541 164.025 413.191 164.513 413.947 164.6V164.588Z" fill="black"/>
<path d="M357.594 168.575L426.387 176.1L425.244 181.181L356.656 172.956L357.594 168.575Z" fill="#986C59" stroke="black" stroke-width="3.125" stroke-linecap="round" stroke-linejoin="round"/>
<path d="M242.927 140.944C242.927 140.944 241.933 147.931 242.32 150.194C242.32 150.194 238.858 150.969 236.102 149.825L237.495 140.919L242.92 140.95L242.927 140.944Z" fill="black" stroke="black" stroke-width="3.125" stroke-linecap="round" stroke-linejoin="round"/>
<path d="M244.545 108.263C242.432 111.156 237.132 116.225 235.595 119.319C236.245 119.406 238.538 119.763 239.195 119.794C237.207 123.519 233.72 127.275 231.132 131.45C232.345 131.55 233.045 131.669 234.257 131.769C232.338 135.531 230.432 139.356 228.707 143.169C236.801 142.363 243.788 142.981 251.851 143.463C251.332 139.513 248.745 135.706 247.063 132C247.776 131.9 249.951 131.731 250.663 131.631C249.026 127.819 246.101 124.025 244.845 120.119C245.807 120.169 248.27 119.906 249.12 119.519C247.576 115.844 246.382 111.844 244.545 108.256V108.263Z" fill="black"/>
<path d="M242.963 107.338C242.9 107.419 242.838 107.506 242.775 107.588C242.982 107.313 242.744 107.625 242.7 107.675C242.532 107.888 242.357 108.1 242.182 108.306C241.819 108.744 241.444 109.169 241.069 109.6C240.188 110.6 239.288 111.588 238.407 112.594C236.825 114.388 235.107 116.25 234.013 118.4C233.544 119.325 233.857 120.925 235.107 121.094C236.463 121.281 237.825 121.556 239.194 121.631L237.613 118.875C235.363 123.038 232.05 126.525 229.55 130.531C228.763 131.8 229.819 133.175 231.132 133.288C232.175 133.375 233.213 133.519 234.257 133.606L232.675 130.85C230.757 134.619 228.875 138.4 227.125 142.25C226.613 143.375 227.182 145.156 228.707 145.006C236.425 144.256 244.132 144.838 251.85 145.3C253.169 145.381 253.775 144.069 253.619 142.981C253.007 138.675 250.432 134.963 248.65 131.081L247.069 133.838C248.263 133.681 249.475 133.625 250.669 133.469C252.125 133.281 252.85 132.075 252.25 130.713C250.594 126.919 247.925 123.588 246.619 119.638L244.85 121.956C245.613 121.981 246.382 121.9 247.132 121.806C247.957 121.7 248.838 121.613 249.613 121.294C250.432 120.95 251.313 120.044 250.894 119.038C249.275 115.15 248.044 111.106 246.138 107.338C245.688 106.456 244.45 106.2 243.632 106.681C242.732 107.206 242.525 108.3 242.975 109.188C244.738 112.669 245.863 116.419 247.363 120.013L248.644 117.756C247.425 118.263 246.207 118.338 244.857 118.294C243.707 118.256 242.719 119.5 243.088 120.613C244.5 124.881 247.3 128.469 249.094 132.563L250.675 129.806C249.482 129.963 248.269 130.019 247.075 130.175C245.638 130.363 244.869 131.575 245.494 132.931C247.15 136.538 249.525 139.944 250.094 143.956L251.863 141.638C244.144 141.175 236.438 140.588 228.719 141.344L230.3 144.1C232.05 140.25 233.932 136.469 235.85 132.7C236.513 131.4 235.682 130.063 234.269 129.944C233.225 129.856 232.188 129.713 231.144 129.625L232.725 132.381C235.225 128.375 238.532 124.888 240.788 120.725C241.469 119.463 240.607 118.044 239.207 117.969C238.969 117.956 238.732 117.931 238.494 117.9C238.35 117.881 238.207 117.863 238.063 117.844C238.394 117.888 237.794 117.806 237.794 117.806C237.225 117.725 236.663 117.638 236.094 117.563L237.188 120.256C238.25 118.169 239.732 116.631 241.307 114.85C242.882 113.069 244.663 111.194 246.132 109.194C246.719 108.394 246.263 107.15 245.475 106.688C244.544 106.144 243.557 106.544 242.969 107.344L242.963 107.338Z" fill="black"/>
<path d="M240.216 116.044L240.385 119.8C240.403 120.281 240.572 120.75 240.922 121.094C241.241 121.413 241.76 121.65 242.216 121.631C242.672 121.613 243.185 121.456 243.51 121.094C243.835 120.731 244.066 120.288 244.047 119.8L243.878 116.044C243.86 115.563 243.691 115.094 243.341 114.75C243.022 114.431 242.503 114.194 242.047 114.213C241.591 114.231 241.078 114.388 240.753 114.75C240.428 115.113 240.197 115.556 240.216 116.044Z" fill="black"/>
<path d="M241.821 125.925C242.177 127.119 242.396 128.344 242.696 129.55C242.808 129.988 243.152 130.419 243.539 130.644C243.927 130.869 244.514 130.969 244.952 130.831C245.914 130.519 246.483 129.575 246.233 128.575C245.933 127.369 245.714 126.144 245.358 124.95C245.227 124.5 244.921 124.094 244.514 123.856C244.108 123.619 243.539 123.531 243.102 123.669C242.664 123.806 242.233 124.088 242.008 124.513C241.783 124.938 241.683 125.444 241.821 125.925Z" fill="black"/>
<path d="M238.737 121.794C237.369 124.194 236.187 126.694 235.162 129.256C235 129.669 235.131 130.3 235.35 130.669C235.569 131.038 236.006 131.413 236.444 131.513C236.912 131.619 237.437 131.594 237.856 131.325C238.275 131.056 238.512 130.7 238.7 130.231C238.762 130.069 238.831 129.906 238.894 129.744C238.912 129.7 239.112 129.206 239 129.481C238.887 129.756 239.094 129.263 239.112 129.219C239.181 129.056 239.25 128.9 239.325 128.738C239.575 128.175 239.831 127.619 240.1 127.063C240.662 125.9 241.262 124.763 241.9 123.644C242.375 122.813 242.125 121.6 241.244 121.138C240.362 120.675 239.244 120.906 238.737 121.794Z" fill="black"/>
<path d="M240.79 131.563C241.727 134.4 242.665 137.244 243.608 140.081C243.908 140.988 244.89 141.675 245.865 141.363C246.771 141.069 247.465 140.081 247.146 139.106C246.208 136.269 245.271 133.425 244.327 130.588C244.027 129.681 243.046 128.994 242.071 129.306C241.165 129.6 240.471 130.588 240.79 131.563Z" fill="black"/>
<path d="M235.933 133.306C235.852 133.606 235.758 133.906 235.658 134.2C235.608 134.35 235.552 134.494 235.489 134.644C235.458 134.719 235.433 134.794 235.402 134.863C235.327 135.044 235.339 135.013 235.452 134.756C235.464 134.863 235.302 135.1 235.264 135.194C235.202 135.338 235.133 135.488 235.07 135.631C234.939 135.925 234.808 136.213 234.683 136.506C234.077 137.894 233.589 139.244 233.458 140.763C233.377 141.719 234.358 142.638 235.289 142.594C236.352 142.544 237.039 141.788 237.12 140.763C237.12 140.688 237.133 140.613 237.139 140.538C237.095 140.838 237.089 140.888 237.12 140.688C237.152 140.538 237.177 140.388 237.208 140.238C237.277 139.938 237.364 139.638 237.464 139.35C237.552 139.088 237.645 138.831 237.752 138.581C237.783 138.506 237.808 138.438 237.839 138.363C237.733 138.619 237.714 138.656 237.795 138.469C237.858 138.325 237.92 138.175 237.989 138.031C238.533 136.806 239.127 135.581 239.477 134.281C239.72 133.356 239.164 132.25 238.195 132.025C237.227 131.8 236.202 132.313 235.939 133.306H235.933Z" fill="black"/>
<path d="M205.476 139.825C205.476 139.825 205.07 146.875 205.651 149.094C205.651 149.094 202.27 150.156 199.426 149.244L200.07 140.25L205.482 139.825H205.476Z" fill="black" stroke="black" stroke-width="3.125" stroke-linecap="round" stroke-linejoin="round"/>
<path d="M204.35 107.125C202.487 110.188 197.631 115.681 196.362 118.894C197.019 118.925 199.331 119.094 199.994 119.063C198.325 122.938 195.163 126.975 192.938 131.356C194.156 131.356 194.863 131.419 196.075 131.413C194.481 135.319 192.9 139.294 191.5 143.238C199.5 141.756 206.513 141.788 214.588 141.594C213.744 137.7 210.844 134.125 208.856 130.575C209.556 130.419 211.712 130.069 212.412 129.906C210.462 126.25 207.231 122.713 205.65 118.919C206.613 118.888 209.044 118.419 209.863 117.963C208.013 114.431 206.488 110.544 204.363 107.125H204.35Z" fill="black"/>
<path d="M202.769 106.2C200.213 110.356 196.45 113.838 194.594 118.406C194.119 119.575 195.3 120.675 196.363 120.725C197.569 120.788 198.781 120.931 199.994 120.894L198.413 118.138C196.519 122.475 193.513 126.225 191.356 130.431C190.731 131.65 191.494 133.188 192.938 133.188C193.981 133.188 195.031 133.244 196.075 133.244L194.306 130.925C192.713 134.838 191.15 138.769 189.731 142.75C189.219 144.181 190.731 145.238 191.988 145.006C199.45 143.638 207.025 143.606 214.588 143.425C215.813 143.394 216.625 142.281 216.356 141.106C215.381 136.844 212.55 133.375 210.444 129.65L209.35 132.344C210.531 132.088 211.725 131.931 212.906 131.675C214.088 131.419 214.538 129.969 214 128.981C211.95 125.194 208.938 121.975 207.238 117.994L205.656 120.75C207.35 120.663 209.275 120.331 210.794 119.544C211.7 119.069 211.888 117.881 211.45 117.038C209.581 113.444 208.081 109.656 205.95 106.2C204.713 104.194 201.544 106.038 202.781 108.05C204.913 111.506 206.413 115.294 208.281 118.888L208.938 116.381C208.575 116.569 209.331 116.281 208.844 116.425C208.7 116.469 208.556 116.519 208.413 116.563C208.05 116.669 207.688 116.756 207.319 116.838C206.981 116.913 206.638 116.969 206.3 117.025C205.694 117.131 206.613 117.006 206.069 117.056C205.925 117.069 205.788 117.081 205.644 117.088C204.144 117.163 203.513 118.563 204.063 119.844C205.763 123.825 208.775 127.044 210.825 130.831L211.919 128.138C210.738 128.394 209.544 128.55 208.363 128.806C207.181 129.063 206.713 130.519 207.269 131.5C209.213 134.944 211.913 138.156 212.813 142.081L214.581 139.763C206.688 139.95 198.806 140.044 191.006 141.475L193.263 143.731C194.688 139.75 196.244 135.819 197.838 131.906C198.3 130.775 197.144 129.588 196.069 129.588C194.994 129.588 193.975 129.531 192.931 129.531L194.513 132.288C196.669 128.081 199.675 124.331 201.569 119.994C202.094 118.794 201.506 117.194 199.988 117.238C198.781 117.269 197.563 117.131 196.356 117.069L198.125 119.388C197.975 119.756 198.231 119.169 198.3 119.038C198.406 118.831 198.519 118.625 198.631 118.425C198.919 117.919 199.231 117.419 199.55 116.931C200.256 115.856 201.019 114.819 201.781 113.794C203.188 111.906 204.694 110.063 205.931 108.056C207.169 106.05 204 104.2 202.763 106.206L202.769 106.2Z" fill="black"/>
<path d="M200.676 115.087L201.158 118.812C201.145 119.062 201.201 119.3 201.314 119.519C201.389 119.744 201.514 119.944 201.695 120.106C202.014 120.425 202.533 120.662 202.989 120.644C203.445 120.625 203.958 120.469 204.283 120.106C204.589 119.775 204.883 119.281 204.82 118.812L204.339 115.087C204.351 114.837 204.295 114.6 204.183 114.381C204.108 114.156 203.983 113.956 203.801 113.794C203.483 113.475 202.964 113.237 202.508 113.256C202.051 113.275 201.539 113.431 201.214 113.794C200.908 114.125 200.614 114.619 200.676 115.087Z" fill="black"/>
<path d="M203.069 124.8C203.525 125.962 203.844 127.162 204.244 128.337C204.4 128.794 204.663 129.187 205.088 129.431C205.482 129.662 206.063 129.756 206.5 129.619C206.938 129.481 207.369 129.2 207.594 128.775C207.819 128.35 207.938 127.831 207.782 127.362C207.382 126.187 207.063 124.981 206.607 123.825C206.55 123.587 206.438 123.381 206.282 123.2C206.15 123 205.982 122.844 205.769 122.725C205.375 122.494 204.794 122.4 204.357 122.537C203.919 122.675 203.488 122.956 203.263 123.381C203.038 123.806 202.9 124.344 203.075 124.794L203.069 124.8Z" fill="black"/>
<path d="M199.762 120.962C198.6 123.469 197.594 126.044 196.787 128.687C196.506 129.606 197.119 130.725 198.069 130.944C199.019 131.162 200.025 130.644 200.325 129.662C200.694 128.45 201.106 127.244 201.556 126.062C201.662 125.781 201.775 125.5 201.887 125.219C201.956 125.044 202.025 124.875 202.1 124.7C202.137 124.606 202.306 124.2 202.131 124.619C202.381 124.012 202.656 123.412 202.931 122.819C203.144 122.362 203.256 121.912 203.119 121.406C203 120.981 202.675 120.519 202.275 120.312C201.469 119.887 200.2 120.044 199.769 120.969L199.762 120.962Z" fill="black"/>
<path d="M202.691 130.95C203.866 133.7 205.041 136.45 206.21 139.2C206.379 139.594 206.916 139.938 207.304 140.044C207.741 140.163 208.329 140.113 208.716 139.856C209.635 139.263 209.779 138.294 209.373 137.35C208.198 134.6 207.023 131.85 205.854 129.1C205.685 128.706 205.148 128.363 204.76 128.256C204.323 128.138 203.735 128.188 203.348 128.444C202.429 129.038 202.285 130.006 202.691 130.95Z" fill="black"/>
<path d="M197.895 132.65C197.427 135.25 196.008 137.588 196.008 140.288C196.008 141.244 196.852 142.163 197.839 142.119C198.827 142.075 199.67 141.313 199.67 140.288C199.67 140.125 199.67 139.963 199.683 139.8C199.683 139.719 199.695 139.638 199.702 139.556C199.72 139.394 199.72 139.394 199.702 139.556C199.683 139.719 199.677 139.719 199.702 139.556C199.714 139.475 199.733 139.394 199.745 139.313C199.777 139.15 199.814 138.988 199.852 138.831C199.995 138.256 200.177 137.7 200.37 137.138C200.77 135.981 201.208 134.831 201.427 133.619C201.514 133.125 201.502 132.656 201.239 132.206C201.014 131.825 200.583 131.463 200.145 131.363C199.252 131.156 198.07 131.631 197.889 132.644L197.895 132.65Z" fill="black"/>
<path d="M121.248 163.2C121.248 163.2 121.667 170.244 122.505 172.387C122.505 172.387 119.267 173.837 116.336 173.262L115.93 164.256L121.255 163.2H121.248Z" fill="black" stroke="black" stroke-width="3.125" stroke-linecap="round" stroke-linejoin="round"/>
<path d="M116.326 130.856C114.832 134.112 110.651 140.137 109.763 143.475C110.413 143.431 112.732 143.325 113.388 143.219C112.182 147.262 109.513 151.637 107.813 156.25C109.02 156.106 109.732 156.087 110.938 155.937C109.807 160.006 108.707 164.137 107.77 168.212C115.538 165.806 122.507 165.019 130.507 163.887C129.213 160.119 125.92 156.906 123.532 153.612C124.207 153.375 126.307 152.775 126.988 152.537C124.62 149.131 121.007 145.994 118.988 142.412C119.938 142.269 122.301 141.525 123.057 140.969C120.813 137.675 118.845 133.994 116.332 130.844L116.326 130.856Z" fill="black"/>
<path d="M114.744 129.931C113.719 132.137 112.388 134.206 111.176 136.312C109.963 138.419 108.644 140.625 107.994 142.994C107.694 144.081 108.563 145.394 109.763 145.312C111.138 145.225 112.513 145.194 113.876 144.994L111.619 142.737C110.244 147.262 107.694 151.344 106.044 155.769C105.657 156.806 106.682 158.219 107.813 158.087C108.851 157.969 109.901 157.9 110.938 157.775L109.169 155.456C108.038 159.531 106.951 163.612 106.001 167.731C105.701 169.044 106.863 170.412 108.257 169.987C115.669 167.712 123.338 166.744 130.994 165.662C131.932 165.531 132.576 164.25 132.276 163.406C130.801 159.256 127.663 156.181 125.113 152.694L124.019 155.387C125.163 154.994 126.332 154.7 127.476 154.312C128.507 153.956 129.294 152.65 128.569 151.619C126.094 148.1 122.719 145.244 120.569 141.494L119.476 144.187C120.963 143.937 122.726 143.412 123.982 142.562C124.757 142.037 125.226 140.919 124.638 140.056C122.276 136.569 120.244 132.875 117.626 129.562C117.013 128.787 115.676 128.919 115.032 129.562C114.263 130.331 114.413 131.375 115.032 132.156C117.451 135.212 119.288 138.687 121.469 141.906L122.126 139.4C121.176 140.044 119.813 140.431 118.494 140.656C117.301 140.856 116.863 142.412 117.401 143.35C119.557 147.112 122.919 149.95 125.401 153.475L126.494 150.781C125.351 151.175 124.182 151.469 123.038 151.856C122.026 152.206 121.201 153.531 121.944 154.55C124.251 157.706 127.401 160.637 128.738 164.387L130.019 162.131C122.363 163.212 114.694 164.181 107.282 166.456L109.538 168.713C110.488 164.594 111.576 160.506 112.707 156.437C112.994 155.4 112.144 153.975 110.938 154.119C109.901 154.237 108.851 154.306 107.813 154.431L109.582 156.75C111.232 152.319 113.776 148.25 115.157 143.719C115.607 142.244 114.201 141.275 112.901 141.462C113.576 141.362 112.669 141.475 112.507 141.487C112.163 141.512 111.819 141.537 111.476 141.556C110.907 141.587 110.332 141.619 109.763 141.656L111.532 143.975C111.844 142.844 112.082 142.394 112.607 141.35C113.182 140.2 113.819 139.081 114.457 137.969C115.632 135.931 116.913 133.925 117.907 131.787C118.326 130.887 118.157 129.812 117.251 129.281C116.457 128.819 115.163 129.037 114.744 129.937V129.931Z" fill="black"/>
<path d="M113.653 139.462C113.959 140.675 114.259 141.894 114.565 143.106C114.678 143.55 115.021 143.975 115.409 144.2C115.796 144.425 116.384 144.525 116.821 144.387C117.784 144.075 118.353 143.131 118.103 142.131C117.796 140.919 117.496 139.7 117.19 138.487C117.078 138.044 116.734 137.619 116.346 137.394C115.959 137.169 115.371 137.069 114.934 137.206C113.971 137.519 113.403 138.462 113.653 139.462Z" fill="black"/>
<path d="M117.227 148.8C117.815 149.9 118.271 151.056 118.809 152.181C118.996 152.575 119.496 152.912 119.902 153.025C120.34 153.144 120.927 153.094 121.315 152.837C121.702 152.581 122.052 152.212 122.159 151.744L122.221 151.256C122.221 150.925 122.134 150.619 121.971 150.331C121.434 149.206 120.977 148.05 120.39 146.95C120.177 146.556 119.721 146.225 119.296 146.106C118.871 145.987 118.271 146.037 117.884 146.294C117.496 146.55 117.146 146.919 117.04 147.387C116.927 147.881 116.984 148.35 117.227 148.8Z" fill="black"/>
<path d="M113.297 145.375C112.484 147.85 111.841 150.375 111.372 152.937C111.203 153.875 111.628 154.956 112.653 155.194C113.547 155.4 114.728 154.925 114.909 153.912C115.372 151.35 116.022 148.825 116.834 146.35C117.134 145.437 116.484 144.306 115.553 144.094C114.547 143.862 113.616 144.4 113.297 145.375Z" fill="black"/>
<path d="M117.343 154.531C118.83 157.125 120.318 159.725 121.799 162.319C122.274 163.15 123.48 163.512 124.305 162.975C125.13 162.437 125.474 161.356 124.962 160.469C123.474 157.875 121.987 155.275 120.505 152.681C120.03 151.85 118.824 151.487 117.999 152.025C117.174 152.562 116.83 153.644 117.343 154.531Z" fill="black"/>
<path d="M112.866 157.237C112.854 157.406 112.841 157.581 112.822 157.75C112.791 158.162 112.885 157.4 112.822 157.775C112.772 158.075 112.722 158.381 112.66 158.681C112.535 159.306 112.385 159.931 112.247 160.556C111.972 161.856 111.729 163.219 111.885 164.55C111.941 165.05 112.047 165.475 112.422 165.844C112.741 166.162 113.26 166.4 113.716 166.381C114.616 166.344 115.666 165.569 115.547 164.55C115.479 163.956 115.504 163.375 115.547 162.781C115.572 162.575 115.566 162.612 115.529 162.887C115.541 162.8 115.554 162.719 115.566 162.631C115.585 162.5 115.61 162.375 115.635 162.244C115.697 161.919 115.76 161.6 115.835 161.275C116.129 159.937 116.441 158.606 116.522 157.237C116.579 156.281 115.635 155.362 114.691 155.406C113.647 155.45 112.922 156.212 112.86 157.237H112.866Z" fill="black"/>
<path d="M213.711 137.813C213.711 137.813 212.823 146.731 211.648 149.169C211.648 149.169 217.042 150.944 221.336 149.988L221.605 138.419L213.711 137.813Z" fill="#9C8040" stroke="black" stroke-width="3.125" stroke-linecap="round" stroke-linejoin="round"/>
<path d="M224.151 91.275C226.92 96.0438 231.251 103.619 232.926 108.519C231.782 108.519 230.626 108.475 229.476 108.388C231.738 114.3 233.663 120.663 236.788 127.3C234.676 127.231 233.438 127.288 231.32 127.225C233.445 133.119 235.513 139.094 237.282 144.988C223.582 142.513 213.726 142.65 199.27 142.069C201.457 136.206 204.688 130.556 208.857 125.288C207.632 125.013 206.401 124.738 205.17 124.456C209.295 119.031 213.095 113.506 216.557 107.894C214.845 107.775 213.157 107.294 211.77 106.538C215.67 101.338 219.795 96.2438 224.145 91.2813L224.151 91.275Z" fill="#128740"/>
<path d="M222.57 92.2C224.195 94.9938 225.795 97.8063 227.308 100.663C228.82 103.519 230.17 106.156 231.158 109.006L232.926 106.688C231.776 106.688 230.626 106.638 229.476 106.556C228.326 106.475 227.301 107.806 227.708 108.875C230.176 115.344 232.264 121.944 235.208 128.225L236.789 125.469C234.964 125.413 233.139 125.444 231.32 125.394C230.195 125.363 229.151 126.6 229.551 127.713C231.664 133.588 233.714 139.494 235.514 145.475L237.77 143.219C228.039 141.469 218.233 140.881 208.364 140.556C205.333 140.456 202.301 140.356 199.27 140.238L201.039 142.556C203.201 136.806 206.351 131.406 210.158 126.588C210.951 125.581 210.826 123.856 209.351 123.525C208.12 123.25 206.889 122.975 205.664 122.694L206.758 125.388C210.814 120.05 214.62 114.525 218.145 108.825C218.926 107.556 217.883 106.175 216.564 106.069C215.245 105.963 213.895 105.594 212.701 104.963L213.358 107.469C217.195 102.356 221.239 97.3938 225.445 92.5813C226.095 91.8375 226.176 90.7188 225.445 89.9875C224.783 89.325 223.508 89.2375 222.851 89.9875C218.439 95.0375 214.214 100.25 210.189 105.619C209.614 106.388 210.045 107.706 210.845 108.125C212.639 109.069 214.545 109.563 216.558 109.731L214.976 106.975C211.451 112.681 207.645 118.2 203.589 123.538C202.883 124.469 203.626 125.994 204.683 126.231C205.914 126.506 207.145 126.781 208.37 127.063L207.564 124C203.345 129.35 199.908 135.2 197.508 141.588C197.07 142.756 198.183 143.863 199.276 143.906C209.008 144.294 218.77 144.363 228.458 145.506C231.251 145.838 234.033 146.263 236.801 146.763C238.114 147 239.489 145.95 239.058 144.506C237.258 138.525 235.208 132.625 233.095 126.744L231.326 129.063C233.151 129.119 234.976 129.088 236.795 129.138C238.289 129.181 238.939 127.575 238.376 126.381C235.57 120.388 233.601 114.075 231.245 107.906L229.476 110.225C230.626 110.313 231.776 110.356 232.926 110.356C234.076 110.356 235.089 109.175 234.695 108.038C232.539 101.819 229.026 96.0313 225.733 90.3563C224.551 88.3188 221.376 90.1625 222.564 92.2063L222.57 92.2Z" fill="black"/>
<path d="M221.004 101.863L219.522 107.438C219.279 108.363 219.829 109.469 220.804 109.694C221.779 109.919 222.797 109.406 223.06 108.413C223.554 106.556 224.047 104.694 224.541 102.838C224.785 101.913 224.235 100.806 223.26 100.581C222.285 100.356 221.266 100.869 221.004 101.863Z" fill="black"/>
<path d="M214.044 116.788C213.094 118.4 211.806 119.775 210.931 121.438C210.706 121.869 210.612 122.369 210.744 122.85C210.862 123.275 211.187 123.737 211.587 123.944C212.431 124.394 213.619 124.194 214.094 123.288C214.969 121.625 216.256 120.25 217.206 118.638C217.694 117.813 217.419 116.594 216.55 116.131C215.681 115.669 214.562 115.906 214.044 116.788Z" fill="black"/>
<path d="M222.09 113.575C223.484 116.869 224.715 120.619 225.59 124.225C225.815 125.156 226.921 125.806 227.846 125.506C228.815 125.194 229.371 124.25 229.128 123.25C228.171 119.3 226.84 115.469 225.259 111.725C224.884 110.838 223.509 110.581 222.753 111.069C221.828 111.663 221.696 112.625 222.096 113.575H222.09Z" fill="black"/>
<path d="M215.528 123.775C212.971 127.863 210.415 131.95 207.859 136.038C207.334 136.875 207.678 138.056 208.515 138.544C209.396 139.056 210.496 138.725 211.021 137.888C213.578 133.8 216.134 129.713 218.69 125.625C219.215 124.788 218.871 123.606 218.034 123.119C217.153 122.606 216.053 122.938 215.528 123.775Z" fill="black"/>
<path d="M222.909 129.619C223.103 131.581 223.659 133.431 224.209 135.319C224.459 136.188 224.703 137.063 224.859 137.956C224.878 138.075 224.903 138.2 224.915 138.319C224.89 138.138 224.89 138.156 224.915 138.375C224.928 138.556 224.947 138.738 224.953 138.919C224.978 139.406 224.953 139.888 224.903 140.375C224.797 141.331 225.822 142.25 226.734 142.206C227.822 142.156 228.453 141.4 228.565 140.375C228.784 138.469 228.359 136.531 227.84 134.706C227.59 133.825 227.315 132.944 227.072 132.063C226.959 131.638 226.847 131.213 226.759 130.781C226.709 130.538 226.665 130.294 226.622 130.05C226.59 129.825 226.584 129.806 226.609 129.988C226.597 129.863 226.584 129.744 226.572 129.619C226.478 128.669 225.797 127.738 224.74 127.788C223.828 127.831 222.809 128.6 222.909 129.619Z" fill="black"/>
<path d="M401.141 228.481C401.322 227.394 401.579 226.313 401.91 225.263C402.079 224.738 402.26 224.213 402.466 223.7C402.491 223.631 402.597 223.444 402.597 223.369C402.51 223.575 402.504 223.594 402.572 223.431C402.604 223.356 402.635 223.288 402.666 223.213C402.779 222.963 402.897 222.713 403.016 222.463C403.385 221.7 403.247 220.669 402.435 220.237C401.704 219.85 400.61 220.006 400.21 220.819C399.166 222.975 398.397 225.25 398.004 227.613C397.929 228.056 397.935 228.463 398.166 228.863C398.366 229.2 398.747 229.519 399.135 229.606C399.922 229.788 400.985 229.369 401.135 228.469L401.141 228.481Z" fill="black"/>
<path d="M404.669 229.95C404.75 229.819 404.837 229.694 404.931 229.575L404.675 229.906C404.912 229.6 405.187 229.325 405.494 229.087L405.162 229.344C405.419 229.144 405.7 228.975 405.994 228.837C406.181 228.737 406.337 228.594 406.45 228.419C406.594 228.263 406.687 228.075 406.744 227.869C406.812 227.65 406.819 227.437 406.775 227.219C406.762 227 406.7 226.8 406.581 226.612C406.356 226.269 406.025 225.962 405.612 225.869L405.181 225.812C404.887 225.812 404.612 225.888 404.362 226.031C403.85 226.275 403.381 226.619 402.956 227C402.531 227.381 402.169 227.838 401.869 228.312C401.75 228.5 401.687 228.7 401.675 228.919C401.625 229.138 401.637 229.35 401.706 229.569C401.756 229.781 401.856 229.963 402 230.119C402.112 230.294 402.269 230.437 402.456 230.537C402.831 230.737 403.287 230.838 403.706 230.7C404.125 230.563 404.444 230.325 404.675 229.956L404.669 229.95Z" fill="black"/>
<path d="M395.403 228.525C395.278 226.956 394.822 225.438 393.972 224.106C393.747 223.756 393.41 223.475 393.003 223.363C392.597 223.25 392.097 223.306 391.753 223.525C391.41 223.744 391.103 224.081 391.01 224.494C390.916 224.906 390.935 225.375 391.172 225.744C391.41 226.113 391.616 226.506 391.785 226.906L391.622 226.519C391.891 227.156 392.072 227.825 392.172 228.513L392.116 228.081C392.135 228.225 392.153 228.375 392.16 228.519C392.197 228.956 392.316 229.35 392.635 229.669C392.916 229.95 393.378 230.163 393.785 230.144C394.191 230.125 394.641 229.988 394.935 229.669C395.228 229.35 395.447 228.944 395.41 228.519L395.403 228.525Z" fill="black"/>
<path d="M216.579 291.006C216.76 289.919 217.016 288.838 217.347 287.788C217.516 287.263 217.697 286.738 217.904 286.225C217.929 286.156 218.035 285.969 218.035 285.894C217.947 286.1 217.941 286.119 218.01 285.956C218.041 285.881 218.072 285.813 218.104 285.738C218.216 285.488 218.335 285.238 218.454 284.988C218.822 284.225 218.685 283.194 217.872 282.763C217.141 282.375 216.047 282.531 215.647 283.344C214.604 285.5 213.835 287.775 213.441 290.138C213.366 290.581 213.372 290.988 213.604 291.388C213.804 291.725 214.185 292.044 214.572 292.131C215.36 292.313 216.422 291.894 216.572 290.994L216.579 291.006Z" fill="black"/>
<path d="M220.098 292.475C220.18 292.344 220.267 292.219 220.361 292.1L220.105 292.431C220.342 292.125 220.617 291.85 220.923 291.613L220.592 291.869C220.848 291.669 221.13 291.5 221.423 291.363C221.611 291.263 221.767 291.119 221.88 290.944C222.023 290.788 222.117 290.6 222.173 290.394C222.242 290.175 222.248 289.963 222.205 289.744C222.192 289.525 222.13 289.325 222.011 289.138C221.786 288.794 221.455 288.488 221.042 288.394L220.611 288.338C220.317 288.338 220.042 288.413 219.792 288.556C219.28 288.8 218.811 289.144 218.386 289.525C217.961 289.906 217.598 290.363 217.298 290.838C217.18 291.025 217.117 291.225 217.105 291.444C217.055 291.663 217.067 291.875 217.136 292.094C217.186 292.306 217.286 292.488 217.43 292.644C217.542 292.819 217.698 292.963 217.886 293.063C218.261 293.263 218.717 293.363 219.136 293.225C219.555 293.088 219.873 292.85 220.105 292.481L220.098 292.475Z" fill="black"/>
<path d="M210.837 291.05C210.712 289.481 210.256 287.963 209.406 286.631C209.181 286.281 208.843 286 208.437 285.888C208.031 285.775 207.531 285.831 207.187 286.05C206.843 286.269 206.537 286.606 206.443 287.019C206.349 287.431 206.368 287.9 206.606 288.269C206.843 288.638 207.049 289.031 207.218 289.431L207.056 289.044C207.324 289.681 207.506 290.35 207.606 291.038L207.549 290.606C207.568 290.75 207.587 290.9 207.593 291.044C207.631 291.481 207.749 291.875 208.068 292.194C208.349 292.475 208.812 292.688 209.218 292.669C209.624 292.65 210.074 292.513 210.368 292.194C210.662 291.875 210.881 291.469 210.843 291.044L210.837 291.05Z" fill="black"/>
<path d="M355.936 181.137C359.817 182.669 364.292 182.644 368.161 181.069C372.03 179.494 375.242 176.381 376.949 172.569C377.174 172.062 377.38 171.494 377.224 170.956C376.949 170 373.592 168.631 371.13 168.594C367.592 168.544 367.193 168.856 363.611 170.537C360.03 172.219 354.067 178.1 355.936 181.131" fill="#BED93D"/>
<path d="M355.444 182.944C360.269 184.8 365.812 184.462 370.4 182.094C372.35 181.087 374.143 179.681 375.593 178.044C376.375 177.162 377.093 176.206 377.7 175.194C378.306 174.181 378.981 172.969 379.119 171.756C379.406 169.256 376.962 168.119 374.981 167.437C373 166.756 370.775 166.575 368.662 166.8C366.681 167.019 364.981 167.837 363.193 168.675C361.562 169.444 360.106 170.45 358.743 171.631C356.093 173.931 352.15 178.319 354.318 182.081C355.525 184.169 358.769 182.281 357.556 180.187C357.469 180.031 357.437 179.756 357.525 180.169C357.5 180.044 357.462 179.919 357.431 179.794C357.55 180.287 357.431 179.906 357.462 179.762C357.481 179.662 357.562 179.219 357.45 179.706C357.506 179.462 357.562 179.219 357.643 178.981C357.662 178.925 357.875 178.456 357.693 178.825C357.793 178.619 357.893 178.412 358.006 178.212C358.3 177.687 358.787 176.994 358.993 176.737C359.506 176.112 360.062 175.525 360.644 174.969C362.581 173.125 365.356 171.481 367.812 170.75C368.118 170.662 368.431 170.594 368.743 170.537C368.3 170.619 368.869 170.525 368.925 170.519C369.112 170.5 369.306 170.494 369.493 170.481C370.281 170.444 371.331 170.431 371.956 170.531C372.787 170.656 373.619 170.894 374.394 171.2C374.594 171.275 374.768 171.356 375.062 171.519C375.218 171.6 375.362 171.7 375.518 171.787C375.7 171.912 375.693 171.906 375.5 171.762C375.562 171.819 375.625 171.875 375.681 171.937C375.644 171.875 375.231 171.35 375.412 171.269C375.431 171.262 375.293 171.656 375.268 171.725C375.106 172.125 374.893 172.512 374.681 172.881C374.256 173.637 373.775 174.375 373.231 175.025C372.106 176.369 370.812 177.5 369.312 178.387C365.419 180.694 360.65 180.944 356.418 179.319C355.475 178.956 354.362 179.719 354.112 180.631C353.818 181.687 354.475 182.575 355.425 182.937L355.444 182.944Z" fill="black"/>
<path d="M346.729 177.406C342.611 176.731 338.779 174.413 336.273 171.075C333.761 167.738 332.598 163.419 333.092 159.269C333.154 158.719 333.273 158.125 333.679 157.744C334.411 157.063 337.992 157.613 340.123 158.844C343.186 160.613 343.367 161.088 345.579 164.369C347.792 167.65 349.892 175.756 346.736 177.4" fill="#BED93D"/>
<path d="M347.229 175.6C343.491 174.956 340.01 172.994 337.735 169.919C336.529 168.294 335.697 166.438 335.235 164.475C335.01 163.531 334.885 162.588 334.86 161.619C334.847 161.288 335.022 159.088 335.004 159.075C335.172 159.156 334.16 159.475 334.616 159.35C335.016 159.238 334.179 159.338 334.654 159.338C334.935 159.338 335.216 159.331 335.497 159.35C335.916 159.381 335.866 159.375 336.391 159.488C336.916 159.6 337.385 159.725 337.872 159.888C338.591 160.131 339.204 160.469 339.941 160.919C340.26 161.113 340.572 161.306 340.872 161.519C340.872 161.519 341.297 161.825 341.066 161.656C340.872 161.513 341.297 161.85 341.335 161.881C341.547 162.069 341.747 162.263 341.935 162.475C342.035 162.581 342.122 162.694 342.216 162.8C342.547 163.169 341.997 162.481 342.304 162.906C342.822 163.625 343.316 164.363 343.81 165.1C344.154 165.606 344.46 166.131 344.735 166.675C345.11 167.431 345.21 167.688 345.516 168.6C346.085 170.281 346.429 171.844 346.46 173.331C346.466 173.725 346.447 174.119 346.416 174.513C346.46 174.056 346.41 174.556 346.385 174.631C346.341 174.819 346.266 175.013 346.235 175.2C346.166 175.613 346.429 174.925 346.216 175.263C346.122 175.413 346.047 175.563 345.947 175.713C346.21 175.313 346.01 175.625 345.91 175.713C345.672 175.913 346.235 175.525 345.779 175.781C343.666 176.956 345.56 180.194 347.672 179.019C351.047 177.144 350.379 172.188 349.579 169.094C349.122 167.331 348.466 165.563 347.547 163.988C346.629 162.413 345.616 160.863 344.391 159.606C343.085 158.263 341.304 157.225 339.579 156.525C337.854 155.825 335.497 155.206 333.61 155.719C330.922 156.444 330.979 160.025 331.135 162.256C331.316 164.9 332.029 167.463 333.254 169.806C335.822 174.706 340.779 178.263 346.222 179.2C347.216 179.369 348.241 178.931 348.529 177.888C348.779 176.988 348.222 175.756 347.216 175.581L347.229 175.6Z" fill="black"/>
<path d="M371.982 203.194C371.982 203.194 370.226 199.431 365.626 201.631C364.388 202.225 363.469 203.3 363.469 203.3C363.469 203.3 360.344 200.662 356.194 200.769C352.819 200.856 346.713 205.619 346.713 205.619C346.713 205.619 346.607 200.769 343.157 200.556C339.707 200.344 336.907 199.481 332.813 203.087C328.719 206.694 329.476 208.475 344.557 209.712C359.638 210.95 366.751 209.712 369.551 207.019C372.351 204.325 371.976 203.194 371.976 203.194H371.982Z" fill="#018D52"/>
<path d="M332.551 203.381C332.551 203.381 337.238 199.5 341.438 200.794C345.638 202.088 348.001 202.063 348.001 202.063C348.001 202.063 349.52 202.731 353.238 201.925C356.957 201.119 362.263 200.844 366.701 202.65" stroke="black" stroke-width="3.75" stroke-linecap="round" stroke-linejoin="round"/>
<path d="M349.208 169.963C346.771 173.819 345.639 178.581 346.152 183.119C346.427 185.538 347.033 187.906 348.639 189.806C350.133 191.569 352.752 192.644 355.002 191.8C357.252 190.956 358.189 188.381 357.302 186.15C356.414 183.919 354.383 182.669 352.058 182.506C349.971 182.356 347.802 183.294 346.377 184.794C344.764 186.481 343.952 188.7 343.658 190.981C343.308 193.688 343.833 196.425 344.552 199.031C344.914 200.35 345.164 201.9 346.296 202.794C346.739 203.144 347.227 203.356 347.758 203.544C348.289 203.731 348.458 203.763 348.827 204C349.677 204.55 350.896 204.175 351.389 203.325C351.921 202.413 351.571 201.313 350.714 200.763C350.108 200.369 349.427 200.156 348.752 199.925C348.433 199.813 349.152 200.063 348.646 199.881C348.352 199.775 348.539 199.831 348.633 199.881C348.796 199.963 348.708 200.188 348.708 199.906C348.708 199.6 348.496 199.194 348.408 198.9C347.902 197.15 347.408 195.363 347.302 193.538C347.152 190.956 347.871 187.513 350.314 186.525C350.964 186.263 351.339 186.225 351.946 186.25C352.283 186.263 352.877 186.438 353.177 186.656C353.658 187.013 353.771 187.263 353.883 187.738C353.996 188.213 353.946 187.575 353.908 188.044C353.921 187.881 353.871 187.931 353.896 188.125C353.933 188.456 353.783 188.306 353.864 188.213C354.002 188.038 353.896 188.225 353.783 188.269C353.614 188.331 353.483 188.369 353.164 188.338C353.089 188.331 352.664 188.213 352.527 188.156C351.908 187.881 351.421 187.375 351.064 186.819C350.258 185.538 349.958 183.956 349.846 182.469C349.558 178.731 350.452 175.031 352.452 171.863C353.746 169.819 350.502 167.931 349.214 169.969L349.208 169.963Z" fill="black"/>
<path d="M369.717 166.103C372.67 158.171 369.565 149.694 362.781 147.169C355.998 144.643 348.105 149.026 345.152 156.958C342.199 164.89 345.304 173.367 352.087 175.893C358.871 178.418 366.764 174.035 369.717 166.103Z" fill="#E8A500" stroke="black" stroke-width="3.125" stroke-miterlimit="10"/>
<path d="M366.104 164.728C369.057 156.796 365.951 148.319 359.168 145.793C352.384 143.268 344.491 147.65 341.538 155.582C338.585 163.514 341.691 171.992 348.474 174.517C355.258 177.043 363.151 172.66 366.104 164.728Z" fill="#FFD300" stroke="black" stroke-width="3.125" stroke-miterlimit="10"/>
<path d="M350.041 152.394C349.148 156.544 347.129 160.331 346.085 164.438C345.854 165.35 346.385 166.325 347.304 166.581C348.223 166.838 349.216 166.281 349.448 165.363C350.491 161.256 352.51 157.475 353.404 153.319C353.604 152.4 353.129 151.438 352.185 151.175C351.316 150.938 350.241 151.469 350.041 152.394Z" fill="#E8A500"/>
<path d="M350.49 153.444C352.065 153.888 353.671 154.244 355.215 154.787C355.383 154.85 355.552 154.906 355.721 154.975C355.846 155.025 355.827 155.019 355.665 154.956C355.796 155.019 355.921 155.081 356.046 155.15C356.365 155.331 356.64 155.544 356.877 155.844C357.283 156.356 357.415 156.988 357.358 157.419C357.302 157.85 357.215 158.012 357.015 158.337C357.108 158.187 356.79 158.512 356.965 158.406C356.746 158.544 356.727 158.55 356.477 158.6C356.321 158.631 356.14 158.613 355.983 158.619C355.302 158.644 356.252 158.712 355.883 158.625C355.583 158.556 355.277 158.506 354.983 158.437C353.446 158.087 351.908 157.669 350.421 157.144L349.496 160.5C351.183 161.069 352.977 161.394 354.64 162.031C354.902 162.131 355.208 162.294 355.433 162.475C355.571 162.587 355.715 162.731 355.808 162.856C355.808 162.856 356.108 163.437 356.002 163.169C356.246 163.775 356.208 164.187 356.021 164.794C355.908 165.156 356.108 164.694 355.927 164.987C355.815 165.156 355.808 165.175 355.915 165.038C355.84 165.119 355.765 165.2 355.683 165.269C355.883 165.081 355.471 165.287 355.708 165.237C355.515 165.275 356.071 165.262 355.615 165.237C355.221 165.219 354.827 165.225 354.44 165.2C354.233 165.187 354.027 165.169 353.821 165.15C353.421 165.112 354.327 165.256 353.652 165.125C351.458 164.7 349.371 163.925 347.271 163.163C346.39 162.844 345.365 163.525 345.127 164.381C344.858 165.35 345.458 166.2 346.346 166.525C348.29 167.231 350.246 167.994 352.277 168.406C353.846 168.725 355.908 169.075 357.383 168.294C359.027 167.425 359.777 165.394 359.621 163.613C359.421 161.325 357.958 159.644 355.865 158.8C354.121 158.1 352.215 157.756 350.427 157.156C349.533 156.856 348.521 157.5 348.283 158.375C348.021 159.338 348.608 160.206 349.502 160.519C351.265 161.137 353.127 161.675 354.971 162C357.652 162.469 360.19 161.15 360.733 158.362C361.246 155.731 359.846 153.119 357.44 151.962C355.552 151.056 353.433 150.662 351.427 150.1C349.265 149.487 348.346 152.85 350.502 153.456L350.49 153.444Z" fill="#E8A500"/>
<path d="M353.949 150.781C353.861 151.075 353.736 151.356 353.63 151.638C353.555 151.869 353.549 152.1 353.599 152.331C353.611 152.562 353.68 152.781 353.805 152.981C353.917 153.181 354.061 153.35 354.255 153.469C354.424 153.625 354.624 153.725 354.849 153.781L355.311 153.844C355.624 153.844 355.917 153.763 356.192 153.606L356.542 153.331C356.761 153.113 356.905 152.856 356.992 152.563C357.099 152.275 357.224 151.994 357.311 151.706C357.386 151.475 357.392 151.244 357.342 151.013C357.33 150.781 357.261 150.563 357.136 150.363C357.024 150.163 356.88 149.994 356.686 149.875C356.517 149.719 356.317 149.619 356.092 149.563L355.63 149.5C355.317 149.5 355.024 149.581 354.749 149.738L354.399 150.013C354.18 150.231 354.036 150.488 353.949 150.781Z" fill="#E8A500"/>
<path d="M349.317 165.9L348.829 167.25C348.754 167.481 348.748 167.712 348.798 167.944C348.81 168.175 348.879 168.394 349.004 168.594C349.117 168.794 349.26 168.963 349.454 169.081C349.623 169.238 349.823 169.338 350.048 169.394L350.51 169.456C350.823 169.456 351.117 169.375 351.392 169.219L351.742 168.944C351.96 168.725 352.104 168.469 352.192 168.175L352.679 166.825C352.754 166.594 352.76 166.363 352.71 166.131C352.698 165.9 352.629 165.681 352.504 165.481C352.392 165.281 352.248 165.112 352.054 164.994C351.885 164.837 351.685 164.737 351.46 164.681L350.998 164.619C350.685 164.619 350.392 164.7 350.117 164.856L349.767 165.131C349.548 165.35 349.404 165.606 349.317 165.9Z" fill="#E8A500"/>
<path d="M293.797 170.025C297.791 171.244 302.247 170.863 305.978 168.981C309.709 167.1 312.666 163.744 314.059 159.806C314.247 159.281 314.403 158.7 314.209 158.181C313.859 157.25 310.403 156.156 307.947 156.312C304.416 156.544 304.047 156.887 300.603 158.85C297.166 160.812 291.691 167.15 293.797 170.025Z" fill="#BED93D"/>
<path d="M293.303 171.838C298.166 173.275 303.603 172.656 307.966 170.038C309.934 168.856 311.653 167.3 313.053 165.488C313.728 164.613 314.341 163.694 314.847 162.713C315.428 161.581 316.066 160.288 316.166 159C316.353 156.494 313.997 155.456 311.953 154.913C309.741 154.325 307.509 154.356 305.266 154.731C303.453 155.038 301.872 155.975 300.297 156.875C298.722 157.775 297.247 158.9 295.953 160.219C294.516 161.681 293.147 163.375 292.297 165.263C291.497 167.038 290.997 169.238 292.197 170.975C292.772 171.806 293.841 172.188 294.759 171.65C295.584 171.169 296.009 169.925 295.434 169.088C295.359 168.981 295.303 168.863 295.234 168.756C295.491 169.156 295.234 168.875 295.247 168.719C295.291 168.281 295.203 169.15 295.234 168.694C295.241 168.569 295.247 168.406 295.234 168.275C295.209 167.963 295.234 168.25 295.216 168.338C295.241 168.188 295.272 168.038 295.309 167.888C295.347 167.738 295.397 167.575 295.447 167.425C295.484 167.319 295.522 167.213 295.559 167.113C295.478 167.294 295.484 167.288 295.572 167.081C296.234 165.7 296.991 164.65 297.916 163.619C298.403 163.075 298.922 162.55 299.459 162.056C299.741 161.8 300.022 161.556 300.316 161.319C300.772 160.95 300.034 161.513 300.497 161.181C300.653 161.069 300.816 160.956 300.978 160.844C301.678 160.375 302.428 159.981 303.159 159.569C303.453 159.4 303.753 159.238 304.053 159.081C304.209 159 304.372 158.925 304.528 158.844C304.728 158.756 304.734 158.75 304.528 158.831C304.628 158.794 304.728 158.75 304.822 158.719C305.072 158.631 305.328 158.55 305.584 158.488C305.747 158.45 305.916 158.413 306.078 158.381C306.091 158.381 306.678 158.288 306.322 158.338C307.222 158.219 308.147 158.144 309.053 158.2C309.747 158.244 310.516 158.4 311.272 158.619C311.478 158.681 311.678 158.744 311.878 158.819C312.472 159.031 311.622 158.675 312.147 158.925C312.297 158.994 312.441 159.094 312.591 159.163C312.922 159.313 312.434 158.925 312.691 159.231C312.841 159.413 312.253 158.75 312.428 158.725C312.441 158.725 312.266 159.294 312.259 159.319C312.122 159.713 311.991 160.031 311.816 160.4C311.409 161.25 310.928 162.069 310.384 162.844C309.453 164.163 308.203 165.381 306.872 166.294C303.191 168.813 298.578 169.494 294.309 168.231C291.991 167.544 290.997 171.163 293.309 171.85L293.303 171.838Z" fill="black"/>
<path d="M290.866 169.125C286.747 168.45 282.916 166.131 280.41 162.794C277.897 159.456 276.735 155.137 277.229 150.987C277.291 150.437 277.41 149.844 277.816 149.462C278.547 148.781 282.129 149.331 284.26 150.562C287.322 152.331 287.504 152.806 289.716 156.087C291.929 159.369 294.029 167.475 290.872 169.119" fill="#BED93D"/>
<path d="M291.365 167.319C287.628 166.675 284.147 164.712 281.872 161.637C280.665 160.012 279.834 158.156 279.372 156.194C279.147 155.25 279.022 154.306 278.997 153.337C278.984 153.006 279.159 150.806 279.14 150.794C279.309 150.875 278.297 151.194 278.753 151.069C279.153 150.956 278.315 151.056 278.79 151.056C279.072 151.056 279.353 151.05 279.634 151.069C280.053 151.1 280.003 151.094 280.528 151.206C281.053 151.319 281.522 151.444 282.009 151.606C282.728 151.85 283.34 152.187 284.078 152.637C284.397 152.831 284.709 153.025 285.009 153.237C285.009 153.237 285.434 153.544 285.203 153.375C285.009 153.231 285.434 153.569 285.472 153.6C285.684 153.787 285.884 153.981 286.072 154.194C286.172 154.3 286.259 154.412 286.353 154.519C286.684 154.887 286.134 154.2 286.44 154.625C286.959 155.344 287.453 156.081 287.947 156.819C288.29 157.325 288.597 157.85 288.872 158.394C289.247 159.15 289.347 159.406 289.653 160.319C290.222 162 290.565 163.562 290.597 165.05C290.603 165.444 290.584 165.838 290.553 166.231C290.597 165.775 290.547 166.275 290.522 166.35C290.478 166.537 290.403 166.731 290.372 166.919C290.303 167.331 290.565 166.644 290.353 166.981C290.259 167.131 290.184 167.281 290.084 167.431C290.347 167.031 290.147 167.344 290.047 167.431C289.809 167.631 290.372 167.244 289.915 167.5C287.803 168.675 289.697 171.912 291.809 170.737C295.184 168.862 294.515 163.906 293.715 160.812C293.259 159.05 292.603 157.281 291.684 155.706C290.765 154.131 289.753 152.581 288.528 151.325C287.222 149.981 285.44 148.944 283.715 148.244C281.99 147.544 279.634 146.925 277.747 147.437C275.059 148.162 275.115 151.744 275.272 153.975C275.453 156.619 276.165 159.181 277.39 161.525C279.959 166.425 284.915 169.981 290.359 170.919C291.353 171.088 292.378 170.65 292.665 169.606C292.915 168.706 292.359 167.475 291.353 167.3L291.365 167.319Z" fill="black"/>
<path d="M316.259 192.831C316.259 192.831 314.503 189.069 309.903 191.269C308.666 191.862 307.747 192.937 307.747 192.937C307.747 192.937 304.622 190.3 300.472 190.406C297.097 190.494 290.991 195.256 290.991 195.256C290.991 195.256 290.884 190.406 287.434 190.194C283.984 189.981 281.184 189.119 277.091 192.725C272.997 196.331 273.753 198.112 288.834 199.35C303.916 200.587 311.028 199.35 313.828 196.656C316.628 193.962 316.253 192.831 316.253 192.831H316.259Z" fill="#018D52"/>
<path d="M276.828 193.019C276.828 193.019 281.516 189.137 285.716 190.431C289.916 191.725 289.359 194.712 289.359 194.712C289.359 194.712 293.797 192.375 297.516 191.562C301.234 190.756 306.541 190.481 310.978 192.287" stroke="black" stroke-width="3.75" stroke-linecap="round" stroke-linejoin="round"/>
<path d="M293.484 159.6C291.071 163.419 289.94 168.125 290.415 172.625C290.671 175.044 291.259 177.438 292.834 179.35C294.284 181.106 296.809 182.231 299.065 181.513C301.321 180.794 302.465 178.25 301.653 175.975C300.84 173.7 298.865 172.4 296.54 172.156C291.946 171.675 288.646 175.838 288.009 179.988C287.578 182.769 287.984 185.525 288.703 188.225C289.034 189.463 289.353 190.738 289.846 191.925C290.34 193.113 291.065 193.838 292.046 194.556C292.865 195.15 294.134 194.694 294.609 193.881C295.165 192.931 294.759 191.913 293.934 191.319C293.971 191.344 293.384 190.769 293.596 191.044C293.484 190.9 293.265 190.475 293.271 190.475C293.04 189.919 292.765 188.838 292.553 188.094C292.053 186.338 291.603 184.55 291.553 182.719C291.515 181.294 291.696 179.831 292.315 178.538C292.871 177.388 293.728 176.431 294.79 176.081C295.853 175.731 296.859 175.756 297.615 176.431C297.996 176.775 298.084 176.988 298.196 177.569C298.134 177.256 298.14 177.831 298.196 177.619C298.253 177.388 298.096 177.975 298.109 177.938C298.228 177.663 298.184 177.838 298.065 177.888C297.69 178.05 297.159 177.963 296.684 177.725C296.071 177.413 295.609 176.913 295.265 176.331C294.484 175.031 294.209 173.45 294.103 171.956C293.846 168.263 294.74 164.613 296.715 161.481C298.009 159.438 294.765 157.55 293.478 159.588L293.484 159.6Z" fill="black"/>
<path d="M313.572 155.316C316.525 147.384 313.42 138.906 306.637 136.381C299.853 133.855 291.96 138.238 289.007 146.17C286.054 154.102 289.159 162.579 295.943 165.105C302.726 167.63 310.619 163.247 313.572 155.316Z" fill="#E8A500" stroke="black" stroke-width="3.125" stroke-miterlimit="10"/>
<path d="M310.377 154.367C313.33 146.435 310.225 137.958 303.441 135.432C296.658 132.907 288.765 137.289 285.812 145.221C282.859 153.153 285.964 161.631 292.748 164.156C299.531 166.682 307.424 162.299 310.377 154.367Z" fill="#FFD300" stroke="black" stroke-width="3.125" stroke-miterlimit="10"/>
<path d="M294.323 142.031C293.429 146.181 291.41 149.969 290.366 154.075C290.135 154.987 290.666 155.962 291.585 156.219C292.504 156.475 293.498 155.919 293.729 155C294.773 150.894 296.792 147.112 297.685 142.956C297.885 142.037 297.41 141.075 296.466 140.812C295.598 140.575 294.523 141.106 294.323 142.031Z" fill="#E8A500"/>
<path d="M294.771 143.081C296.346 143.525 297.952 143.881 299.496 144.425C299.665 144.487 299.833 144.544 300.002 144.612C300.127 144.662 300.108 144.656 299.946 144.594C300.077 144.656 300.202 144.719 300.327 144.787C300.646 144.969 300.921 145.181 301.158 145.481C301.565 145.994 301.696 146.625 301.64 147.056C301.583 147.487 301.496 147.65 301.296 147.975C301.39 147.825 301.071 148.15 301.246 148.044C301.027 148.181 301.008 148.187 300.758 148.237C300.602 148.269 300.421 148.25 300.265 148.256C299.583 148.281 300.533 148.35 300.165 148.262C299.865 148.194 299.558 148.144 299.265 148.075C297.727 147.725 296.19 147.306 294.702 146.781L293.777 150.137C295.465 150.706 297.258 151.031 298.921 151.669C299.183 151.769 299.49 151.931 299.715 152.112C299.852 152.225 299.996 152.369 300.09 152.494C300.09 152.494 300.39 153.075 300.283 152.806C300.527 153.412 300.49 153.825 300.302 154.431C300.19 154.794 300.39 154.331 300.208 154.625C300.096 154.794 300.09 154.812 300.196 154.675C300.121 154.756 300.046 154.837 299.965 154.906C300.165 154.719 299.752 154.925 299.99 154.875C299.796 154.912 300.352 154.9 299.896 154.875C299.502 154.856 299.108 154.862 298.721 154.837C298.515 154.825 298.308 154.806 298.102 154.787C297.702 154.75 298.608 154.894 297.933 154.762C295.74 154.337 293.652 153.562 291.552 152.8C290.671 152.481 289.646 153.162 289.408 154.019C289.14 154.987 289.74 155.837 290.627 156.162C292.571 156.869 294.527 157.631 296.558 158.044C298.127 158.362 300.19 158.712 301.665 157.931C303.308 157.062 304.058 155.031 303.902 153.25C303.702 150.962 302.24 149.281 300.146 148.437C298.402 147.737 296.496 147.394 294.708 146.794C293.815 146.494 292.802 147.137 292.565 148.012C292.302 148.975 292.89 149.844 293.783 150.156C295.546 150.775 297.408 151.312 299.252 151.637C301.933 152.106 304.471 150.787 305.015 148C305.527 145.369 304.127 142.756 301.721 141.6C299.833 140.694 297.715 140.3 295.708 139.737C293.546 139.125 292.627 142.487 294.783 143.094L294.771 143.081Z" fill="#E8A500"/>
<path d="M298.226 140.419C298.139 140.712 298.014 140.994 297.907 141.275C297.832 141.506 297.826 141.737 297.876 141.969C297.889 142.2 297.957 142.419 298.082 142.619C298.195 142.819 298.339 142.987 298.532 143.106C298.701 143.262 298.901 143.362 299.126 143.419L299.589 143.481C299.901 143.481 300.195 143.4 300.47 143.244L300.82 142.969C301.039 142.75 301.182 142.494 301.27 142.2C301.376 141.912 301.501 141.631 301.589 141.344C301.664 141.112 301.67 140.881 301.62 140.65C301.607 140.419 301.539 140.2 301.414 140C301.301 139.8 301.157 139.631 300.964 139.512C300.795 139.356 300.595 139.256 300.37 139.2L299.907 139.137C299.595 139.137 299.301 139.219 299.026 139.375L298.676 139.65C298.457 139.869 298.314 140.125 298.226 140.419Z" fill="#E8A500"/>
<path d="M293.598 155.531C293.435 155.981 293.273 156.431 293.11 156.881C293.035 157.112 293.029 157.344 293.079 157.575C293.092 157.806 293.16 158.025 293.285 158.225C293.398 158.425 293.542 158.594 293.735 158.712C293.904 158.869 294.104 158.969 294.329 159.025L294.792 159.087C295.104 159.087 295.398 159.006 295.673 158.85L296.023 158.575C296.242 158.356 296.385 158.1 296.473 157.806C296.635 157.356 296.798 156.906 296.96 156.456C297.035 156.225 297.042 155.994 296.992 155.762C296.979 155.531 296.91 155.312 296.785 155.112C296.673 154.912 296.529 154.744 296.335 154.625C296.167 154.469 295.967 154.369 295.742 154.312L295.279 154.25C294.967 154.25 294.673 154.331 294.398 154.487L294.048 154.762C293.829 154.981 293.685 155.237 293.598 155.531Z" fill="#E8A500"/>
<path d="M314.867 184.463C310.63 183.213 306.917 180.275 304.717 176.444C302.524 172.613 301.867 167.925 302.924 163.631C303.067 163.063 303.261 162.456 303.742 162.106C304.599 161.488 308.286 162.538 310.361 164.106C313.349 166.369 313.474 166.888 315.367 170.625C317.261 174.363 318.399 183.15 314.867 184.456" fill="#BED93D"/>
<path d="M315.368 182.656C311.593 181.513 308.312 178.931 306.343 175.5C305.287 173.656 304.587 171.544 304.387 169.425C304.28 168.281 304.274 167.125 304.399 165.988C304.449 165.494 304.543 165.006 304.649 164.525C304.699 164.288 304.755 164.044 304.83 163.813C304.855 163.738 304.912 163.581 304.912 163.581C304.868 163.581 304.324 163.869 304.599 163.781C304.13 163.925 304.462 163.806 304.668 163.806C304.743 163.806 305.162 163.85 304.968 163.825C304.743 163.794 305.037 163.838 305.062 163.844C305.18 163.869 305.305 163.894 305.424 163.919C306.262 164.113 307.112 164.413 307.78 164.738C309.224 165.45 310.405 166.406 311.512 167.588C311.562 167.638 311.605 167.7 311.649 167.75C311.83 167.944 311.462 167.488 311.618 167.706C311.699 167.825 311.787 167.938 311.868 168.056C312.055 168.338 312.224 168.625 312.387 168.919C312.83 169.713 313.224 170.531 313.63 171.338C313.724 171.525 313.812 171.713 313.905 171.894C313.937 171.963 313.968 172.025 313.999 172.094C313.993 172.075 313.88 171.794 313.955 172C314.08 172.331 314.205 172.663 314.318 173C314.562 173.744 314.755 174.506 314.912 175.275C315.237 176.869 315.374 178.544 315.212 180.431C315.193 180.656 315.224 180.381 315.224 180.356C315.205 180.463 315.193 180.575 315.174 180.681C315.143 180.863 315.105 181.05 315.055 181.231C315.005 181.431 314.943 181.619 314.887 181.813C314.762 182.219 314.98 181.706 314.83 181.963C314.749 182.1 314.674 182.238 314.599 182.375C314.412 182.719 314.743 182.294 314.543 182.456C314.362 182.6 314.13 182.75 314.462 182.569C314.337 182.638 313.887 182.856 314.368 182.663C313.43 183.038 312.768 183.913 313.055 184.969C313.299 185.863 314.418 186.656 315.362 186.281C319.155 184.763 319.299 179.95 318.868 176.481C318.63 174.594 318.255 172.713 317.537 170.944C316.818 169.175 315.968 167.35 314.849 165.825C313.73 164.3 312.043 162.85 310.343 161.875C308.643 160.9 306.249 159.9 304.199 160.088C301.143 160.375 300.768 164.088 300.593 166.519C300.399 169.263 300.818 172.119 301.818 174.681C303.993 180.263 308.624 184.538 314.362 186.281C316.674 186.981 317.668 183.363 315.362 182.663L315.368 182.656Z" fill="black"/>
<path d="M338.705 212.6C338.705 212.6 342.823 205.825 338.217 208.025C336.98 208.619 332.348 206.838 332.348 206.838C332.348 206.838 329.223 204.2 325.073 204.306C321.698 204.394 315.592 209.156 315.592 209.156C315.592 209.156 315.486 204.306 312.036 204.094C308.586 203.881 305.786 203.019 301.692 206.625C297.598 210.231 298.355 212.012 313.436 213.25C328.517 214.487 335.63 213.25 338.43 210.556C341.23 207.862 338.698 212.6 338.698 212.6H338.705Z" fill="#018D52"/>
<path d="M301.43 206.919C301.43 206.919 306.117 203.038 310.317 204.331C314.517 205.625 314.892 207.931 314.892 207.931C314.892 207.931 318.398 206.275 322.117 205.463C325.836 204.656 331.142 204.381 335.58 206.188" stroke="black" stroke-width="3.75" stroke-linecap="round" stroke-linejoin="round"/>
<path d="M318.088 173.5C315.913 176.962 315.263 181.438 315.169 185.45C315.069 189.925 315.8 195.713 320.563 197.575C322.944 198.506 326.044 197.556 326.694 194.875C327.256 192.575 325.888 190.05 323.8 189.031C321.713 188.012 319.169 188.169 317.138 189.362C315.106 190.556 313.713 192.819 313.119 195.119C312.525 197.419 312.463 200.044 313.231 202.294C313.594 203.362 313.913 204.462 314.319 205.512C314.813 206.787 315.55 207.656 316.65 208.462C317.469 209.056 318.738 208.6 319.213 207.788C319.769 206.838 319.363 205.819 318.538 205.225C318.206 204.981 317.969 204.638 317.863 204.331C317.575 203.525 317.344 202.7 317.056 201.888C316.513 200.381 316.363 199.425 316.463 197.8C316.55 196.337 316.981 194.706 317.944 193.537C318.769 192.544 319.906 192.037 321.106 192.094C321.45 192.112 322.031 192.275 322.338 192.5C322.663 192.744 322.769 192.881 322.894 193.156C323.05 193.494 322.794 192.762 322.988 193.381C322.994 193.4 323.094 193.981 323.063 193.688C323.131 194.294 323.088 193.387 323.05 193.969C323.031 194.287 322.95 194.144 323.05 194.019C323.113 193.938 322.813 194.15 322.763 194.162C322.25 194.275 321.563 194.006 321.056 193.606C319.731 192.563 319.325 190.694 319.081 189.119C319.125 189.419 319.081 189.1 319.075 189.05C319.05 188.85 319.031 188.656 319.013 188.456C318.981 188.113 318.956 187.769 318.944 187.419C318.906 186.606 318.906 185.8 318.938 184.987C319.006 183.15 319.2 181.538 319.625 179.756C320.025 178.075 320.456 176.769 321.331 175.381C322.619 173.331 319.375 171.45 318.094 173.488L318.088 173.5Z" fill="black"/>
<path d="M338.787 169.65C341.74 161.718 338.635 153.241 331.851 150.715C325.068 148.19 317.175 152.573 314.222 160.505C311.269 168.437 314.374 176.914 321.158 179.439C327.941 181.965 335.834 177.582 338.787 169.65Z" fill="#E8A500" stroke="black" stroke-width="3.125" stroke-miterlimit="10"/>
<path d="M334.979 168.267C337.932 160.335 334.826 151.858 328.043 149.332C321.259 146.807 313.366 151.19 310.413 159.121C307.46 167.053 310.566 175.531 317.349 178.056C324.133 180.582 332.026 176.199 334.979 168.267Z" fill="#FFD300" stroke="black" stroke-width="3.125" stroke-miterlimit="10"/>
<path d="M318.924 155.925C318.031 160.075 316.012 163.863 314.968 167.969C314.737 168.881 315.268 169.856 316.187 170.113C317.106 170.369 318.099 169.812 318.331 168.894C319.374 164.787 321.393 161.006 322.287 156.85C322.487 155.931 322.012 154.969 321.068 154.706C320.199 154.469 319.124 155 318.924 155.925Z" fill="#E8A500"/>
<path d="M319.372 156.975C320.947 157.419 322.554 157.775 324.097 158.319C324.266 158.381 324.435 158.437 324.604 158.506C324.729 158.556 324.71 158.55 324.548 158.488C324.679 158.55 324.804 158.612 324.929 158.681C325.248 158.862 325.522 159.075 325.76 159.375C326.166 159.887 326.297 160.519 326.241 160.95C326.185 161.381 326.097 161.544 325.897 161.869C325.991 161.719 325.672 162.044 325.847 161.937C325.629 162.075 325.61 162.081 325.36 162.131C325.204 162.162 325.022 162.144 324.866 162.15C324.185 162.175 325.135 162.244 324.766 162.156C324.466 162.087 324.16 162.038 323.866 161.969C322.329 161.619 320.791 161.2 319.304 160.675L318.379 164.031C320.066 164.6 321.86 164.925 323.523 165.563C323.785 165.663 324.091 165.825 324.316 166.006C324.454 166.119 324.598 166.263 324.691 166.388C324.691 166.388 324.991 166.969 324.885 166.7C325.129 167.306 325.091 167.719 324.904 168.325C324.791 168.687 324.991 168.225 324.81 168.519C324.698 168.687 324.691 168.706 324.797 168.569C324.722 168.65 324.647 168.731 324.566 168.8C324.766 168.613 324.354 168.819 324.591 168.769C324.397 168.806 324.954 168.794 324.498 168.769C324.104 168.75 323.71 168.756 323.323 168.731C323.116 168.719 322.91 168.7 322.704 168.681C322.304 168.644 323.21 168.787 322.535 168.656C320.341 168.231 318.254 167.456 316.154 166.694C315.273 166.375 314.248 167.056 314.01 167.912C313.741 168.881 314.341 169.731 315.229 170.056C317.172 170.763 319.129 171.525 321.16 171.937C322.729 172.256 324.791 172.606 326.266 171.825C327.91 170.956 328.66 168.925 328.504 167.144C328.304 164.856 326.841 163.175 324.747 162.331C323.004 161.631 321.097 161.287 319.31 160.687C318.416 160.387 317.404 161.031 317.166 161.906C316.904 162.869 317.491 163.737 318.385 164.05C320.148 164.669 322.01 165.206 323.854 165.531C326.535 166 329.073 164.681 329.616 161.894C330.129 159.263 328.729 156.65 326.322 155.494C324.435 154.588 322.316 154.194 320.31 153.631C318.147 153.019 317.229 156.381 319.385 156.988L319.372 156.975Z" fill="#E8A500"/>
<path d="M322.832 154.319C322.744 154.613 322.619 154.894 322.513 155.175C322.438 155.406 322.432 155.638 322.482 155.869C322.494 156.1 322.563 156.319 322.688 156.519C322.8 156.719 322.944 156.888 323.138 157.006C323.307 157.163 323.507 157.263 323.732 157.319L324.194 157.381C324.507 157.381 324.8 157.3 325.075 157.144L325.425 156.869C325.644 156.65 325.788 156.394 325.875 156.1C325.982 155.813 326.107 155.531 326.194 155.244C326.269 155.013 326.275 154.781 326.225 154.55C326.213 154.319 326.144 154.1 326.019 153.9C325.907 153.7 325.763 153.531 325.569 153.413C325.4 153.256 325.2 153.156 324.975 153.1L324.513 153.038C324.2 153.038 323.907 153.119 323.632 153.275L323.282 153.55C323.063 153.769 322.919 154.025 322.832 154.319Z" fill="#E8A500"/>
<path d="M318.199 169.431C318.037 169.881 317.874 170.331 317.712 170.781C317.637 171.013 317.631 171.244 317.681 171.475C317.693 171.706 317.762 171.925 317.887 172.125C317.999 172.325 318.143 172.494 318.337 172.613C318.506 172.769 318.706 172.869 318.931 172.925L319.393 172.988C319.706 172.988 319.999 172.906 320.274 172.75L320.624 172.475C320.843 172.256 320.987 172 321.074 171.706C321.237 171.256 321.399 170.806 321.562 170.356C321.637 170.125 321.643 169.894 321.593 169.663C321.581 169.431 321.512 169.212 321.387 169.012C321.274 168.812 321.131 168.644 320.937 168.525C320.768 168.369 320.568 168.269 320.343 168.212L319.881 168.15C319.568 168.15 319.274 168.231 318.999 168.387L318.649 168.662C318.431 168.881 318.287 169.138 318.199 169.431Z" fill="#E8A500"/>
<path d="M322.389 185.088C326.808 186.325 331.627 186.006 335.558 184.225C339.489 182.438 342.489 179.2 343.758 175.381C343.927 174.875 344.064 174.306 343.814 173.794C343.37 172.881 339.545 171.769 336.889 171.894C333.064 172.075 332.683 172.406 329.07 174.275C325.458 176.144 319.914 182.256 322.383 185.088" fill="#BED93D"/>
<path d="M321.896 186.9C327.014 188.294 332.664 187.913 337.383 185.419C339.389 184.356 341.239 182.875 342.671 181.106C343.421 180.175 344.102 179.194 344.639 178.125C345.177 177.056 345.814 175.719 345.821 174.463C345.839 172 343.371 171.088 341.371 170.569C339.208 170.013 337.014 169.919 334.802 170.181C332.839 170.413 331.177 171.088 329.427 171.994C327.677 172.9 326.027 173.938 324.539 175.306C321.746 177.9 318.008 182.719 321.064 186.419C321.708 187.2 323.046 187.088 323.714 186.419C324.489 185.644 324.364 184.55 323.714 183.769C324.021 184.144 323.714 183.794 323.696 183.7L323.633 183.581C323.733 183.825 323.752 183.85 323.683 183.656C323.589 183.581 323.658 183.075 323.658 183.625C323.658 183.494 323.664 183.338 323.658 183.206C323.614 182.788 323.539 183.544 323.658 183.125C323.702 182.975 323.727 182.825 323.771 182.675C323.814 182.519 323.871 182.363 323.927 182.213C324.039 181.913 323.839 182.344 324.046 181.956C324.827 180.506 325.527 179.6 326.677 178.456C327.827 177.313 328.614 176.663 330.021 175.913C330.789 175.5 331.571 175.094 332.358 174.713C332.521 174.631 332.689 174.556 332.858 174.481C333.364 174.244 332.527 174.588 333.027 174.413C333.377 174.294 333.727 174.169 334.089 174.081C335.364 173.781 337.221 173.644 338.864 173.881C339.408 173.956 340.327 174.169 340.996 174.369C341.189 174.425 341.383 174.488 341.571 174.556C341.596 174.563 342.158 174.813 341.796 174.638C341.939 174.706 342.071 174.788 342.214 174.85C342.296 174.894 342.371 174.944 342.446 174.994C342.233 174.819 342.196 174.794 342.333 174.919C342.433 175.038 342.014 174.431 342.102 174.469V174.369C342.058 174.544 342.014 174.719 341.952 174.894C341.833 175.275 341.689 175.631 341.552 175.925C341.133 176.819 340.621 177.694 340.014 178.475C338.983 179.788 337.608 180.969 336.127 181.838C332.164 184.163 327.271 184.488 322.896 183.294C320.564 182.656 319.571 186.275 321.896 186.913V186.9Z" fill="black"/>
<path d="M193.337 117.738C196.43 119.3 199.518 121.025 202.23 122.544C202.23 122.544 204.568 124.75 198.349 131.081C192.13 137.413 160.293 143.675 150.005 142.85C139.718 142.025 128.555 139.188 125.074 132.331C127.093 129.15 132.968 124.575 135.124 123.25" fill="black"/>
<path d="M192.704 118.813C195.017 119.981 197.292 121.219 199.561 122.481C199.792 122.613 201.367 123.481 201.373 123.456C201.361 123.488 201.136 123.156 201.279 123.344C201.329 123.406 201.348 123.488 201.392 123.556C201.048 123.006 201.392 123.619 201.386 123.619C201.429 123.656 201.429 124.075 201.386 123.563C201.386 123.644 201.404 123.725 201.404 123.813C201.404 123.994 201.404 124.169 201.379 124.35C201.404 124.119 201.392 124.281 201.361 124.406C201.323 124.55 201.292 124.694 201.248 124.831C200.854 126.156 199.867 127.506 198.898 128.644C198.336 129.3 197.754 129.963 197.104 130.544C197.023 130.619 196.592 130.969 196.804 130.806C196.611 130.956 196.411 131.094 196.211 131.231C195.311 131.838 194.354 132.35 193.379 132.819C190.917 134 188.267 134.919 185.604 135.75C179.067 137.788 172.336 139.256 165.579 140.35C160.286 141.206 154.761 142.031 149.386 141.563C145.111 141.188 140.823 140.481 136.736 139.156C133.298 138.038 129.767 136.413 127.386 133.6C126.898 133.025 126.492 132.381 126.148 131.713V132.975C127.392 131.056 129.204 129.469 130.923 127.988C132.448 126.681 134.036 125.4 135.748 124.338C137.111 123.494 135.861 121.331 134.486 122.181C132.598 123.35 130.842 124.775 129.154 126.219C127.261 127.844 125.354 129.6 123.986 131.706C123.736 132.088 123.786 132.581 123.986 132.969C125.748 136.363 129.054 138.656 132.467 140.175C136.586 142.006 141.017 143.006 145.473 143.613C148.536 144.031 151.548 144.269 154.629 144.106C157.711 143.944 160.848 143.563 163.936 143.113C171.061 142.075 178.154 140.588 185.054 138.531C188.054 137.638 191.029 136.619 193.886 135.331C195.998 134.375 198.036 133.244 199.648 131.544C201.561 129.525 204.211 126.556 203.879 123.506C203.811 122.869 203.611 122.181 203.142 121.706C202.636 121.194 201.811 120.894 201.192 120.544C200.017 119.888 198.836 119.238 197.654 118.6C196.473 117.963 195.204 117.3 193.973 116.669C192.542 115.944 191.279 118.1 192.711 118.825L192.704 118.813Z" fill="black"/>
<path d="M183.603 174.794C183.516 183.744 186.022 201.019 189.053 213.875C191.097 222.55 176.197 228.05 168.009 224.456C142.397 213.206 154.753 182.506 154.753 182.506" fill="#F9F9F9"/>
<path d="M183.603 174.794C183.516 183.744 186.022 201.019 189.053 213.875C191.097 222.55 176.197 228.05 168.009 224.456C142.397 213.206 154.753 182.506 154.753 182.506" stroke="black" stroke-width="4.3625" stroke-linecap="round" stroke-linejoin="round"/>
<path d="M185.998 181.087C185.998 181.087 199.055 175.55 198.967 161.087C198.898 149.85 198.511 145.887 197.317 140.925C195.705 134.244 194.586 126.606 178.948 120.45C167.217 115.831 163.53 115.806 154.867 115.619C145.617 115.419 142.461 121.337 142.461 121.337" fill="#F9F9F9"/>
<path d="M119.406 242.962C119.406 242.962 131.819 247.419 133.55 252.625C135.287 257.837 133.25 262.456 150.4 259.556C164.487 257.175 171.2 257.312 175.662 254.581C177.287 253.587 178.187 251.719 178.106 249.812C177.906 245.075 178.069 247.962 178.9 235.106C179.35 228.112 172.569 223.381 172.569 223.381" fill="#F9F9F9"/>
<path d="M119.406 242.962C119.406 242.962 131.819 247.419 133.55 252.625C135.287 257.837 133.25 262.456 150.4 259.556C164.487 257.175 171.2 257.312 175.662 254.581C177.287 253.587 178.187 251.719 178.106 249.812C177.906 245.075 178.069 247.962 178.9 235.106C179.35 228.112 172.569 223.381 172.569 223.381" stroke="black" stroke-width="4.3625" stroke-linecap="round" stroke-linejoin="round"/>
<path d="M136.221 125.513C127.764 135.263 102.214 208.175 143.052 231.144C154.302 237.469 182.202 181.906 190.658 172.156C199.114 162.406 188.577 121.756 176.002 118.85C157.839 114.656 144.683 115.763 136.227 125.513H136.221Z" fill="#F9F9F9"/>
<path d="M158.812 230.781C174.244 224.806 177.05 219.381 178.362 202.706Z" fill="#F9F9F9"/>
<path d="M158.812 230.781C174.244 224.806 177.05 219.381 178.362 202.706" stroke="black" stroke-width="4.3625" stroke-linecap="round" stroke-linejoin="round"/>
<path d="M145.501 223.744L151.869 226.356C155.776 228.575 158.888 231.237 159.744 235.65C160.638 240.281 160.394 246.662 159.957 249.4C160.913 250.637 165.188 257.837 160.394 261.162C150.538 265.794 122.694 265.019 114.038 261.919C105.382 258.819 112.513 255.044 108.507 247.962C104.494 240.881 88.1507 231.519 87.7507 206.306C87.5194 191.675 96.0882 179.3 106.776 167.137C109.701 163.812 113.701 161 118.469 157.625C120.219 156.387 122.963 154.587 122.963 154.587" fill="#F9F9F9"/>
<path d="M145.501 223.744L151.869 226.356C155.776 228.575 158.888 231.237 159.744 235.65C160.638 240.281 160.394 246.662 159.957 249.4C160.913 250.637 165.188 257.837 160.394 261.162C150.538 265.794 122.694 265.019 114.038 261.919C105.382 258.819 112.513 255.044 108.507 247.962C104.494 240.881 88.1507 231.519 87.7507 206.306C87.5194 191.675 96.0882 179.3 106.776 167.137C109.701 163.812 113.701 161 118.469 157.625C120.219 156.387 122.963 154.587 122.963 154.587" stroke="black" stroke-width="4.3625" stroke-linecap="round" stroke-linejoin="round"/>
<path d="M195.081 227.906L150.049 211.381C148.018 210.638 146.968 208.387 147.712 206.35C148.455 204.319 150.705 203.269 152.743 204.012L197.787 220.531L195.081 227.9V227.906Z" fill="#986C59"/>
<path d="M195.081 227.906L150.049 211.381C148.018 210.638 146.968 208.387 147.712 206.35C148.455 204.319 150.705 203.269 152.743 204.012L197.787 220.531L195.081 227.9V227.906Z" stroke="black" stroke-width="4.08125" stroke-miterlimit="10"/>
<path d="M192.383 237.625C202.152 242.094 211.727 246.594 220.289 244.131C224.964 242.788 228.827 238.175 228.945 233.306C229.058 228.587 225.408 224.663 221.652 221.806C215.983 217.494 208.927 215.319 202.064 213.413C197.558 220.694 193.452 229.006 192.383 237.619V237.625Z" fill="#CED1D2"/>
<path d="M191.327 239.431C196.97 242.013 202.689 244.8 208.783 246.156C214.02 247.325 220.208 247.488 224.795 244.269C229.127 241.231 231.908 235.944 230.758 230.613C229.608 225.281 224.808 221.181 220.408 218.406C214.989 214.988 208.752 213.1 202.62 211.394C201.708 211.144 200.745 211.569 200.258 212.356C195.47 220.113 191.458 228.494 190.289 237.619C190.145 238.744 191.352 239.713 192.383 239.713C193.633 239.713 194.333 238.744 194.477 237.619C195.539 229.306 199.514 221.531 203.87 214.469L201.508 215.431C206.377 216.781 211.277 218.213 215.752 220.563C219.783 222.675 223.927 225.575 226.002 229.669C226.902 231.444 227.064 233.419 226.527 235.288C226.252 236.244 225.939 236.919 225.327 237.869C224.995 238.381 224.902 238.506 224.552 238.906C224.177 239.338 223.77 239.744 223.339 240.125C222.889 240.525 222.808 240.575 222.308 240.9C221.833 241.213 221.333 241.481 220.82 241.725C220.602 241.825 220.758 241.756 220.802 241.738C220.664 241.794 220.52 241.85 220.383 241.9C220.17 241.975 219.958 242.044 219.739 242.106C219.127 242.288 218.502 242.425 217.87 242.531C215.77 242.894 213.139 242.738 210.97 242.331C204.82 241.175 199.095 238.394 193.445 235.813C192.42 235.344 191.189 235.519 190.583 236.563C190.058 237.463 190.302 238.956 191.333 239.425L191.327 239.431Z" fill="black"/>
<path d="M158.971 187.331C158.115 193.544 163.671 200.631 172.071 211.769C177.896 219.494 166.227 228.994 156.921 227.744C128.565 223.925 122.871 197.337 122.871 197.337" fill="#F9F9F9"/>
<path d="M158.971 187.331C158.115 193.544 163.671 200.631 172.071 211.769C177.896 219.494 166.227 228.994 156.921 227.744C128.565 223.925 122.871 197.337 122.871 197.337" stroke="black" stroke-width="4.3625" stroke-linecap="round" stroke-linejoin="round"/>
<path d="M179.701 184.45C182.307 183.762 187.026 181.95 187.026 181.95C187.026 181.95 200.082 176.412 199.995 161.95C199.926 150.713 198.857 146.212 198.345 141.787C197.551 134.962 195.613 127.469 179.976 121.312C168.245 116.694 164.557 116.669 155.895 116.481C155.507 116.475 155.126 116.475 154.751 116.481C146.913 116.706 139.926 121.5 136.463 128.531C132.632 136.306 124.345 150.581 122.957 154.912" stroke="black" stroke-width="4.3625" stroke-linecap="round" stroke-linejoin="round"/>
<path d="M172.301 154.7C174.251 154.7 175.832 153.119 175.832 151.169C175.832 149.218 174.251 147.637 172.301 147.637C170.351 147.637 168.77 149.218 168.77 151.169C168.77 153.119 170.351 154.7 172.301 154.7Z" fill="black"/>
<path d="M187.906 157.231C189.857 157.231 191.437 155.65 191.437 153.7C191.437 151.75 189.857 150.169 187.906 150.169C185.956 150.169 184.375 151.75 184.375 153.7C184.375 155.65 185.956 157.231 187.906 157.231Z" fill="black"/>
<path d="M192.388 142.806L186.145 146.275" stroke="black" stroke-width="4.08125" stroke-linecap="round" stroke-linejoin="round"/>
<path d="M171.156 138.413L176.069 143.6" stroke="black" stroke-width="4.08125" stroke-linecap="round" stroke-linejoin="round"/>
<path d="M134.641 126.825C155.309 122.2 172.828 117.869 192.734 119.894C190.491 113.556 187.872 109.887 183.141 104.787C181.616 103.144 179.997 101.55 178.116 100.75C176.172 99.925 174.078 100.012 172.041 100.106C166.822 100.344 161.603 100.587 156.378 100.825C152.284 101.012 148.153 101.206 144.191 102.525C142.428 103.112 140.616 104 139.472 105.831C138.566 107.281 138.178 109.156 137.816 110.962C136.759 116.25 135.697 121.537 134.641 126.825Z" fill="#838040"/>
<path d="M135.19 128.831C149.902 125.538 164.702 121.881 179.846 121.494C184.146 121.387 188.452 121.544 192.733 121.969C194.027 122.1 195.165 120.525 194.74 119.331C193.865 116.888 192.84 114.481 191.533 112.231C190.227 109.981 188.777 108.087 187.177 106.194C185.352 104.031 183.452 101.844 181.177 100.144C178.596 98.2125 175.583 97.8687 172.452 98C166.071 98.2687 159.677 98.4938 153.302 98.9C150.146 99.1 146.946 99.4625 143.921 100.425C141.271 101.269 138.765 102.687 137.415 105.225C136.602 106.756 136.202 108.45 135.858 110.137C135.515 111.825 135.152 113.675 134.796 115.444C134.071 119.05 133.352 122.662 132.627 126.269C132.408 127.369 132.946 128.519 134.083 128.831C135.108 129.113 136.421 128.487 136.646 127.375C137.246 124.375 137.846 121.375 138.446 118.375C139.046 115.375 139.521 112.5 140.233 109.606C140.508 108.5 140.852 107.313 141.546 106.469C142.158 105.731 143.071 105.175 143.933 104.819C146.208 103.863 149.108 103.406 151.696 103.181C157.583 102.669 163.527 102.575 169.427 102.3C170.902 102.231 172.377 102.131 173.852 102.125C175.015 102.125 176.208 102.181 177.296 102.65C179.615 103.644 181.371 105.894 183.008 107.731C186.358 111.488 189.027 115.681 190.727 120.444L192.733 117.806C177.446 116.275 162.283 118.65 147.358 121.856C142.927 122.806 138.502 123.819 134.083 124.806C132.983 125.05 132.34 126.319 132.627 127.369C132.94 128.5 134.09 129.069 135.19 128.825V128.831Z" fill="black"/>
<path d="M125.945 132.162C125.945 132.162 149.989 127.256 163.483 126.669C176.977 126.081 201.42 124.119 201.42 124.119L191.902 117.737C191.902 117.737 184.708 115.975 170.87 116.562C157.033 117.15 135.739 123.137 135.739 123.137C135.739 123.137 128.639 127.256 125.945 132.162Z" fill="#838040" stroke="black" stroke-width="4.3625" stroke-linecap="round" stroke-linejoin="round"/>
<path d="M246.703 209.35C244.272 211.869 242.703 215.012 241.672 218.331C240.991 220.525 240.734 222.894 239.903 225.037C239.547 225.962 240.297 227.056 241.184 227.3C242.222 227.587 243.084 226.944 243.447 226.019C244.228 223.994 244.478 221.762 245.097 219.687C245.947 216.831 247.172 214.156 249.297 211.95C250.941 210.244 248.341 207.644 246.697 209.35H246.703Z" fill="black"/>
<path d="M247.806 211.012C249.756 208.312 253.993 203.594 257.018 202.087C260.043 200.581 263.624 199.919 267.231 200.487C270.837 201.056 274.443 202.919 276.962 205.775C277.256 206.106 277.537 206.456 277.674 206.862C277.862 207.412 277.762 207.975 277.649 208.512C277.449 209.512 277.231 210.544 276.593 211.294C276.081 211.894 275.337 212.256 274.581 212.544C272.906 213.181 271.093 213.512 269.293 213.844C266.693 214.319 264.362 214.544 261.637 214.35C259.249 214.181 256.556 213.756 254.162 213.312C251.624 212.837 249.674 212.587 247.693 211.019C245.418 209.219 242.818 207.837 240.643 206.287C236.724 203.481 232.606 200.431 230.887 196.194C230.718 195.775 230.568 195.337 230.574 194.9C230.599 193.375 232.393 192.494 234.031 192.331C238.449 191.881 243.031 194.575 245.356 198.25C247.681 201.925 248.043 205.775 247.443 210.225" fill="#BED93D"/>
<path d="M249.347 211.919C249.741 211.375 249.966 211.087 250.46 210.494C251.028 209.806 251.616 209.131 252.222 208.475C253.41 207.187 254.666 205.925 256.053 204.837C258.753 202.725 262.591 201.837 266.091 202.144C269.591 202.45 273.385 204.269 275.691 207.05C275.903 207.3 275.991 207.369 275.978 207.7C275.96 208.137 275.81 208.619 275.697 209.037C275.472 209.887 275.16 210.337 274.341 210.719C272.516 211.562 270.347 211.856 268.378 212.2C264.222 212.925 260.116 212.55 255.985 211.831C254.153 211.512 252.16 211.312 250.435 210.594C249.71 210.294 249.01 209.794 248.366 209.3C247.516 208.65 246.628 208.044 245.728 207.462C242.46 205.35 239.141 203.275 236.291 200.6C234.966 199.356 233.778 197.994 232.935 196.381C232.778 196.081 232.628 195.781 232.51 195.469C232.441 195.281 232.403 195.094 232.36 194.9C232.491 194.75 232.397 195.1 232.36 194.9C232.516 194.712 232.428 194.756 232.678 194.594C233.022 194.369 233.303 194.281 233.747 194.181C235.278 193.825 237.272 194.219 238.822 194.912C240.547 195.687 242.116 196.894 243.272 198.387C245.916 201.8 246.178 206.094 245.641 210.219C245.516 211.181 246.553 212.012 247.435 212.012C248.51 212.012 249.103 211.181 249.228 210.219C249.822 205.694 249.341 201.037 246.772 197.144C244.203 193.25 240.222 190.856 235.772 190.512C233.735 190.356 231.26 190.744 229.822 192.344C228.01 194.356 229.01 196.881 230.247 198.919C232.603 202.794 236.478 205.6 240.153 208.137C242.11 209.487 244.197 210.644 246.11 212.062C246.997 212.719 247.822 213.35 248.841 213.794C249.86 214.237 250.866 214.512 251.928 214.725C256.678 215.675 261.616 216.581 266.472 216.069C269.022 215.8 271.653 215.375 274.11 214.612C275.297 214.244 276.46 213.787 277.428 212.987C278.397 212.187 278.891 211.044 279.185 209.881C279.51 208.581 279.772 207.225 279.21 205.956C278.728 204.875 277.76 203.962 276.878 203.181C275.116 201.625 273.11 200.456 270.916 199.631C266.266 197.887 261.066 198.269 256.591 200.325C253.135 201.912 250.303 205.087 247.922 207.969C247.347 208.669 246.785 209.387 246.253 210.119C245.685 210.9 246.122 212.119 246.897 212.569C247.803 213.1 248.778 212.712 249.347 211.925V211.919Z" fill="black"/>
<path d="M286.179 254.131C286.467 246.306 282.341 240.838 277.16 234.55C271.979 228.263 260.904 222.819 252.223 222.994C248.779 223.063 245.398 223.806 242.06 224.569C235.579 226.056 227.185 227.2 221.854 230.831C219.548 232.4 215.817 234.638 214.71 237.044C213.654 239.35 211.717 242.581 211.029 245C210.06 248.406 212.392 250.538 213.11 253.206C213.11 253.206 216.704 264.188 223.404 264.881C230.104 265.569 244.354 267.95 249.029 266.188C253.704 264.425 260.267 266.3 263.729 265.206C267.192 264.113 273.629 259.994 277.273 258.5C280.917 257.006 286.185 254.131 286.185 254.131H286.179Z" fill="#FFD300"/>
<path d="M287.973 254.131C288.092 250.288 287.167 246.588 285.43 243.169C283.692 239.75 281.211 236.675 278.767 233.7C274.242 228.188 267.523 224.4 260.73 222.438C257.067 221.381 253.292 220.969 249.498 221.388C245.255 221.856 241.105 222.969 236.93 223.838C233.273 224.6 229.592 225.381 226.098 226.719C222.605 228.056 219.561 230.031 216.661 232.288C215.298 233.35 213.936 234.569 213.161 236.144C212.348 237.8 211.473 239.431 210.68 241.1C209.886 242.769 208.973 244.713 209.005 246.688C209.03 248.506 209.773 250.119 210.567 251.719C211.23 253.05 211.673 254.575 212.317 256.05C213.273 258.263 214.48 260.344 215.986 262.225C217.642 264.288 219.923 266.138 222.605 266.575C225.286 267.013 228.261 267.263 231.073 267.606C234.33 268 237.592 268.369 240.861 268.538C243.48 268.675 246.286 268.794 248.848 268.125C249.442 267.969 250.005 267.731 250.598 267.581C251.455 267.363 252.286 267.269 253.173 267.225C254.948 267.138 256.723 267.25 258.498 267.325C260.18 267.394 261.88 267.444 263.542 267.113C264.955 266.831 266.317 266.138 267.605 265.513C270.636 264.031 273.53 262.281 276.561 260.794C276.842 260.656 277.117 260.525 277.398 260.394C277.555 260.325 277.711 260.25 277.873 260.181C277.486 260.35 278.111 260.081 278.13 260.075C279.023 259.7 279.911 259.3 280.792 258.888C282.273 258.188 283.736 257.45 285.186 256.694C285.823 256.363 286.455 256.031 287.086 255.688C289.111 254.581 287.305 251.488 285.273 252.594C280.498 255.194 275.686 257.125 270.942 259.7C269.486 260.494 268.03 261.294 266.548 262.044C265.942 262.35 265.336 262.65 264.717 262.925C264.717 262.925 264.155 263.169 264.473 263.038C264.342 263.094 264.205 263.144 264.073 263.2C263.755 263.325 263.43 263.444 263.092 263.538C262.811 263.619 262.523 263.675 262.236 263.719C262.53 263.675 262.13 263.725 262.055 263.731C261.892 263.744 261.73 263.756 261.561 263.769C260.736 263.813 259.905 263.794 259.073 263.769C257.348 263.706 255.63 263.588 253.905 263.625C252.092 263.663 250.273 263.881 248.555 264.481C248.136 264.625 247.711 264.744 247.273 264.825C247.155 264.85 246.448 264.944 246.917 264.888C246.611 264.925 246.305 264.956 245.998 264.975C243.18 265.188 240.323 264.975 237.511 264.731C234.411 264.456 231.317 264.075 228.23 263.688C226.948 263.525 225.673 263.363 224.392 263.219C224.111 263.188 223.83 263.156 223.548 263.125C223.223 263.088 223.492 263.125 223.555 263.131C223.398 263.106 223.236 263.075 223.08 263.038C222.823 262.975 222.567 262.9 222.317 262.813C222.273 262.794 221.798 262.588 222.155 262.756C222.011 262.688 221.867 262.619 221.723 262.544C221.442 262.394 221.167 262.225 220.898 262.044C220.811 261.981 220.723 261.919 220.636 261.856C220.205 261.544 220.892 262.081 220.486 261.731C220.023 261.338 219.586 260.919 219.173 260.463C218.967 260.238 218.773 260 218.573 259.763C218.523 259.7 218.305 259.413 218.492 259.663C218.392 259.531 218.292 259.394 218.198 259.263C217.848 258.775 217.517 258.275 217.211 257.763C216.655 256.844 216.161 255.894 215.711 254.919C215.623 254.731 215.542 254.55 215.461 254.363C215.417 254.256 215.373 254.156 215.33 254.05C215.523 254.5 215.411 254.25 215.367 254.138C215.248 253.844 215.13 253.55 215.023 253.25C214.817 252.694 214.655 252.125 214.43 251.575C213.811 250.088 212.942 248.838 212.648 247.306C212.398 245.994 213.067 244.438 213.673 243.144C214.417 241.556 215.273 240.025 216.036 238.444C216.717 237.025 217.548 236.138 218.823 235.131C220.098 234.125 221.436 233.281 222.767 232.394C225.636 230.475 228.942 229.419 232.255 228.575C235.755 227.681 239.317 227.05 242.836 226.244C246.736 225.35 250.692 224.525 254.717 224.894C261.073 225.481 267.842 228.556 272.767 232.706C275.348 234.881 277.467 237.6 279.436 240.325C281.405 243.05 283.105 245.931 283.911 249.194C284.311 250.825 284.442 252.456 284.392 254.138C284.323 256.444 287.905 256.444 287.98 254.138L287.973 254.131Z" fill="black"/>
<path d="M303.919 257.919C301.969 258.487 300.156 260.294 301.881 260.831C306.106 262.15 306.481 265.187 296.844 267.75C282.156 271.65 287.644 265.544 269.206 269.581C243.75 275.156 217.206 272.669 193.813 261.087C179.113 253.806 195.169 251.681 198.056 250.687C204.863 248.35 214.375 247.819 218.375 248.775C222.375 249.731 233.675 257.844 233.675 257.844C233.675 257.844 241.581 253.712 244.519 254.356C247.456 255 253.131 257.844 253.131 257.844C253.131 257.844 255.781 253.25 263.175 252.044C267.369 251.356 272.663 253.356 276.375 253.994L275.219 251.519C275.219 251.519 277.144 248.806 281.019 248.325C284.894 247.844 285.713 248.25 285.713 248.25C285.713 248.25 291.413 248.369 293.788 248.519C297.538 248.756 307.381 249.912 309.688 250.431C313.406 251.275 317.569 253.937 303.925 257.912L303.919 257.919Z" fill="#018D52"/>
<path d="M199.125 250.506C199.125 250.506 216.9 244.6 235.344 259.925" stroke="black" stroke-width="3.75625" stroke-linecap="round" stroke-linejoin="round"/>
<path d="M253.131 257.844C251.481 256.519 246.988 254.731 243.731 254.731C239.144 254.737 235.513 257.712 235.344 257.844" stroke="black" stroke-width="3.75625" stroke-linecap="round" stroke-linejoin="round"/>
<path d="M251.875 256.337C251.875 256.337 258.031 252.544 263.169 252.037C268.313 251.537 272.6 251.862 279.425 255.031" stroke="black" stroke-width="3.75625" stroke-linecap="round" stroke-linejoin="round"/>
<path d="M296.838 247.987C296.838 247.987 284.344 246.962 280.769 247.644C277.2 248.325 272.188 252.45 272.188 252.45" stroke="black" stroke-width="3.75625" stroke-linecap="round" stroke-linejoin="round"/>
<path d="M256.256 232.337C257.364 232.337 258.263 231.526 258.263 230.525C258.263 229.524 257.364 228.712 256.256 228.712C255.148 228.712 254.25 229.524 254.25 230.525C254.25 231.526 255.148 232.337 256.256 232.337Z" fill="#E8A500"/>
<path d="M249.264 232.512C250.372 232.512 251.27 231.701 251.27 230.7C251.27 229.699 250.372 228.887 249.264 228.887C248.156 228.887 247.258 229.699 247.258 230.7C247.258 231.701 248.156 232.512 249.264 232.512Z" fill="#E8A500"/>
<path d="M252.178 241.287C253.286 241.287 254.184 240.476 254.184 239.475C254.184 238.474 253.286 237.662 252.178 237.662C251.07 237.662 250.172 238.474 250.172 239.475C250.172 240.476 251.07 241.287 252.178 241.287Z" fill="#E8A500"/>
<path d="M271.655 241.287C272.763 241.287 273.661 240.476 273.661 239.475C273.661 238.474 272.763 237.662 271.655 237.662C270.547 237.662 269.648 238.474 269.648 239.475C269.648 240.476 270.547 241.287 271.655 241.287Z" fill="#E8A500"/>
<path d="M286.094 257.881C286.094 257.881 290.85 259.381 292.956 259.469" stroke="black" stroke-width="3.75625" stroke-linecap="round" stroke-linejoin="round"/>
</svg>
