<svg width="380" height="80" viewBox="0 0 380 80" fill="none" xmlns="http://www.w3.org/2000/svg">
<path d="M378.413 31.83C378.374 19.8787 368.067 10.7565 354.683 8.76408C350.864 8.25295 346.984 8.15203 343.35 8.44503C340.778 8.56223 337.025 9.53241 334.762 11.3621C333.115 11.8732 331.565 12.6545 330.263 13.6019C327.515 9.32405 321.775 7.41626 316.465 7.7581C312.634 7.25674 308.375 7.39998 304.84 8.97895C295.75 5.55731 282.731 7.4358 280.419 17.3263C280.406 17.3784 279.579 21.2103 279.218 22.8934C276.675 22.3888 274.729 22.4506 272.446 22.9195C271.73 18.4886 271.681 17.5217 269.604 14.7349C268.299 13.1461 265.886 11.0463 261.814 9.96866C258.324 3.32071 248.902 0.0325482 241.241 -7.90285e-06C232.175 -0.107443 223.209 4.54156 218.7 11.7658C207.995 6.62189 194.722 6.98978 184.187 12.7522C179.362 9.31754 173.727 10.5579 167.313 10.3072C161.277 10.3886 154.079 10.1672 148.45 10.6198C145.484 8.39294 141.376 7.54649 137.541 7.7581C132.732 7.09396 127.289 7.59206 123.366 10.3984C118.007 10.2421 111.47 10.3203 105.688 10.33C99.1245 10.6328 93.7267 9.42172 88.6349 12.9085C76.1432 5.65172 58.9796 6.89862 47.5296 15.4999C42.2653 10.8086 32.7362 8.06738 24.773 8.28225C20.2216 8.31155 15.6963 8.49061 11.8808 11.3621C5.20026 13.5628 2.01628 18.5374 2 23.8245V29.206C2 35.727 2.03581 45.7901 2.10092 52.4869C2.20185 57.38 2.04232 58.6888 2.22464 61.8012C2.82041 66.6553 6.28763 70.6857 11.4999 72.5837C20.3681 75.8849 32.5343 73.186 35.9853 65.913C37.7368 62.5923 37.0564 58.8841 37.1833 55.1597C37.3852 55.0783 37.5773 54.9904 37.7726 54.909C47.9138 75.1524 78.8551 80.153 95.781 63.7252C96.0154 64.0117 96.2433 64.2982 96.507 64.5652C100.83 69.1425 108.774 70.5392 115.416 69.263C117.773 70.7736 120.865 71.861 123.646 72.4242C129.571 73.5897 136.623 72.587 140.76 68.3319C144.986 69.8132 150.244 69.3379 154.769 67.7101C161.635 71.034 172.607 70.2397 178.148 65.0047C187.573 73.0037 203.105 75.9565 215.184 71.5322C218.797 79.4368 225.676 80.4981 233.952 79.8437C242.866 79.0656 250.93 75.8849 255.967 69.7025C261.709 70.1225 268.862 69.1979 273.361 66.1051C278.505 73.2186 287.95 73.2153 296.056 70.2234C303.15 73.785 313.278 74.218 319.278 68.7291C319.418 68.5989 319.552 68.4686 319.685 68.3352C322.085 69.2239 325.747 69.4649 328.632 68.9798C336.432 76.9397 354.641 75.0059 358.866 65.9228C360.618 62.5988 359.938 58.8972 360.065 55.1695C371.567 50.8819 378.758 40.3728 378.42 31.8398L378.413 31.83Z" fill="#151027"/>
<path d="M230.071 69.0514C228.756 69.0514 227.848 68.9602 227.343 68.7747C226.839 68.4686 226.458 67.9152 226.207 67.1176C225.953 66.3199 225.829 65.4312 225.829 64.448C225.829 63.0057 226.132 61.6416 226.738 60.3524C226.94 59.9845 227.184 59.6622 227.47 59.3855C227.757 59.1088 227.968 58.972 228.102 58.972C231.536 58.9102 233.946 58.4121 235.326 57.4777C236.706 56.5433 237.397 55.2769 237.397 53.6817C237.397 52.2101 236.967 50.4912 236.107 48.528C235.248 46.5649 234.229 44.465 233.05 42.2252C232.074 40.3532 231.123 38.4226 230.195 36.427C229.267 34.4345 228.502 32.4323 227.897 30.4236C227.291 28.4149 226.988 26.429 226.988 24.4659C226.988 22.7502 227.307 21.0703 227.949 19.4294C228.587 17.7886 229.648 16.2487 231.133 14.8065C232.513 13.488 234.089 12.5145 235.857 11.8862C237.624 11.2579 239.418 10.9421 241.238 10.9421C244.709 10.9421 247.808 11.9708 250.536 14.0251C250.871 14.3312 251.041 14.7316 251.041 15.2199C251.041 16.2324 250.543 17.4045 249.55 18.7393C248.557 20.0741 247.554 21.0019 246.545 21.5228C246.141 21.7084 245.744 21.8614 245.357 21.9818C244.969 22.1055 244.725 22.1674 244.624 22.1674C244.591 22.1674 244.523 22.1381 244.422 22.0762C244.119 21.8939 243.657 21.6693 243.032 21.4089C242.407 21.1484 241.71 21.0182 240.935 21.0182C239.991 21.0182 239.285 21.347 238.813 22.0079C238.341 22.6688 238.106 23.4273 238.106 24.2868C238.106 25.6965 238.526 27.4447 239.369 29.5316C240.209 31.6184 241.206 33.8876 242.352 36.3423C243.361 38.4585 244.338 40.6299 245.282 42.8535C246.226 45.0771 247.017 47.3007 247.655 49.5243C248.293 51.7478 248.615 53.8705 248.615 55.8955C248.615 57.9205 248.212 59.7371 247.404 61.4398C246.597 63.1425 245.223 64.6075 243.286 65.8348C241.349 67.0622 238.728 67.9966 235.43 68.6412C234.789 68.7649 233.965 68.8626 232.953 68.9407C231.943 69.0156 230.983 69.0546 230.071 69.0546V69.0514Z" fill="white"/>
<path fill-rule="evenodd" clip-rule="evenodd" d="M127.119 61.876C127.471 61.9053 127.885 61.9216 128.357 61.9216V61.9151C128.998 61.9151 129.636 61.8532 130.277 61.7295C130.919 61.6058 131.423 61.3779 131.794 61.0393C131.86 60.9775 131.918 60.8863 131.97 60.7626C132.022 60.6389 132.087 60.424 132.172 60.118C132.257 59.812 132.367 59.366 132.501 58.7832C132.634 58.2004 132.804 57.4028 133.006 56.3903C133.273 55.2867 133.611 53.8444 134.015 52.0669H141.949C142.284 52.9882 142.571 53.7696 142.808 54.4142C143.248 55.5178 143.567 56.3155 143.769 56.8071C143.97 57.2986 144.137 57.6047 144.273 57.7284C144.778 58.0995 145.488 58.2818 146.396 58.2818C147.946 58.2818 149.671 57.8749 151.576 57.061C153.48 56.2471 154.431 55.3648 154.431 54.4142C154.431 54.3556 153.767 52.552 152.435 49.0099L151.494 46.5066C150.401 43.6 149.198 40.4008 147.887 36.9088C146.184 32.3868 144.67 28.3824 143.339 24.9021C142.007 21.4219 141.259 19.5434 141.089 19.2667C140.819 19.0225 140.458 18.863 140.002 18.7848C139.546 18.71 139.084 18.6709 138.612 18.6709L137.147 18.7165C136.909 18.7165 136.557 18.6872 136.085 18.6253C135.311 18.5048 134.467 18.443 133.559 18.443C132.918 18.443 132.322 18.5016 131.765 18.6253C131.208 18.749 130.746 18.9769 130.375 19.3155C130.238 19.5922 129.708 21.6791 128.783 25.5728C127.858 29.4697 126.813 33.969 125.651 39.077C124.489 44.1818 123.46 48.7397 122.568 52.7408C121.676 56.7452 121.23 58.806 121.23 58.9297C121.23 59.392 121.539 59.8185 122.164 60.2189C122.786 60.6161 123.496 60.9482 124.287 61.2086C125.078 61.4691 125.794 61.6612 126.436 61.7849C126.537 61.8142 126.765 61.8467 127.119 61.876ZM137.931 41.4471C138.049 41.7238 138.127 41.9094 138.159 42.0006L138.156 41.9973H136.945C136.675 41.9973 136.499 41.9908 136.414 41.9745C136.33 41.9615 136.287 41.9354 136.287 41.9061L136.339 41.815C136.37 41.6695 136.431 41.4084 136.521 41.0263L136.541 40.9392C136.606 40.6658 136.665 40.3825 136.717 40.0895C136.769 39.7998 136.818 39.5523 136.87 39.3537C136.922 39.1552 136.964 39.0542 136.997 39.0542C137.03 39.1161 137.098 39.2821 137.199 39.5589C137.3 39.8356 137.42 40.1416 137.554 40.4802C137.687 40.8481 137.814 41.1704 137.931 41.4471Z" fill="white"/>
<path fill-rule="evenodd" clip-rule="evenodd" d="M62.6715 61.5081C65.2336 62.2732 67.7763 62.6574 70.3026 62.6574C74.8181 62.6574 78.8681 61.6286 82.4558 59.5743C86.0435 57.52 88.8726 54.8276 90.9432 51.5004C93.0137 48.1732 94.049 44.7743 94.049 40.7569C94.049 36.7395 92.9388 33.09 90.7153 29.8083C88.4917 26.5267 85.5584 23.9189 81.9219 21.9883C78.2854 20.0578 74.3591 19.0909 70.1496 19.0909C66.8159 19.0909 63.4463 19.781 60.0442 21.1614C55.4277 23.245 51.9833 26.0676 49.7109 29.626C47.4352 33.1844 46.299 36.9251 46.299 40.8513C46.299 45.2073 47.6729 49.2996 50.4174 53.1347C53.1651 56.9698 57.2476 59.7599 62.6715 61.5081ZM72.9299 52.3046C71.8165 52.5194 70.7551 52.6269 69.7459 52.6269H69.7426C67.2488 52.6269 65.0676 52.0441 63.1989 50.8786C61.3302 49.7131 59.8814 48.2188 58.8526 46.3924C57.8271 44.566 57.3127 42.6419 57.3127 40.6169C57.3127 38.7157 57.8434 36.8827 58.9047 35.1182C59.9661 33.3569 61.4571 31.9212 63.3779 30.8176C65.2987 29.7139 67.6037 29.1604 70.1984 29.1604C72.7931 29.1604 75.0493 29.7302 76.9701 30.8631C78.8909 31.9993 80.3722 33.4578 81.4172 35.2354C82.459 37.013 82.9832 38.8849 82.9832 40.8481C82.9832 43.3614 82.14 45.7022 80.4568 47.8639C78.7737 50.0256 76.2636 51.5069 72.9299 52.3046Z" fill="white"/>
<path fill-rule="evenodd" clip-rule="evenodd" d="M15.96 62.4262C17.0539 62.8267 18.2748 63.0253 19.6226 63.0253L19.6193 63.0285C20.8662 63.0285 22.0187 62.8755 23.08 62.5695C24.1414 62.2634 24.8251 61.8174 25.1278 61.2347C25.1278 61.1942 25.132 61.0172 25.1395 60.7018L25.1539 60.0854C25.1701 59.379 25.1799 58.5032 25.1799 57.4614L25.1311 47.203C31.2614 46.0408 35.8583 44.0158 38.9251 41.1313C41.9886 38.2468 43.522 35.1508 43.522 31.8366C43.522 29.0758 42.4118 26.5592 40.1883 24.2901C37.9647 22.0176 34.5951 20.455 30.0829 19.5955C28.2272 19.3513 26.4594 19.2276 24.7762 19.2276C23.5619 19.2276 22.5005 19.2667 21.5922 19.3415C20.6839 19.4197 20.0947 19.5173 19.8244 19.6411C19.5542 19.7648 19.3687 19.9015 19.2677 20.0545C19.1668 20.2075 19.0984 20.3443 19.0659 20.468C18.9975 20.6503 18.8901 20.8196 18.7371 20.9726C18.5841 21.1256 18.2878 21.233 17.8515 21.2949C16.6405 21.4479 15.7614 21.6628 15.2243 21.9395C14.6871 22.2162 14.3485 22.5223 14.215 22.8608C14.0816 23.1994 14.0132 23.5217 14.0132 23.8278V29.2093C14.0132 32.3998 14.0229 36.1567 14.0392 40.4802C14.0555 44.8036 14.0816 48.7755 14.1141 52.3957C14.1499 56.0159 14.1662 58.5162 14.1662 59.8966V60.5868C14.2671 61.4137 14.8662 62.0258 15.96 62.4262ZM29.9787 34.8675C28.3281 35.8182 26.697 36.4953 25.079 36.8925L25.0757 36.8958L25.0236 29.2125C25.0888 29.2125 25.5022 29.2516 26.2608 29.3265C27.0193 29.4014 27.8788 29.5414 28.8392 29.7399C29.7996 29.9385 30.6396 30.2218 31.3656 30.5897C32.0916 30.9575 32.4529 31.4329 32.4529 32.0156C32.4529 32.9662 31.6293 33.9169 29.9787 34.8675Z" fill="white"/>
<path d="M110.522 58.793C108.904 58.6693 107.736 58.4804 107.01 58.2167C106.284 57.9563 105.789 57.6568 105.519 57.3182L105.466 57.2726C105.398 57.2108 105.349 57.1489 105.313 57.087C105.281 57.0252 105.255 56.9177 105.239 56.7647C105.222 56.6117 105.206 56.3806 105.19 56.0746C105.173 55.7685 105.164 55.3551 105.164 54.8309C105.164 53.9421 105.18 52.6236 105.216 50.8753C105.248 47.4081 105.284 40.8904 105.317 31.3222H99.8603C98.8836 31.3222 98.125 31.3157 97.5878 31.2994C97.0474 31.2831 96.6437 31.2603 96.3768 31.231C96.1065 31.2017 95.921 31.1464 95.82 31.0715C95.7191 30.9966 95.6345 30.8957 95.5661 30.772C95.5336 30.7427 95.4977 30.6971 95.4652 30.6352C94.6904 29.3786 94.3029 27.9201 94.3029 26.263C94.3029 25.1593 94.4625 24.1468 94.7815 23.2255C95.1006 22.3041 95.5661 21.7214 96.1717 21.4772C96.3735 21.4154 97.3665 21.3698 99.1538 21.3405C100.938 21.3112 103.145 21.2884 105.772 21.2721C108.4 21.2558 110.978 21.2493 113.505 21.2493C116.031 21.2493 118.196 21.2558 119.996 21.2721C121.797 21.2884 122.767 21.3112 122.9 21.3405C123.506 21.6465 123.968 22.2846 124.29 23.2515C124.609 24.2184 124.769 25.2537 124.769 26.3574C124.769 27.3406 124.632 28.2586 124.365 29.1181C124.095 29.9776 123.675 30.6059 123.102 31.0031C123.069 31.0324 123.017 31.065 122.949 31.0943C122.881 31.1236 122.773 31.1496 122.62 31.1627C122.467 31.1789 122.249 31.1854 121.963 31.1854H120.826C120.354 31.1854 119.749 31.2017 119.006 31.231H116.278L116.177 56.6736C116.177 57.1033 115.621 57.5624 114.51 58.054C113.397 58.5456 112.069 58.7897 110.519 58.7897L110.522 58.793Z" fill="white"/>
<path d="M164.334 58.793C162.716 58.6693 161.547 58.4804 160.821 58.2167C160.095 57.9563 159.601 57.6568 159.33 57.3182L159.278 57.2726C159.21 57.2108 159.161 57.1489 159.125 57.087C159.093 57.0252 159.067 56.9177 159.05 56.7647C159.034 56.6117 159.018 56.3806 159.002 56.0746C158.985 55.7685 158.976 55.3551 158.976 54.8309C158.976 53.9421 158.992 52.6236 159.028 50.8753C159.06 47.4081 159.096 40.8904 159.129 31.3222H153.672C152.695 31.3222 151.937 31.3157 151.4 31.2994C150.859 31.2831 150.456 31.2603 150.189 31.231C149.918 31.2017 149.733 31.1464 149.632 31.0715C149.531 30.9966 149.446 30.8957 149.378 30.772C149.345 30.7427 149.31 30.6971 149.277 30.6352C148.502 29.3786 148.115 27.9201 148.115 26.263C148.115 25.1593 148.274 24.1468 148.593 23.2255C148.912 22.3041 149.378 21.7214 149.984 21.4772C150.185 21.4154 151.178 21.3698 152.966 21.3405C154.75 21.3112 156.957 21.2884 159.584 21.2721C162.212 21.2558 164.79 21.2493 167.316 21.2493C169.843 21.2493 172.008 21.2558 173.808 21.2721C175.608 21.2884 176.579 21.3112 176.712 21.3405C177.318 21.6465 177.78 22.2846 178.102 23.2515C178.421 24.2184 178.581 25.2537 178.581 26.3574C178.581 27.3406 178.444 28.2586 178.177 29.1181C177.907 29.9776 177.487 30.6059 176.914 31.0031C176.881 31.0324 176.829 31.065 176.761 31.0943C176.693 31.1236 176.585 31.1496 176.432 31.1627C176.279 31.1789 176.061 31.1854 175.774 31.1854H174.638C174.166 31.1854 173.561 31.2017 172.818 31.231H170.09L169.989 56.6736C169.989 57.1033 169.433 57.5624 168.322 58.054C167.209 58.5456 165.881 58.7897 164.331 58.7897L164.334 58.793Z" fill="white"/>
<path fill-rule="evenodd" clip-rule="evenodd" d="M194.953 61.5081C197.515 62.2732 200.058 62.6574 202.584 62.6574C207.1 62.6574 211.15 61.6286 214.738 59.5743C218.325 57.52 221.154 54.8276 223.225 51.5004C225.296 48.1732 226.331 44.7743 226.331 40.7569C226.331 36.7395 225.221 33.09 222.997 29.8083C220.773 26.5267 217.84 23.9189 214.204 21.9883C210.567 20.0578 206.641 19.0909 202.431 19.0909C199.098 19.0909 195.728 19.781 192.326 21.1614C187.71 23.245 184.265 26.0676 181.993 29.626C179.717 33.1844 178.581 36.9251 178.581 40.8513C178.581 45.2073 179.955 49.2996 182.699 53.1347C185.447 56.9698 189.529 59.7599 194.953 61.5081ZM205.212 52.3046C204.098 52.5194 203.037 52.6269 202.028 52.6269H202.024C199.531 52.6269 197.349 52.0441 195.481 50.8786C193.612 49.7131 192.163 48.2188 191.134 46.3924C190.109 44.566 189.595 42.6419 189.595 40.6169C189.595 38.7157 190.125 36.8827 191.187 35.1182C192.248 33.3569 193.739 31.9212 195.66 30.8176C197.581 29.7139 199.885 29.1604 202.48 29.1604C205.075 29.1604 207.331 29.7302 209.252 30.8631C211.173 31.9993 212.654 33.4578 213.699 35.2354C214.741 37.013 215.265 38.8849 215.265 40.8481C215.265 43.3614 214.422 45.7022 212.739 47.8639C211.055 50.0256 208.545 51.5069 205.212 52.3046Z" fill="white"/>
<path d="M284.388 60.9547C284.86 61.1077 285.381 61.1858 285.954 61.1858L285.947 61.1826C287.09 61.1826 288.347 60.997 289.711 60.6291C291.075 60.2612 292.254 59.8445 293.246 59.3855C294.239 58.9264 294.786 58.5293 294.887 58.1907L302.87 22.0274C302.906 21.8744 302.922 21.7214 302.922 21.5684C302.922 20.8619 302.544 20.2726 301.786 19.7973C301.027 19.322 300.087 18.9639 298.957 18.7165C297.827 18.4723 296.743 18.3486 295.698 18.3486C294.79 18.3486 293.999 18.4495 293.325 18.6481C292.651 18.8499 292.263 19.1625 292.162 19.5922C290.274 28.3335 288.936 34.5843 288.145 38.3413C287.354 42.0982 286.875 44.3609 286.706 45.1259C286.673 45.2496 286.647 45.3506 286.631 45.4255C286.612 45.5036 286.605 45.572 286.605 45.6338C286.605 45.6957 286.595 45.7478 286.579 45.7933C286.559 45.8389 286.553 45.878 286.553 45.9073C286.553 45.9366 286.543 45.9594 286.527 45.9757C286.507 45.9919 286.501 46.0147 286.501 46.044C286.465 46.044 286.358 45.9138 286.172 45.6533C285.986 45.3929 285.742 45.0641 285.44 44.6636C285.169 44.2632 284.867 43.8497 284.531 43.42C283.519 41.9485 282.627 40.6137 281.852 39.4189C280.641 37.5469 279.596 36.0884 278.72 35.0466C277.844 34.0048 276.9 33.4839 275.891 33.4839C274.644 33.4839 273.078 34.3596 271.193 36.1079C269.308 37.8562 266.677 40.6625 263.311 44.5269C262.706 39.8649 262.191 36.0395 261.771 33.0476C261.351 30.0557 260.97 27.4024 260.635 25.0877C260.296 22.7729 260.078 21.5065 259.977 21.2916C259.675 20.9238 259.16 20.6503 258.438 20.4647C257.712 20.2792 256.894 20.188 255.986 20.188C254.674 20.188 253.375 20.3638 252.096 20.7154C250.816 21.0703 249.94 21.5977 249.468 22.3041L249.42 22.6264C249.42 23.4241 249.638 25.4263 250.077 28.6298C250.513 31.8366 251.002 35.3168 251.542 39.0738C252.079 42.8307 252.568 46.1189 253.007 48.9415C253.343 51.0902 253.564 52.5487 253.665 53.3138C253.798 54.1114 253.899 54.7853 253.968 55.3388C254.069 56.1071 254.16 56.6736 254.244 57.0415C254.329 57.4093 254.44 57.6861 254.573 57.8684C254.707 58.0507 254.908 58.2037 255.179 58.3274C256.054 58.6953 257.116 58.8809 258.363 58.8809C259.945 58.8809 261.511 58.7148 263.061 58.3763C264.61 58.0409 265.518 57.7805 265.789 57.5949L274.582 47.8411C274.615 47.8411 274.816 48.1081 275.188 48.6452C275.559 49.1824 276.031 49.8661 276.604 50.693C277.515 52.0115 278.508 53.4375 279.586 54.9709C280.664 56.5075 281.65 57.8488 282.542 58.9981C283.437 60.1506 284.049 60.8017 284.388 60.9547Z" fill="white"/>
<path fill-rule="evenodd" clip-rule="evenodd" d="M307.278 61.9216C306.806 61.9216 306.393 61.9053 306.041 61.876C305.686 61.8467 305.458 61.8142 305.357 61.7849C304.716 61.6612 304 61.4691 303.209 61.2086C302.418 60.9482 301.708 60.6161 301.086 60.2189C300.461 59.8185 300.152 59.392 300.152 58.9297C300.152 58.806 300.598 56.7452 301.49 52.7408C302.382 48.7397 303.41 44.1818 304.573 39.077C305.735 33.969 306.78 29.4697 307.705 25.5728C308.629 21.6791 309.16 19.5922 309.297 19.3155C309.668 18.9769 310.13 18.749 310.687 18.6253C311.243 18.5016 311.839 18.443 312.481 18.443C313.389 18.443 314.232 18.5048 315.007 18.6253C315.479 18.6872 315.831 18.7165 316.068 18.7165L317.533 18.6709C318.005 18.6709 318.468 18.71 318.923 18.7848C319.379 18.863 319.741 19.0225 320.011 19.2667C320.18 19.5434 320.929 21.4219 322.26 24.9021C323.592 28.3824 325.106 32.3868 326.809 36.9088C328.116 40.3903 329.315 43.5808 330.406 46.4803L331.357 49.0099C332.688 52.552 333.352 54.3556 333.352 54.4142C333.352 55.3648 332.402 56.2471 330.497 57.061C328.593 57.8749 326.867 58.2818 325.317 58.2818C324.409 58.2818 323.699 58.0995 323.195 57.7284C323.058 57.6047 322.892 57.2986 322.69 56.8071C322.488 56.3155 322.169 55.5178 321.73 54.4142C321.492 53.7696 321.206 52.9882 320.87 52.0669H312.936C312.533 53.8444 312.194 55.2867 311.927 56.3903C311.725 57.4028 311.556 58.2004 311.423 58.7832C311.289 59.366 311.178 59.812 311.094 60.118C311.009 60.424 310.944 60.6389 310.892 60.7626C310.84 60.8863 310.781 60.9775 310.716 61.0393C310.345 61.3779 309.84 61.6058 309.199 61.7295C308.558 61.8532 307.919 61.9151 307.278 61.9151V61.9216ZM317.081 42.0006C317.048 41.9094 316.97 41.7238 316.853 41.4471C316.736 41.1704 316.609 40.8481 316.475 40.4802C316.342 40.1416 316.221 39.8356 316.12 39.5589C316.019 39.2821 315.951 39.1161 315.919 39.0542C315.886 39.0542 315.844 39.1552 315.792 39.3537C315.739 39.5523 315.691 39.7998 315.639 40.0895C315.586 40.3825 315.528 40.6658 315.463 40.9392L315.441 41.0311C315.352 41.4105 315.291 41.6701 315.261 41.815L315.209 41.9061C315.209 41.9354 315.251 41.9615 315.336 41.9745C315.42 41.9908 315.596 41.9973 315.866 41.9973H317.078L317.081 42.0006Z" fill="white"/>
<path fill-rule="evenodd" clip-rule="evenodd" d="M338.835 62.4262C339.929 62.8267 341.149 63.0253 342.497 63.0253L342.494 63.0285C343.741 63.0285 344.893 62.8755 345.955 62.5695C347.016 62.2634 347.7 61.8174 348.003 61.2347C348.003 61.2094 348.004 61.1306 348.007 60.9979C348.012 60.8064 348.019 60.5027 348.029 60.0854C348.045 59.379 348.055 58.5032 348.055 57.4614L348.006 47.203C354.136 46.0408 358.733 44.0158 361.8 41.1313C364.863 38.2468 366.397 35.1508 366.397 31.8366C366.397 29.0758 365.287 26.5592 363.063 24.2901C360.839 22.0176 357.47 20.455 352.958 19.5955C351.102 19.3513 349.334 19.2276 347.651 19.2276C346.437 19.2276 345.375 19.2667 344.467 19.3415C343.559 19.4197 342.969 19.5173 342.699 19.6411C342.429 19.7648 342.243 19.9015 342.142 20.0545C342.042 20.2075 341.973 20.3443 341.941 20.468C341.872 20.6503 341.765 20.8196 341.612 20.9726C341.459 21.1256 341.162 21.233 340.726 21.2949C339.515 21.4479 338.636 21.6628 338.099 21.9395C337.562 22.2162 337.223 22.5223 337.09 22.8608C336.956 23.1994 336.888 23.5217 336.888 23.8278V29.2093C336.888 32.3998 336.898 36.1567 336.914 40.4802C336.93 44.8036 336.956 48.7755 336.989 52.3957C337.025 56.0159 337.041 58.5162 337.041 59.8966V60.5868C337.142 61.4137 337.741 62.0258 338.835 62.4262ZM352.853 34.8675C351.203 35.8182 349.572 36.4953 347.954 36.8925L347.95 36.8958L347.898 29.2125C347.963 29.2125 348.377 29.2516 349.135 29.3265C349.894 29.4014 350.753 29.5414 351.714 29.7399C352.674 29.9385 353.514 30.2218 354.24 30.5897C354.966 30.9575 355.328 31.4329 355.328 32.0156C355.328 32.9662 354.504 33.9169 352.853 34.8675Z" fill="white"/>
</svg>
