<svg width="40" height="40" viewBox="0 0 40 40" fill="none" xmlns="http://www.w3.org/2000/svg">
<rect x="-1" y="1" width="38" height="38" rx="19" transform="matrix(-1 0 0 1 38 0)" fill="white"/>
<rect x="-1" y="1" width="38" height="38" rx="19" transform="matrix(-1 0 0 1 38 0)" stroke="black" stroke-width="2"/>
<path d="M24.6 21L19.7 25.9C19.5 26.1 19.4042 26.3333 19.4125 26.6C19.4208 26.8667 19.525 27.1 19.725 27.3C19.925 27.4833 20.1583 27.5792 20.425 27.5875C20.6917 27.5958 20.925 27.5 21.125 27.3L27.725 20.7C27.825 20.6 27.8958 20.4917 27.9375 20.375C27.9792 20.2583 28 20.1333 28 20C28 19.8667 27.9792 19.7417 27.9375 19.625C27.8958 19.5083 27.825 19.4 27.725 19.3L21.125 12.7C20.9417 12.5167 20.7125 12.425 20.4375 12.425C20.1625 12.425 19.925 12.5167 19.725 12.7C19.525 12.9 19.425 13.1375 19.425 13.4125C19.425 13.6875 19.525 13.925 19.725 14.125L24.6 19H13.425C13.1417 19 12.9042 19.0958 12.7125 19.2875C12.5208 19.4792 12.425 19.7167 12.425 20C12.425 20.2833 12.5208 20.5208 12.7125 20.7125C12.9042 20.9042 13.1417 21 13.425 21H24.6Z" fill="#151027"/>
</svg>
