<svg width="25" height="24" viewBox="0 0 25 24" fill="none" xmlns="http://www.w3.org/2000/svg">
<path d="M12.332 1C8.96803 1 6.33203 3.636 6.33203 7V8C5.23203 8 4.33203 8.9 4.33203 10V20C4.33203 21.1 5.23203 22 6.33203 22H18.332C19.432 22 20.332 21.1 20.332 20V10C20.332 8.9 19.432 8 18.332 8V7C18.332 3.636 15.696 1 12.332 1ZM12.332 3C14.575 3 16.332 4.757 16.332 7V8H8.33203V7C8.33203 4.757 10.089 3 12.332 3ZM6.33203 10H18.332V20H6.33203V10ZM8.33203 14C8.06681 14 7.81246 14.1054 7.62492 14.2929C7.43739 14.4804 7.33203 14.7348 7.33203 15C7.33203 15.2652 7.43739 15.5196 7.62492 15.7071C7.81246 15.8946 8.06681 16 8.33203 16C8.59725 16 8.8516 15.8946 9.03914 15.7071C9.22667 15.5196 9.33203 15.2652 9.33203 15C9.33203 14.7348 9.22667 14.4804 9.03914 14.2929C8.8516 14.1054 8.59725 14 8.33203 14ZM12.332 14C12.0668 14 11.8125 14.1054 11.6249 14.2929C11.4374 14.4804 11.332 14.7348 11.332 15C11.332 15.2652 11.4374 15.5196 11.6249 15.7071C11.8125 15.8946 12.0668 16 12.332 16C12.5972 16 12.8516 15.8946 13.0391 15.7071C13.2267 15.5196 13.332 15.2652 13.332 15C13.332 14.7348 13.2267 14.4804 13.0391 14.2929C12.8516 14.1054 12.5972 14 12.332 14ZM16.332 14C16.0668 14 15.8125 14.1054 15.6249 14.2929C15.4374 14.4804 15.332 14.7348 15.332 15C15.332 15.2652 15.4374 15.5196 15.6249 15.7071C15.8125 15.8946 16.0668 16 16.332 16C16.5972 16 16.8516 15.8946 17.0391 15.7071C17.2267 15.5196 17.332 15.2652 17.332 15C17.332 14.7348 17.2267 14.4804 17.0391 14.2929C16.8516 14.1054 16.5972 14 16.332 14Z" fill="#7ABBFF"/>
</svg>
