<svg width="64" height="64" viewBox="0 0 64 64" fill="none" xmlns="http://www.w3.org/2000/svg">
<path d="M33.5401 23.5521C32.8873 24.1921 31.9977 24.8449 31.2041 24.8577C30.0393 24.8833 26.9609 24.1281 26.9609 24.1281C25.9945 23.8465 23.8505 23.7057 23.4665 23.3409C23.0825 22.9761 21.3545 22.1569 21.2841 21.9201C21.2521 21.8049 20.8873 21.1265 20.6377 20.2561C20.3817 19.3537 20.2473 18.2465 20.7273 17.3441C21.6681 15.5649 22.6217 15.8017 24.6761 15.5201C25.2905 15.4369 25.8985 15.4241 26.4617 15.4497C27.7865 15.5073 28.8809 15.7761 29.3225 15.8017C29.9497 15.8337 30.5961 15.8017 31.6457 16.2049C32.6313 16.5825 33.1305 16.5185 34.1545 17.5041C34.2185 17.8369 34.2569 18.1697 34.2505 18.5089C34.2377 19.9361 33.5593 21.2865 33.5145 22.7137C33.5081 22.9953 33.5145 23.2769 33.5273 23.5649L33.5401 23.5521Z" fill="#F0D205" stroke="black" stroke-width="1.28" stroke-linecap="round" stroke-linejoin="round"/>
<path d="M25.0099 17.2864C25.1513 17.2864 25.2659 17.1718 25.2659 17.0304C25.2659 16.8891 25.1513 16.7744 25.0099 16.7744C24.8685 16.7744 24.7539 16.8891 24.7539 17.0304C24.7539 17.1718 24.8685 17.2864 25.0099 17.2864Z" fill="#E7A401"/>
<path d="M25.8029 17.6833C25.9443 17.6833 26.0589 17.5686 26.0589 17.4273C26.0589 17.2859 25.9443 17.1713 25.8029 17.1713C25.6615 17.1713 25.5469 17.2859 25.5469 17.4273C25.5469 17.5686 25.6615 17.6833 25.8029 17.6833Z" fill="#E7A401"/>
<path d="M25.4474 19.7441C25.5888 19.7441 25.7034 19.6294 25.7034 19.4881C25.7034 19.3467 25.5888 19.2321 25.4474 19.2321C25.306 19.2321 25.1914 19.3467 25.1914 19.4881C25.1914 19.6294 25.306 19.7441 25.4474 19.7441Z" fill="#E7A401"/>
<path d="M32.4279 20.9537C32.5693 20.9537 32.6839 20.8391 32.6839 20.6977C32.6839 20.5563 32.5693 20.4417 32.4279 20.4417C32.2865 20.4417 32.1719 20.5563 32.1719 20.6977C32.1719 20.8391 32.2865 20.9537 32.4279 20.9537Z" fill="#E7A401"/>
<path d="M33.2404 19.2257C33.3818 19.2257 33.4964 19.1111 33.4964 18.9697C33.4964 18.8283 33.3818 18.7137 33.2404 18.7137C33.099 18.7137 32.9844 18.8283 32.9844 18.9697C32.9844 19.1111 33.099 19.2257 33.2404 19.2257Z" fill="#E7A401"/>
<path d="M31.2677 19.3984C31.4091 19.3984 31.5237 19.2838 31.5237 19.1424C31.5237 19.0011 31.4091 18.8864 31.2677 18.8864C31.1263 18.8864 31.0117 19.0011 31.0117 19.1424C31.0117 19.2838 31.1263 19.3984 31.2677 19.3984Z" fill="#E7A401"/>
<path d="M23.3966 17.5232C23.538 17.5232 23.6526 17.4086 23.6526 17.2672C23.6526 17.1258 23.538 17.0112 23.3966 17.0112C23.2552 17.0112 23.1406 17.1258 23.1406 17.2672C23.1406 17.4086 23.2552 17.5232 23.3966 17.5232Z" fill="#E7A401"/>
<path d="M24.2959 28.2624C23.2975 28.3968 21.2751 29.12 20.7759 28.9408C20.2767 28.7616 18.3631 28.704 18.2031 28.512C18.0431 28.32 15.7071 26.5472 15.8543 24.5376C16.0015 22.528 16.9743 22.3616 18.7407 21.28C20.5071 20.1984 22.5231 19.8912 23.1119 19.6672C23.7007 19.4432 24.2767 19.1552 25.4031 19.104C26.5295 19.0528 26.9519 18.7584 28.5135 19.3984C30.0751 20.0384 30.7727 20.5504 30.9007 21.5424C31.0351 22.5344 30.6191 23.168 30.4207 24.0512C30.2223 24.9344 29.5311 26.7392 28.4751 27.2256C27.4191 27.712 24.2959 28.256 24.2959 28.256V28.2624Z" fill="#F0D205" stroke="black" stroke-width="1.28" stroke-linecap="round" stroke-linejoin="round"/>
<path d="M19.6622 22.8033C19.8036 22.8033 19.9182 22.6886 19.9182 22.5473C19.9182 22.4059 19.8036 22.2913 19.6622 22.2913C19.5209 22.2913 19.4062 22.4059 19.4062 22.5473C19.4062 22.6886 19.5209 22.8033 19.6622 22.8033Z" fill="#E7A401"/>
<path d="M20.5451 22.8417C20.6864 22.8417 20.8011 22.7271 20.8011 22.5857C20.8011 22.4443 20.6864 22.3297 20.5451 22.3297C20.4037 22.3297 20.2891 22.4443 20.2891 22.5857C20.2891 22.7271 20.4037 22.8417 20.5451 22.8417Z" fill="#E7A401"/>
<path d="M21.0451 24.8768C21.1864 24.8768 21.3011 24.7622 21.3011 24.6208C21.3011 24.4795 21.1864 24.3648 21.0451 24.3648C20.9037 24.3648 20.7891 24.4795 20.7891 24.6208C20.7891 24.7622 20.9037 24.8768 21.0451 24.8768Z" fill="#E7A401"/>
<path d="M28.5802 23.0144C28.7216 23.0144 28.8362 22.8998 28.8362 22.7584C28.8362 22.617 28.7216 22.5024 28.5802 22.5024C28.4388 22.5024 28.3242 22.617 28.3242 22.7584C28.3242 22.8998 28.4388 23.0144 28.5802 23.0144Z" fill="#E7A401"/>
<path d="M28.6271 21.1072C28.7685 21.1072 28.8831 20.9926 28.8831 20.8512C28.8831 20.7099 28.7685 20.5952 28.6271 20.5952C28.4857 20.5952 28.3711 20.7099 28.3711 20.8512C28.3711 20.9926 28.4857 21.1072 28.6271 21.1072Z" fill="#E7A401"/>
<path d="M26.2404 22.2272C26.3818 22.2272 26.4964 22.1126 26.4964 21.9712C26.4964 21.8299 26.3818 21.7152 26.2404 21.7152C26.099 21.7152 25.9844 21.8299 25.9844 21.9712C25.9844 22.1126 26.099 22.2272 26.2404 22.2272Z" fill="#E7A401"/>
<path d="M18.2833 23.6673C18.4247 23.6673 18.5393 23.5527 18.5393 23.4113C18.5393 23.2699 18.4247 23.1553 18.2833 23.1553C18.142 23.1553 18.0273 23.2699 18.0273 23.4113C18.0273 23.5527 18.142 23.6673 18.2833 23.6673Z" fill="#E7A401"/>
<path d="M31.1652 28.2753C31.9844 28.8577 33.4372 30.4385 33.962 30.5153C34.4868 30.5921 36.2084 31.4241 36.4388 31.3345C36.6692 31.2449 39.562 30.7585 40.3684 28.9089C41.1748 27.0593 40.3876 26.4641 39.3316 24.6849C38.2692 22.9057 36.6308 21.6961 36.2148 21.2225C35.7988 20.7489 35.4276 20.2241 34.4548 19.6545C33.482 19.0849 33.2452 18.6305 31.5684 18.4705C29.8916 18.3105 29.034 18.4385 28.458 19.2513C27.882 20.0705 27.9524 20.8193 27.7156 21.6961C27.4788 22.5729 27.2548 24.4865 27.9588 25.4145C28.6628 26.3361 31.178 28.2753 31.178 28.2753H31.1652Z" fill="#F0D205" stroke="black" stroke-width="1.28" stroke-linecap="round" stroke-linejoin="round"/>
<path d="M37.9357 25.6257C38.0771 25.6257 38.1917 25.5111 38.1917 25.3697C38.1917 25.2283 38.0771 25.1137 37.9357 25.1137C37.7943 25.1137 37.6797 25.2283 37.6797 25.3697C37.6797 25.5111 37.7943 25.6257 37.9357 25.6257Z" fill="#E7A401"/>
<path d="M37.131 25.2545C37.2724 25.2545 37.387 25.1399 37.387 24.9985C37.387 24.8571 37.2724 24.7425 37.131 24.7425C36.9896 24.7425 36.875 24.8571 36.875 24.9985C36.875 25.1399 36.9896 25.2545 37.131 25.2545Z" fill="#E7A401"/>
<path d="M35.7404 26.8161C35.8818 26.8161 35.9964 26.7015 35.9964 26.5601C35.9964 26.4187 35.8818 26.3041 35.7404 26.3041C35.599 26.3041 35.4844 26.4187 35.4844 26.5601C35.4844 26.7015 35.599 26.8161 35.7404 26.8161Z" fill="#E7A401"/>
<path d="M29.9435 21.6641C30.0849 21.6641 30.1995 21.5495 30.1995 21.4081C30.1995 21.2667 30.0849 21.1521 29.9435 21.1521C29.8021 21.1521 29.6875 21.2667 29.6875 21.4081C29.6875 21.5495 29.8021 21.6641 29.9435 21.6641Z" fill="#E7A401"/>
<path d="M30.7833 19.9553C30.9247 19.9553 31.0393 19.8407 31.0393 19.6993C31.0393 19.5579 30.9247 19.4433 30.7833 19.4433C30.642 19.4433 30.5273 19.5579 30.5273 19.6993C30.5273 19.8407 30.642 19.9553 30.7833 19.9553Z" fill="#E7A401"/>
<path d="M32.3732 22.0545C32.5146 22.0545 32.6292 21.9399 32.6292 21.7985C32.6292 21.6571 32.5146 21.5425 32.3732 21.5425C32.2318 21.5425 32.1172 21.6571 32.1172 21.7985C32.1172 21.9399 32.2318 22.0545 32.3732 22.0545Z" fill="#E7A401"/>
<path d="M38.7482 27.0337C38.8896 27.0337 39.0042 26.9191 39.0042 26.7777C39.0042 26.6363 38.8896 26.5217 38.7482 26.5217C38.6068 26.5217 38.4922 26.6363 38.4922 26.7777C38.4922 26.9191 38.6068 27.0337 38.7482 27.0337Z" fill="#E7A401"/>
<path d="M24.8649 25.2224C25.8697 25.2416 27.9753 24.832 28.4425 25.088C28.9097 25.344 30.7913 25.6896 30.9193 25.9008C31.0473 26.112 33.0889 28.2176 32.6345 30.1824C32.1801 32.1472 31.2009 32.16 29.2873 32.96C27.3737 33.76 25.3385 33.76 24.7241 33.888C24.1097 34.016 23.4953 34.2208 22.3753 34.0992C21.2553 33.9776 20.7945 34.2016 19.3481 33.3376C17.9017 32.4736 17.2937 31.8592 17.3129 30.8608C17.3321 29.8624 17.8377 29.2992 18.1705 28.4544C18.5033 27.6096 19.4633 25.9328 20.5769 25.6128C21.6969 25.2928 24.8649 25.2288 24.8649 25.2288V25.2224Z" fill="#F0D205" stroke="black" stroke-width="1.28" stroke-linecap="round" stroke-linejoin="round"/>
<path d="M28.5841 31.8336C28.7255 31.8336 28.8401 31.719 28.8401 31.5776C28.8401 31.4362 28.7255 31.3216 28.5841 31.3216C28.4427 31.3216 28.3281 31.4362 28.3281 31.5776C28.3281 31.719 28.4427 31.8336 28.5841 31.8336Z" fill="#E7A401"/>
<path d="M27.713 31.6544C27.8544 31.6544 27.969 31.5398 27.969 31.3984C27.969 31.257 27.8544 31.1424 27.713 31.1424C27.5716 31.1424 27.457 31.257 27.457 31.3984C27.457 31.5398 27.5716 31.6544 27.713 31.6544Z" fill="#E7A401"/>
<path d="M27.5255 29.5745C27.6669 29.5745 27.7815 29.4599 27.7815 29.3185C27.7815 29.1771 27.6669 29.0625 27.5255 29.0625C27.3841 29.0625 27.2695 29.1771 27.2695 29.3185C27.2695 29.4599 27.3841 29.5745 27.5255 29.5745Z" fill="#E7A401"/>
<path d="M19.8029 30.2657C19.9443 30.2657 20.0589 30.151 20.0589 30.0097C20.0589 29.8683 19.9443 29.7537 19.8029 29.7537C19.6615 29.7537 19.5469 29.8683 19.5469 30.0097C19.5469 30.151 19.6615 30.2657 19.8029 30.2657Z" fill="#E7A401"/>
<path d="M19.4552 32.1408C19.5966 32.1408 19.7112 32.0262 19.7112 31.8848C19.7112 31.7435 19.5966 31.6288 19.4552 31.6288C19.3138 31.6288 19.1992 31.7435 19.1992 31.8848C19.1992 32.0262 19.3138 32.1408 19.4552 32.1408Z" fill="#E7A401"/>
<path d="M21.9904 31.4048C22.1318 31.4048 22.2464 31.2902 22.2464 31.1488C22.2464 31.0074 22.1318 30.8928 21.9904 30.8928C21.849 30.8928 21.7344 31.0074 21.7344 31.1488C21.7344 31.2902 21.849 31.4048 21.9904 31.4048Z" fill="#E7A401"/>
<path d="M30.0802 31.1872C30.2216 31.1872 30.3362 31.0726 30.3362 30.9312C30.3362 30.7898 30.2216 30.6752 30.0802 30.6752C29.9388 30.6752 29.8242 30.7898 29.8242 30.9312C29.8242 31.0726 29.9388 31.1872 30.0802 31.1872Z" fill="#E7A401"/>
<path d="M24.8975 57.5616L21.5183 57.8944L11.1055 56.4672L11.2015 42.2528L25.0831 41.824L24.8975 57.5616Z" fill="#9C8040" stroke="black" stroke-width="1.28" stroke-linecap="round" stroke-linejoin="round"/>
<path d="M26.7192 43.1872L21.7592 43.3408L11.1992 42.2528L25.0808 41.824L26.7192 43.1872Z" fill="black" stroke="black" stroke-width="1.28" stroke-linecap="round" stroke-linejoin="round"/>
<path d="M21.8372 45.7024L21.6836 55.6992" stroke="black" stroke-width="1.28" stroke-linecap="round" stroke-linejoin="round"/>
<path d="M50.4519 57.5936L38.5287 59.68C38.0167 59.7568 37.4983 59.7312 36.9991 59.6288C36.8583 59.5968 36.6983 59.5648 36.5319 59.5392C35.0983 59.2896 24.0711 57.28 24.0711 57.28L24.0391 42.9568L38.2535 40.4736L51.5591 42.048L50.4583 57.5936H50.4519Z" fill="#9C8040" stroke="black" stroke-width="1.28" stroke-linecap="round" stroke-linejoin="round"/>
<path d="M37.4297 57.3568V46.336" stroke="black" stroke-width="1.28" stroke-linecap="round" stroke-linejoin="round"/>
<path d="M14.3164 45.9072L16.1852 46.0352" stroke="black" stroke-width="1.28" stroke-linecap="round" stroke-linejoin="round"/>
<path d="M29.6797 46.6176L31.5933 46.784" stroke="black" stroke-width="1.28" stroke-linecap="round" stroke-linejoin="round"/>
<path d="M24.707 43.0656L37.0334 43.6608L51.0238 42.0736L37.8142 40.5504L24.707 43.0656Z" fill="black" stroke="black" stroke-width="1.28" stroke-linecap="round" stroke-linejoin="round"/>
<path d="M10.1914 30.304L14.7034 24.8448L26.5626 24.4736L25.3978 29.1776L10.1914 30.304Z" fill="#9C8040" stroke="black" stroke-width="1.28" stroke-linecap="round" stroke-linejoin="round"/>
<path d="M41.5242 25.0688L41.6586 41.888L26.145 43.0528L15.0218 42.0736L14.9258 24.9216L28.8394 24.5824L41.5242 25.0688Z" fill="#9C8040" stroke="black" stroke-width="1.28" stroke-linecap="round" stroke-linejoin="round"/>
<path d="M26.8281 42.2016V25.216" stroke="black" stroke-width="1.28" stroke-linecap="round" stroke-linejoin="round"/>
<path d="M21.7012 27.6224L19.2052 27.6096C18.8532 27.6096 18.5716 27.9041 18.5908 28.2561V28.3713C18.6228 28.8001 18.962 29.1328 19.3908 29.152L21.6564 29.2161C22.0148 29.2289 22.6932 28.9792 22.6932 28.6144C22.6932 28.064 22.2516 27.6225 21.7012 27.6161V27.6224Z" fill="#F0D205" stroke="black" stroke-width="1.28" stroke-linecap="round" stroke-linejoin="round"/>
<path d="M31.3906 31.4048C30.2578 28.7616 27.0898 24.48 27.0898 24.48L41.5282 25.0752L44.5106 30.8288C44.5106 30.8288 34.7122 31.6864 31.3906 31.4048Z" fill="#9C8040" stroke="black" stroke-width="1.28" stroke-linecap="round" stroke-linejoin="round"/>
</svg>
