<svg width="64" height="64" viewBox="0 0 64 64" fill="none" xmlns="http://www.w3.org/2000/svg">
<path d="M29.2801 59.3088L34.7201 59.232L31.5521 14.1184L29.0369 13.9648L27.9297 14.9312L29.2801 59.3088Z" fill="#9C8040" stroke="black" stroke-width="1.28" stroke-linecap="round" stroke-linejoin="round"/>
<path d="M41.1601 24.736L41.8321 29.3248C41.8449 29.4272 41.7873 29.5104 41.6849 29.536L29.7553 31.8784L28.6289 24.1344L40.8785 24.4928C41.0193 24.4928 41.1537 24.608 41.1729 24.7424L41.1601 24.736Z" fill="black" stroke="black" stroke-width="1.28" stroke-linecap="round" stroke-linejoin="round"/>
<path d="M34.5673 30.2401L32.6217 17.6321L31.0729 16.5697L15.8217 20.4929L15.0921 17.0433L13.6585 16.5505L8.12891 26.8225L16.9545 33.4657L18.4265 32.6913L17.7673 29.4401L33.1465 30.8417L34.5673 30.2401Z" fill="black" stroke="black" stroke-width="1.28" stroke-linecap="round" stroke-linejoin="round"/>
<path d="M33.2692 30.7584L31.074 16.5696L14.306 20.1856L13.6596 16.5504L6.98438 26.0224L16.5396 32.6912L15.8548 28.8512L33.2692 30.7584Z" fill="#9C8040" stroke="black" stroke-width="1.28" stroke-linecap="round" stroke-linejoin="round"/>
<path d="M39.6523 22.56L40.8299 31.8272L44.1067 27.1104L39.6523 22.56Z" fill="black" stroke="black" stroke-width="1.28" stroke-linecap="round" stroke-linejoin="round"/>
<path d="M31.252 19.8977L30.2344 20.8833L31.5528 21.2417" stroke="black" stroke-width="1.28" stroke-linecap="round" stroke-linejoin="round"/>
<mask id="mask0_3807_20896" style="mask-type:luminance" maskUnits="userSpaceOnUse" x="36" y="45" width="23" height="15">
<path d="M37.0378 57.536C37.0378 57.536 42.337 56.864 48.5066 59.1808C48.5066 59.1808 56.2314 58.6112 58.4714 58.6112C59.1242 49.8176 56.6218 40.6848 40.353 49.5488C34.4714 52.7552 37.0378 57.536 37.0378 57.536Z" fill="white"/>
</mask>
<g mask="url(#mask0_3807_20896)">
<path d="M45.9313 50.9376C45.9313 50.9376 37.2209 50.8673 37.9761 56.6721C38.7313 62.4769 39.3521 67.3152 52.4785 66.0928C65.6049 64.8768 54.4177 50.5152 45.9313 50.9376Z" fill="#FFD300" stroke="black" stroke-width="1.28" stroke-miterlimit="10"/>
<path d="M49.4947 53.1521C49.4947 53.1521 50.8195 53.7217 51.8499 53.7729C52.8803 53.8241 53.3475 47.8337 52.5347 47.2705C51.7219 46.7073 49.6931 51.0209 49.4883 53.1521H49.4947Z" fill="#BED93D" stroke="black" stroke-width="1.28" stroke-linecap="round" stroke-linejoin="round"/>
<path d="M42.2625 54.1441C42.6124 54.1441 42.8961 53.8604 42.8961 53.5105C42.8961 53.1605 42.6124 52.8769 42.2625 52.8769C41.9126 52.8769 41.6289 53.1605 41.6289 53.5105C41.6289 53.8604 41.9126 54.1441 42.2625 54.1441Z" fill="#E8A500"/>
<path d="M40.2664 55.0977C40.6163 55.0977 40.9 54.814 40.9 54.4641C40.9 54.1141 40.6163 53.8305 40.2664 53.8305C39.9165 53.8305 39.6328 54.1141 39.6328 54.4641C39.6328 54.814 39.9165 55.0977 40.2664 55.0977Z" fill="#E8A500"/>
<path d="M43.0379 60.8705C43.6176 60.8705 44.0875 60.4006 44.0875 59.8209C44.0875 59.2412 43.6176 58.7713 43.0379 58.7713C42.4582 58.7713 41.9883 59.2412 41.9883 59.8209C41.9883 60.4006 42.4582 60.8705 43.0379 60.8705Z" fill="#E8A500"/>
<path d="M54.097 57.5041C54.4505 57.5041 54.737 57.2176 54.737 56.8641C54.737 56.5106 54.4505 56.2241 54.097 56.2241C53.7436 56.2241 53.457 56.5106 53.457 56.8641C53.457 57.2176 53.7436 57.5041 54.097 57.5041Z" fill="#E8A500"/>
</g>
<path d="M61.3125 59.4945C62.0229 59.5905 61.7413 59.6225 62.5029 59.6289" stroke="black" stroke-width="1.28" stroke-linecap="round" stroke-linejoin="round"/>
<path d="M37.4961 57.6256C41.7457 56.8704 42.0529 56.6784 46.8273 59.1104C47.3329 59.3728 50.7761 57.7792 59.3073 59.1744" stroke="black" stroke-width="1.28" stroke-linecap="round" stroke-linejoin="round"/>
<path d="M44.2383 59.3088C44.2383 59.3088 46.4271 59.3664 48.2575 58.9632" stroke="black" stroke-width="1.28" stroke-linecap="round" stroke-linejoin="round"/>
<mask id="mask1_3807_20896" style="mask-type:luminance" maskUnits="userSpaceOnUse" x="1" y="44" width="25" height="16">
<path d="M25.5467 44.5183H1.38672V59.2447H25.5467V44.5183Z" fill="white"/>
</mask>
<g mask="url(#mask1_3807_20896)">
<path d="M22.5149 61.6643C24.387 56.6359 22.4163 51.261 18.1134 49.659C13.8104 48.0571 8.80463 50.8347 6.93259 55.8631C5.06056 60.8915 7.0312 66.2665 11.3341 67.8684C15.6371 69.4704 20.6429 66.6927 22.5149 61.6643Z" fill="#E8A500" stroke="black" stroke-width="1.28" stroke-miterlimit="10"/>
<path d="M20.222 60.7856C22.094 55.7572 20.1234 50.3823 15.8204 48.7803C11.5175 47.1784 6.51166 49.956 4.63963 54.9844C2.76759 60.0128 4.73823 65.3878 9.04118 66.9897C13.3441 68.5917 18.3499 65.814 20.222 60.7856Z" fill="#FFD300" stroke="black" stroke-width="1.28" stroke-miterlimit="10"/>
<path d="M10.4212 53.0751C9.85161 55.7119 8.57161 58.1055 7.91241 60.7103C7.68201 61.6063 9.07081 61.9903 9.30121 61.0943C9.96681 58.4895 11.2468 56.0895 11.81 53.4591C12.002 52.5567 10.6196 52.1663 10.4212 53.0751Z" fill="#E8A500"/>
<path d="M10.4406 53.2672C11.439 53.5488 12.4566 53.7792 13.4358 54.1184C14.3638 54.4448 15.2214 55.1744 15.0678 56.2624C14.9974 56.7488 14.7478 57.184 14.2422 57.28C13.775 57.3696 13.5702 57.2864 13.0838 57.1776C12.111 56.9536 11.1318 56.6912 10.191 56.3584C10.063 56.8192 9.93502 57.2864 9.80702 57.7472C10.8758 58.112 12.0086 58.3232 13.0646 58.72C13.9926 59.0656 14.5558 59.968 14.2102 60.9472C14.1462 61.12 14.0502 61.3056 13.8966 61.4144C13.743 61.5232 13.7174 61.504 13.5766 61.504C13.1286 61.5232 12.6678 61.4912 12.2262 61.4208C10.8374 61.2032 9.49982 60.6528 8.18142 60.1728C7.31102 59.8528 6.93342 61.248 7.79742 61.5616C9.03262 62.0096 10.2678 62.496 11.5606 62.752C12.4502 62.9312 13.6662 63.1552 14.4982 62.72C15.4262 62.2336 15.8166 61.0752 15.727 60.0832C15.6118 58.816 14.7862 57.8688 13.6278 57.4016C12.4694 56.9344 11.311 56.7424 10.1782 56.3584C9.29502 56.0576 8.92382 57.44 9.79422 57.7472C10.9142 58.1376 12.0918 58.4832 13.263 58.688C14.767 58.9504 16.1494 58.2016 16.4438 56.6464C16.7318 55.1424 15.8998 53.6704 14.5302 53.024C13.359 52.4672 12.047 52.2304 10.8118 51.8784C9.91582 51.6288 9.53822 53.0176 10.4278 53.2672H10.4406Z" fill="#E8A500"/>
<path d="M12.8987 52.0512C12.8411 52.2368 12.7643 52.416 12.6939 52.5952C12.6619 52.6912 12.6619 52.7872 12.6811 52.8832C12.6811 52.9792 12.7131 53.0688 12.7643 53.152C12.8091 53.2352 12.8731 53.3056 12.9499 53.3568C13.0203 53.4208 13.1035 53.4656 13.1931 53.4848L13.3851 53.5104C13.5131 53.5104 13.6347 53.4784 13.7499 53.4144L13.8971 53.2992C13.9867 53.2096 14.0507 53.1008 14.0827 52.9792C14.1531 52.8 14.2299 52.6208 14.2875 52.4352C14.3195 52.3392 14.3195 52.2432 14.3003 52.1472C14.3003 52.0512 14.2683 51.9616 14.2171 51.8784C14.1723 51.7952 14.1083 51.7248 14.0315 51.6736C13.9611 51.6096 13.8779 51.5648 13.7883 51.5456L13.5963 51.52C13.4683 51.52 13.3467 51.552 13.2315 51.616L13.0843 51.7312C12.9947 51.8208 12.9307 51.9296 12.8987 52.0512Z" fill="#E8A500"/>
</g>
<path d="M1.39062 59.2448H25.5506" stroke="black" stroke-width="1.28" stroke-linecap="round" stroke-linejoin="round"/>
</svg>
